G04 #@! TF.GenerationSoftware,KiCad,Pcbnew,5.1.5-52549c5~84~ubuntu19.04.1*
G04 #@! TF.CreationDate,2020-03-13T02:14:12+03:00*
G04 #@! TF.ProjectId,flex-strip-tester-v3,666c6578-2d73-4747-9269-702d74657374,rev?*
G04 #@! TF.SameCoordinates,Original*
G04 #@! TF.FileFunction,Copper,L1,Top*
G04 #@! TF.FilePolarity,Positive*
%FSLAX46Y46*%
G04 Gerber Fmt 4.6, Leading zero omitted, Abs format (unit mm)*
G04 Created by KiCad (PCBNEW 5.1.5-52549c5~84~ubuntu19.04.1) date 2020-03-13 02:14:12*
%MOMM*%
%LPD*%
G04 APERTURE LIST*
%ADD10C,0.200000*%
%ADD11C,0.300000*%
%ADD12C,0.010000*%
%ADD13C,8.128000*%
%ADD14C,0.100000*%
%ADD15C,0.800000*%
%ADD16C,0.250000*%
%ADD17C,0.025400*%
G04 APERTURE END LIST*
D10*
X129643673Y-93005031D02*
X129643673Y-91505031D01*
X129643673Y-92933602D02*
X129510340Y-93005031D01*
X129243673Y-93005031D01*
X129110340Y-92933602D01*
X129043673Y-92862174D01*
X128977006Y-92719317D01*
X128977006Y-92290745D01*
X129043673Y-92147888D01*
X129110340Y-92076460D01*
X129243673Y-92005031D01*
X129510340Y-92005031D01*
X129643673Y-92076460D01*
X130310340Y-93005031D02*
X130310340Y-92005031D01*
X130310340Y-92290745D02*
X130377006Y-92147888D01*
X130443673Y-92076460D01*
X130577006Y-92005031D01*
X130710340Y-92005031D01*
X131710340Y-92933602D02*
X131577006Y-93005031D01*
X131310340Y-93005031D01*
X131177006Y-92933602D01*
X131110340Y-92790745D01*
X131110340Y-92219317D01*
X131177006Y-92076460D01*
X131310340Y-92005031D01*
X131577006Y-92005031D01*
X131710340Y-92076460D01*
X131777006Y-92219317D01*
X131777006Y-92362174D01*
X131110340Y-92505031D01*
X132243673Y-92005031D02*
X132510340Y-93005031D01*
X132777006Y-92290745D01*
X133043673Y-93005031D01*
X133310340Y-92005031D01*
X134710340Y-92290745D02*
X134643673Y-92219317D01*
X134510340Y-92147888D01*
X134377006Y-92147888D01*
X134243673Y-92219317D01*
X134177006Y-92290745D01*
X134110340Y-92433602D01*
X134110340Y-92576460D01*
X134177006Y-92719317D01*
X134243673Y-92790745D01*
X134377006Y-92862174D01*
X134510340Y-92862174D01*
X134643673Y-92790745D01*
X134710340Y-92719317D01*
X134710340Y-92147888D02*
X134710340Y-92719317D01*
X134777006Y-92790745D01*
X134843673Y-92790745D01*
X134977006Y-92719317D01*
X135043673Y-92576460D01*
X135043673Y-92219317D01*
X134910340Y-92005031D01*
X134710340Y-91862174D01*
X134443673Y-91790745D01*
X134177006Y-91862174D01*
X133977006Y-92005031D01*
X133843673Y-92219317D01*
X133777006Y-92505031D01*
X133843673Y-92790745D01*
X133977006Y-93005031D01*
X134177006Y-93147888D01*
X134443673Y-93219317D01*
X134710340Y-93147888D01*
X134910340Y-93005031D01*
X135843673Y-93005031D02*
X135710340Y-92933602D01*
X135643673Y-92862174D01*
X135577006Y-92719317D01*
X135577006Y-92290745D01*
X135643673Y-92147888D01*
X135710340Y-92076460D01*
X135843673Y-92005031D01*
X136043673Y-92005031D01*
X136177006Y-92076460D01*
X136243673Y-92147888D01*
X136310340Y-92290745D01*
X136310340Y-92719317D01*
X136243673Y-92862174D01*
X136177006Y-92933602D01*
X136043673Y-93005031D01*
X135843673Y-93005031D01*
X136843673Y-92933602D02*
X136977006Y-93005031D01*
X137243673Y-93005031D01*
X137377006Y-92933602D01*
X137443673Y-92790745D01*
X137443673Y-92719317D01*
X137377006Y-92576460D01*
X137243673Y-92505031D01*
X137043673Y-92505031D01*
X136910340Y-92433602D01*
X136843673Y-92290745D01*
X136843673Y-92219317D01*
X136910340Y-92076460D01*
X137043673Y-92005031D01*
X137243673Y-92005031D01*
X137377006Y-92076460D01*
X138043673Y-93005031D02*
X138043673Y-91505031D01*
X138643673Y-93005031D02*
X138643673Y-92219317D01*
X138577006Y-92076460D01*
X138443673Y-92005031D01*
X138243673Y-92005031D01*
X138110340Y-92076460D01*
X138043673Y-92147888D01*
X139310340Y-92005031D02*
X139310340Y-93505031D01*
X139310340Y-92076460D02*
X139443673Y-92005031D01*
X139710340Y-92005031D01*
X139843673Y-92076460D01*
X139910340Y-92147888D01*
X139977006Y-92290745D01*
X139977006Y-92719317D01*
X139910340Y-92862174D01*
X139843673Y-92933602D01*
X139710340Y-93005031D01*
X139443673Y-93005031D01*
X139310340Y-92933602D01*
X141177006Y-93005031D02*
X141177006Y-92219317D01*
X141110340Y-92076460D01*
X140977006Y-92005031D01*
X140710340Y-92005031D01*
X140577006Y-92076460D01*
X141177006Y-92933602D02*
X141043673Y-93005031D01*
X140710340Y-93005031D01*
X140577006Y-92933602D01*
X140510340Y-92790745D01*
X140510340Y-92647888D01*
X140577006Y-92505031D01*
X140710340Y-92433602D01*
X141043673Y-92433602D01*
X141177006Y-92362174D01*
X141843673Y-93005031D02*
X141843673Y-92005031D01*
X141843673Y-92290745D02*
X141910340Y-92147888D01*
X141977006Y-92076460D01*
X142110340Y-92005031D01*
X142243673Y-92005031D01*
X142710340Y-93005031D02*
X142710340Y-91505031D01*
X142843673Y-92433602D02*
X143243673Y-93005031D01*
X143243673Y-92005031D02*
X142710340Y-92576460D01*
X143843673Y-92862174D02*
X143910340Y-92933602D01*
X143843673Y-93005031D01*
X143777006Y-92933602D01*
X143843673Y-92862174D01*
X143843673Y-93005031D01*
X145110340Y-92933602D02*
X144977006Y-93005031D01*
X144710340Y-93005031D01*
X144577006Y-92933602D01*
X144510340Y-92862174D01*
X144443673Y-92719317D01*
X144443673Y-92290745D01*
X144510340Y-92147888D01*
X144577006Y-92076460D01*
X144710340Y-92005031D01*
X144977006Y-92005031D01*
X145110340Y-92076460D01*
X145910340Y-93005031D02*
X145777006Y-92933602D01*
X145710340Y-92862174D01*
X145643673Y-92719317D01*
X145643673Y-92290745D01*
X145710340Y-92147888D01*
X145777006Y-92076460D01*
X145910340Y-92005031D01*
X146110340Y-92005031D01*
X146243673Y-92076460D01*
X146310340Y-92147888D01*
X146377006Y-92290745D01*
X146377006Y-92719317D01*
X146310340Y-92862174D01*
X146243673Y-92933602D01*
X146110340Y-93005031D01*
X145910340Y-93005031D01*
X146977006Y-93005031D02*
X146977006Y-92005031D01*
X146977006Y-92147888D02*
X147043673Y-92076460D01*
X147177006Y-92005031D01*
X147377006Y-92005031D01*
X147510340Y-92076460D01*
X147577006Y-92219317D01*
X147577006Y-93005031D01*
X147577006Y-92219317D02*
X147643673Y-92076460D01*
X147777006Y-92005031D01*
X147977006Y-92005031D01*
X148110340Y-92076460D01*
X148177006Y-92219317D01*
X148177006Y-93005031D01*
X158248706Y-92344085D02*
X158182040Y-92272657D01*
X158048706Y-92201228D01*
X157915373Y-92201228D01*
X157782040Y-92272657D01*
X157715373Y-92344085D01*
X157648706Y-92486942D01*
X157648706Y-92629800D01*
X157715373Y-92772657D01*
X157782040Y-92844085D01*
X157915373Y-92915514D01*
X158048706Y-92915514D01*
X158182040Y-92844085D01*
X158248706Y-92772657D01*
X158248706Y-92201228D02*
X158248706Y-92772657D01*
X158315373Y-92844085D01*
X158382040Y-92844085D01*
X158515373Y-92772657D01*
X158582040Y-92629800D01*
X158582040Y-92272657D01*
X158448706Y-92058371D01*
X158248706Y-91915514D01*
X157982040Y-91844085D01*
X157715373Y-91915514D01*
X157515373Y-92058371D01*
X157382040Y-92272657D01*
X157315373Y-92558371D01*
X157382040Y-92844085D01*
X157515373Y-93058371D01*
X157715373Y-93201228D01*
X157982040Y-93272657D01*
X158248706Y-93201228D01*
X158448706Y-93058371D01*
X159382040Y-93058371D02*
X159248706Y-92986942D01*
X159182040Y-92915514D01*
X159115373Y-92772657D01*
X159115373Y-92344085D01*
X159182040Y-92201228D01*
X159248706Y-92129800D01*
X159382040Y-92058371D01*
X159582040Y-92058371D01*
X159715373Y-92129800D01*
X159782040Y-92201228D01*
X159848706Y-92344085D01*
X159848706Y-92772657D01*
X159782040Y-92915514D01*
X159715373Y-92986942D01*
X159582040Y-93058371D01*
X159382040Y-93058371D01*
X160382040Y-92986942D02*
X160515373Y-93058371D01*
X160782040Y-93058371D01*
X160915373Y-92986942D01*
X160982040Y-92844085D01*
X160982040Y-92772657D01*
X160915373Y-92629800D01*
X160782040Y-92558371D01*
X160582040Y-92558371D01*
X160448706Y-92486942D01*
X160382040Y-92344085D01*
X160382040Y-92272657D01*
X160448706Y-92129800D01*
X160582040Y-92058371D01*
X160782040Y-92058371D01*
X160915373Y-92129800D01*
X161582040Y-93058371D02*
X161582040Y-91558371D01*
X162182040Y-93058371D02*
X162182040Y-92272657D01*
X162115373Y-92129800D01*
X161982040Y-92058371D01*
X161782040Y-92058371D01*
X161648706Y-92129800D01*
X161582040Y-92201228D01*
X162848706Y-92058371D02*
X162848706Y-93558371D01*
X162848706Y-92129800D02*
X162982040Y-92058371D01*
X163248706Y-92058371D01*
X163382040Y-92129800D01*
X163448706Y-92201228D01*
X163515373Y-92344085D01*
X163515373Y-92772657D01*
X163448706Y-92915514D01*
X163382040Y-92986942D01*
X163248706Y-93058371D01*
X162982040Y-93058371D01*
X162848706Y-92986942D01*
X164715373Y-93058371D02*
X164715373Y-92272657D01*
X164648706Y-92129800D01*
X164515373Y-92058371D01*
X164248706Y-92058371D01*
X164115373Y-92129800D01*
X164715373Y-92986942D02*
X164582040Y-93058371D01*
X164248706Y-93058371D01*
X164115373Y-92986942D01*
X164048706Y-92844085D01*
X164048706Y-92701228D01*
X164115373Y-92558371D01*
X164248706Y-92486942D01*
X164582040Y-92486942D01*
X164715373Y-92415514D01*
X165382040Y-93058371D02*
X165382040Y-92058371D01*
X165382040Y-92344085D02*
X165448706Y-92201228D01*
X165515373Y-92129800D01*
X165648706Y-92058371D01*
X165782040Y-92058371D01*
X166248706Y-93058371D02*
X166248706Y-91558371D01*
X166382040Y-92486942D02*
X166782040Y-93058371D01*
X166782040Y-92058371D02*
X166248706Y-92629800D01*
X167715373Y-93558371D02*
X167715373Y-91415514D01*
X169582040Y-92344085D02*
X169515373Y-92272657D01*
X169382040Y-92201228D01*
X169248706Y-92201228D01*
X169115373Y-92272657D01*
X169048706Y-92344085D01*
X168982040Y-92486942D01*
X168982040Y-92629800D01*
X169048706Y-92772657D01*
X169115373Y-92844085D01*
X169248706Y-92915514D01*
X169382040Y-92915514D01*
X169515373Y-92844085D01*
X169582040Y-92772657D01*
X169582040Y-92201228D02*
X169582040Y-92772657D01*
X169648706Y-92844085D01*
X169715373Y-92844085D01*
X169848706Y-92772657D01*
X169915373Y-92629800D01*
X169915373Y-92272657D01*
X169782040Y-92058371D01*
X169582040Y-91915514D01*
X169315373Y-91844085D01*
X169048706Y-91915514D01*
X168848706Y-92058371D01*
X168715373Y-92272657D01*
X168648706Y-92558371D01*
X168715373Y-92844085D01*
X168848706Y-93058371D01*
X169048706Y-93201228D01*
X169315373Y-93272657D01*
X169582040Y-93201228D01*
X169782040Y-93058371D01*
X170515373Y-92058371D02*
X170515373Y-93558371D01*
X170515373Y-92129800D02*
X170648706Y-92058371D01*
X170915373Y-92058371D01*
X171048706Y-92129800D01*
X171115373Y-92201228D01*
X171182040Y-92344085D01*
X171182040Y-92772657D01*
X171115373Y-92915514D01*
X171048706Y-92986942D01*
X170915373Y-93058371D01*
X170648706Y-93058371D01*
X170515373Y-92986942D01*
X172382040Y-93058371D02*
X172382040Y-91558371D01*
X172382040Y-92986942D02*
X172248706Y-93058371D01*
X171982040Y-93058371D01*
X171848706Y-92986942D01*
X171782040Y-92915514D01*
X171715373Y-92772657D01*
X171715373Y-92344085D01*
X171782040Y-92201228D01*
X171848706Y-92129800D01*
X171982040Y-92058371D01*
X172248706Y-92058371D01*
X172382040Y-92129800D01*
X173048706Y-92058371D02*
X173048706Y-93558371D01*
X173048706Y-92129800D02*
X173182040Y-92058371D01*
X173448706Y-92058371D01*
X173582040Y-92129800D01*
X173648706Y-92201228D01*
X173715373Y-92344085D01*
X173715373Y-92772657D01*
X173648706Y-92915514D01*
X173582040Y-92986942D01*
X173448706Y-93058371D01*
X173182040Y-93058371D01*
X173048706Y-92986942D01*
X174182040Y-91558371D02*
X175115373Y-91558371D01*
X174515373Y-93058371D01*
D11*
X140372452Y-100663392D02*
X140372452Y-98163392D01*
X140967690Y-98163392D01*
X141324833Y-98282440D01*
X141562928Y-98520535D01*
X141681976Y-98758630D01*
X141801023Y-99234820D01*
X141801023Y-99591963D01*
X141681976Y-100068154D01*
X141562928Y-100306249D01*
X141324833Y-100544344D01*
X140967690Y-100663392D01*
X140372452Y-100663392D01*
X142872452Y-100663392D02*
X142872452Y-98996725D01*
X142872452Y-99472916D02*
X142991500Y-99234820D01*
X143110547Y-99115773D01*
X143348642Y-98996725D01*
X143586738Y-98996725D01*
X145372452Y-100544344D02*
X145134357Y-100663392D01*
X144658166Y-100663392D01*
X144420071Y-100544344D01*
X144301023Y-100306249D01*
X144301023Y-99353868D01*
X144420071Y-99115773D01*
X144658166Y-98996725D01*
X145134357Y-98996725D01*
X145372452Y-99115773D01*
X145491500Y-99353868D01*
X145491500Y-99591963D01*
X144301023Y-99830059D01*
X146324833Y-98996725D02*
X146801023Y-100663392D01*
X147277214Y-99472916D01*
X147753404Y-100663392D01*
X148229595Y-98996725D01*
X157634357Y-99353868D02*
X156801023Y-99353868D01*
X156801023Y-100663392D02*
X156801023Y-98163392D01*
X157991500Y-98163392D01*
X160015309Y-98996725D02*
X160015309Y-100663392D01*
X158943880Y-98996725D02*
X158943880Y-100306249D01*
X159062928Y-100544344D01*
X159301023Y-100663392D01*
X159658166Y-100663392D01*
X159896261Y-100544344D01*
X160015309Y-100425297D01*
X161086738Y-100544344D02*
X161324833Y-100663392D01*
X161801023Y-100663392D01*
X162039119Y-100544344D01*
X162158166Y-100306249D01*
X162158166Y-100187201D01*
X162039119Y-99949106D01*
X161801023Y-99830059D01*
X161443880Y-99830059D01*
X161205785Y-99711011D01*
X161086738Y-99472916D01*
X161086738Y-99353868D01*
X161205785Y-99115773D01*
X161443880Y-98996725D01*
X161801023Y-98996725D01*
X162039119Y-99115773D01*
X162872452Y-98996725D02*
X163824833Y-98996725D01*
X163229595Y-98163392D02*
X163229595Y-100306249D01*
X163348642Y-100544344D01*
X163586738Y-100663392D01*
X163824833Y-100663392D01*
X164658166Y-100663392D02*
X164658166Y-98996725D01*
X164658166Y-98163392D02*
X164539119Y-98282440D01*
X164658166Y-98401487D01*
X164777214Y-98282440D01*
X164658166Y-98163392D01*
X164658166Y-98401487D01*
X165848642Y-98996725D02*
X165848642Y-100663392D01*
X165848642Y-99234820D02*
X165967690Y-99115773D01*
X166205785Y-98996725D01*
X166562928Y-98996725D01*
X166801023Y-99115773D01*
X166920071Y-99353868D01*
X166920071Y-100663392D01*
X168110547Y-100663392D02*
X168110547Y-98996725D01*
X168110547Y-98163392D02*
X167991500Y-98282440D01*
X168110547Y-98401487D01*
X168229595Y-98282440D01*
X168110547Y-98163392D01*
X168110547Y-98401487D01*
D12*
G36*
X152512149Y-90769237D02*
G01*
X152670141Y-90770102D01*
X152784482Y-90772444D01*
X152862542Y-90777001D01*
X152911689Y-90784509D01*
X152939294Y-90795705D01*
X152952727Y-90811327D01*
X152959356Y-90832112D01*
X152960000Y-90834802D01*
X152970070Y-90883352D01*
X152988710Y-90979144D01*
X153013980Y-91111982D01*
X153043942Y-91271670D01*
X153076657Y-91448013D01*
X153077799Y-91454206D01*
X153110568Y-91627021D01*
X153141228Y-91779708D01*
X153167799Y-91903110D01*
X153188302Y-91988070D01*
X153200761Y-92025429D01*
X153201355Y-92026091D01*
X153238054Y-92044334D01*
X153313721Y-92074736D01*
X153412013Y-92110732D01*
X153412560Y-92110924D01*
X153536368Y-92157461D01*
X153682331Y-92216743D01*
X153819916Y-92276348D01*
X153826428Y-92279295D01*
X154050525Y-92381004D01*
X154546754Y-92042136D01*
X154698981Y-91938831D01*
X154836876Y-91846476D01*
X154952450Y-91770323D01*
X155037714Y-91715624D01*
X155084679Y-91687632D01*
X155089139Y-91685556D01*
X155123269Y-91694799D01*
X155187016Y-91739395D01*
X155282866Y-91821448D01*
X155413304Y-91943060D01*
X155546463Y-92072444D01*
X155674829Y-92199941D01*
X155789716Y-92316285D01*
X155884208Y-92414291D01*
X155951388Y-92486775D01*
X155984341Y-92526552D01*
X155985567Y-92528600D01*
X155989209Y-92555895D01*
X155975485Y-92600473D01*
X155941004Y-92668351D01*
X155882374Y-92765550D01*
X155796205Y-92898090D01*
X155681335Y-93068715D01*
X155579389Y-93218894D01*
X155488258Y-93353589D01*
X155413208Y-93464979D01*
X155359504Y-93545244D01*
X155332415Y-93586564D01*
X155330709Y-93589369D01*
X155334017Y-93628960D01*
X155359088Y-93705908D01*
X155400933Y-93805671D01*
X155415847Y-93837530D01*
X155480921Y-93979465D01*
X155550347Y-94140512D01*
X155606744Y-94279860D01*
X155647382Y-94383283D01*
X155679661Y-94461881D01*
X155698313Y-94502959D01*
X155700632Y-94506124D01*
X155734938Y-94511367D01*
X155815804Y-94525733D01*
X155932478Y-94547176D01*
X156074210Y-94573652D01*
X156230245Y-94603116D01*
X156389833Y-94633522D01*
X156542220Y-94662827D01*
X156676656Y-94688984D01*
X156782387Y-94709949D01*
X156848661Y-94723678D01*
X156864917Y-94727559D01*
X156881708Y-94737139D01*
X156894384Y-94758775D01*
X156903513Y-94799770D01*
X156909666Y-94867428D01*
X156913415Y-94969051D01*
X156915327Y-95111942D01*
X156915975Y-95303404D01*
X156916009Y-95381884D01*
X156916009Y-96020145D01*
X156762733Y-96050399D01*
X156677457Y-96066803D01*
X156550205Y-96090748D01*
X156396450Y-96119346D01*
X156231669Y-96149706D01*
X156186124Y-96158045D01*
X156034067Y-96187609D01*
X155901603Y-96216681D01*
X155799849Y-96242568D01*
X155739923Y-96262576D01*
X155729940Y-96268540D01*
X155705428Y-96310773D01*
X155670283Y-96392609D01*
X155631308Y-96497922D01*
X155623577Y-96520607D01*
X155572495Y-96661257D01*
X155509089Y-96819953D01*
X155447039Y-96962464D01*
X155446733Y-96963125D01*
X155343402Y-97186679D01*
X156023096Y-98186471D01*
X155586756Y-98623539D01*
X155454784Y-98753620D01*
X155334414Y-98868287D01*
X155232408Y-98961420D01*
X155155526Y-99026897D01*
X155110528Y-99058596D01*
X155104073Y-99060607D01*
X155066175Y-99044768D01*
X154988843Y-99000735D01*
X154880524Y-98933729D01*
X154749667Y-98848973D01*
X154608187Y-98754055D01*
X154464596Y-98657237D01*
X154336570Y-98572990D01*
X154232240Y-98506497D01*
X154159735Y-98462941D01*
X154127293Y-98447503D01*
X154087711Y-98460567D01*
X154012654Y-98494989D01*
X153917603Y-98543619D01*
X153907527Y-98549024D01*
X153779526Y-98613219D01*
X153691753Y-98644702D01*
X153637163Y-98645037D01*
X153608710Y-98615787D01*
X153608545Y-98615377D01*
X153594323Y-98580737D01*
X153560404Y-98498508D01*
X153509419Y-98375053D01*
X153443997Y-98216737D01*
X153366769Y-98029925D01*
X153280364Y-97820981D01*
X153196686Y-97618685D01*
X153104723Y-97395439D01*
X153020285Y-97188631D01*
X152945904Y-97004601D01*
X152884109Y-96849690D01*
X152837432Y-96730235D01*
X152808403Y-96652578D01*
X152799457Y-96623595D01*
X152821891Y-96590349D01*
X152880574Y-96537362D01*
X152958824Y-96478943D01*
X153181669Y-96294191D01*
X153355853Y-96082421D01*
X153479289Y-95848095D01*
X153549889Y-95595673D01*
X153565566Y-95329616D01*
X153554171Y-95206814D01*
X153492085Y-94952032D01*
X153385158Y-94727040D01*
X153240024Y-94534056D01*
X153063313Y-94375300D01*
X152861657Y-94252989D01*
X152641689Y-94169344D01*
X152410041Y-94126583D01*
X152173344Y-94126926D01*
X151938230Y-94172591D01*
X151711331Y-94265798D01*
X151499279Y-94408766D01*
X151410771Y-94489622D01*
X151241024Y-94697246D01*
X151122834Y-94924134D01*
X151055413Y-95163672D01*
X151037975Y-95409246D01*
X151069733Y-95654242D01*
X151149900Y-95892047D01*
X151277690Y-96116046D01*
X151452315Y-96319626D01*
X151647447Y-96478943D01*
X151728726Y-96539841D01*
X151786144Y-96592254D01*
X151806813Y-96623645D01*
X151795991Y-96657878D01*
X151765212Y-96739658D01*
X151717009Y-96862646D01*
X151653913Y-97020502D01*
X151578457Y-97206888D01*
X151493173Y-97415465D01*
X151409354Y-97618735D01*
X151316880Y-97842172D01*
X151231224Y-98049223D01*
X151155017Y-98233525D01*
X151090888Y-98388714D01*
X151041467Y-98508427D01*
X151009383Y-98586300D01*
X150997494Y-98615377D01*
X150969409Y-98644916D01*
X150915084Y-98644830D01*
X150827530Y-98613565D01*
X150699754Y-98549568D01*
X150698743Y-98549024D01*
X150602537Y-98499360D01*
X150524766Y-98463184D01*
X150480912Y-98447647D01*
X150478977Y-98447503D01*
X150445964Y-98463263D01*
X150373081Y-98507089D01*
X150268457Y-98573796D01*
X150140225Y-98658203D01*
X149998083Y-98754055D01*
X149853368Y-98851106D01*
X149722939Y-98935509D01*
X149615245Y-99002040D01*
X149538733Y-99045477D01*
X149502197Y-99060607D01*
X149468553Y-99040721D01*
X149400911Y-98985142D01*
X149306028Y-98899993D01*
X149190665Y-98791392D01*
X149061580Y-98665460D01*
X149019364Y-98623388D01*
X148582874Y-98186170D01*
X148915112Y-97698579D01*
X149016081Y-97548844D01*
X149104697Y-97414459D01*
X149175989Y-97303208D01*
X149224985Y-97222878D01*
X149246713Y-97181253D01*
X149247350Y-97178292D01*
X149235895Y-97139057D01*
X149205084Y-97060134D01*
X149160251Y-96954748D01*
X149128782Y-96884193D01*
X149069943Y-96749115D01*
X149014531Y-96612648D01*
X148971571Y-96497342D01*
X148959901Y-96462216D01*
X148926746Y-96368413D01*
X148894336Y-96295933D01*
X148876534Y-96268540D01*
X148837249Y-96251775D01*
X148751509Y-96228009D01*
X148630438Y-96199936D01*
X148485162Y-96170248D01*
X148420147Y-96158045D01*
X148255048Y-96127707D01*
X148096687Y-96098332D01*
X147960539Y-96072808D01*
X147862078Y-96054024D01*
X147843537Y-96050399D01*
X147690262Y-96020145D01*
X147690262Y-95381884D01*
X147690606Y-95172009D01*
X147692019Y-95013219D01*
X147695071Y-94898212D01*
X147700332Y-94819685D01*
X147708372Y-94770335D01*
X147719762Y-94742858D01*
X147735072Y-94729952D01*
X147741353Y-94727559D01*
X147779239Y-94719072D01*
X147862940Y-94702139D01*
X147981702Y-94678805D01*
X148124774Y-94651114D01*
X148281403Y-94621112D01*
X148440838Y-94590843D01*
X148592326Y-94562354D01*
X148725116Y-94537688D01*
X148828454Y-94518890D01*
X148891590Y-94508006D01*
X148905638Y-94506124D01*
X148918365Y-94480943D01*
X148946535Y-94413861D01*
X148984883Y-94317572D01*
X148999526Y-94279860D01*
X149058587Y-94134160D01*
X149128135Y-93973190D01*
X149190423Y-93837530D01*
X149236256Y-93733800D01*
X149266748Y-93648565D01*
X149276927Y-93596365D01*
X149275304Y-93589369D01*
X149253792Y-93556341D01*
X149204670Y-93482882D01*
X149133212Y-93376816D01*
X149044690Y-93245965D01*
X148944376Y-93098151D01*
X148924541Y-93068973D01*
X148808147Y-92896102D01*
X148722587Y-92764465D01*
X148664451Y-92668000D01*
X148630327Y-92600647D01*
X148616804Y-92556345D01*
X148620471Y-92529033D01*
X148620565Y-92528859D01*
X148649428Y-92492985D01*
X148713268Y-92423630D01*
X148805166Y-92327984D01*
X148918202Y-92213238D01*
X149045456Y-92086580D01*
X149059807Y-92072444D01*
X149220178Y-91917142D01*
X149343940Y-91803109D01*
X149433580Y-91728241D01*
X149491583Y-91690435D01*
X149517131Y-91685556D01*
X149554417Y-91706842D01*
X149631792Y-91756012D01*
X149741268Y-91827814D01*
X149874855Y-91916994D01*
X150024565Y-92018302D01*
X150059517Y-92042136D01*
X150555745Y-92381004D01*
X150779842Y-92279295D01*
X150916124Y-92220022D01*
X151062411Y-92160409D01*
X151188170Y-92112879D01*
X151193710Y-92110924D01*
X151292078Y-92074916D01*
X151367906Y-92044468D01*
X151404853Y-92026144D01*
X151404915Y-92026091D01*
X151416639Y-91992968D01*
X151436567Y-91911506D01*
X151462722Y-91790864D01*
X151493125Y-91640198D01*
X151525798Y-91468667D01*
X151528471Y-91454206D01*
X151561245Y-91277474D01*
X151591333Y-91117049D01*
X151616796Y-90983127D01*
X151635694Y-90885902D01*
X151646088Y-90835571D01*
X151646270Y-90834802D01*
X151652596Y-90813392D01*
X151664896Y-90797227D01*
X151690541Y-90785570D01*
X151736900Y-90777684D01*
X151811343Y-90772832D01*
X151921240Y-90770278D01*
X152073960Y-90769284D01*
X152276873Y-90769113D01*
X152303135Y-90769113D01*
X152512149Y-90769237D01*
G37*
X152512149Y-90769237D02*
X152670141Y-90770102D01*
X152784482Y-90772444D01*
X152862542Y-90777001D01*
X152911689Y-90784509D01*
X152939294Y-90795705D01*
X152952727Y-90811327D01*
X152959356Y-90832112D01*
X152960000Y-90834802D01*
X152970070Y-90883352D01*
X152988710Y-90979144D01*
X153013980Y-91111982D01*
X153043942Y-91271670D01*
X153076657Y-91448013D01*
X153077799Y-91454206D01*
X153110568Y-91627021D01*
X153141228Y-91779708D01*
X153167799Y-91903110D01*
X153188302Y-91988070D01*
X153200761Y-92025429D01*
X153201355Y-92026091D01*
X153238054Y-92044334D01*
X153313721Y-92074736D01*
X153412013Y-92110732D01*
X153412560Y-92110924D01*
X153536368Y-92157461D01*
X153682331Y-92216743D01*
X153819916Y-92276348D01*
X153826428Y-92279295D01*
X154050525Y-92381004D01*
X154546754Y-92042136D01*
X154698981Y-91938831D01*
X154836876Y-91846476D01*
X154952450Y-91770323D01*
X155037714Y-91715624D01*
X155084679Y-91687632D01*
X155089139Y-91685556D01*
X155123269Y-91694799D01*
X155187016Y-91739395D01*
X155282866Y-91821448D01*
X155413304Y-91943060D01*
X155546463Y-92072444D01*
X155674829Y-92199941D01*
X155789716Y-92316285D01*
X155884208Y-92414291D01*
X155951388Y-92486775D01*
X155984341Y-92526552D01*
X155985567Y-92528600D01*
X155989209Y-92555895D01*
X155975485Y-92600473D01*
X155941004Y-92668351D01*
X155882374Y-92765550D01*
X155796205Y-92898090D01*
X155681335Y-93068715D01*
X155579389Y-93218894D01*
X155488258Y-93353589D01*
X155413208Y-93464979D01*
X155359504Y-93545244D01*
X155332415Y-93586564D01*
X155330709Y-93589369D01*
X155334017Y-93628960D01*
X155359088Y-93705908D01*
X155400933Y-93805671D01*
X155415847Y-93837530D01*
X155480921Y-93979465D01*
X155550347Y-94140512D01*
X155606744Y-94279860D01*
X155647382Y-94383283D01*
X155679661Y-94461881D01*
X155698313Y-94502959D01*
X155700632Y-94506124D01*
X155734938Y-94511367D01*
X155815804Y-94525733D01*
X155932478Y-94547176D01*
X156074210Y-94573652D01*
X156230245Y-94603116D01*
X156389833Y-94633522D01*
X156542220Y-94662827D01*
X156676656Y-94688984D01*
X156782387Y-94709949D01*
X156848661Y-94723678D01*
X156864917Y-94727559D01*
X156881708Y-94737139D01*
X156894384Y-94758775D01*
X156903513Y-94799770D01*
X156909666Y-94867428D01*
X156913415Y-94969051D01*
X156915327Y-95111942D01*
X156915975Y-95303404D01*
X156916009Y-95381884D01*
X156916009Y-96020145D01*
X156762733Y-96050399D01*
X156677457Y-96066803D01*
X156550205Y-96090748D01*
X156396450Y-96119346D01*
X156231669Y-96149706D01*
X156186124Y-96158045D01*
X156034067Y-96187609D01*
X155901603Y-96216681D01*
X155799849Y-96242568D01*
X155739923Y-96262576D01*
X155729940Y-96268540D01*
X155705428Y-96310773D01*
X155670283Y-96392609D01*
X155631308Y-96497922D01*
X155623577Y-96520607D01*
X155572495Y-96661257D01*
X155509089Y-96819953D01*
X155447039Y-96962464D01*
X155446733Y-96963125D01*
X155343402Y-97186679D01*
X156023096Y-98186471D01*
X155586756Y-98623539D01*
X155454784Y-98753620D01*
X155334414Y-98868287D01*
X155232408Y-98961420D01*
X155155526Y-99026897D01*
X155110528Y-99058596D01*
X155104073Y-99060607D01*
X155066175Y-99044768D01*
X154988843Y-99000735D01*
X154880524Y-98933729D01*
X154749667Y-98848973D01*
X154608187Y-98754055D01*
X154464596Y-98657237D01*
X154336570Y-98572990D01*
X154232240Y-98506497D01*
X154159735Y-98462941D01*
X154127293Y-98447503D01*
X154087711Y-98460567D01*
X154012654Y-98494989D01*
X153917603Y-98543619D01*
X153907527Y-98549024D01*
X153779526Y-98613219D01*
X153691753Y-98644702D01*
X153637163Y-98645037D01*
X153608710Y-98615787D01*
X153608545Y-98615377D01*
X153594323Y-98580737D01*
X153560404Y-98498508D01*
X153509419Y-98375053D01*
X153443997Y-98216737D01*
X153366769Y-98029925D01*
X153280364Y-97820981D01*
X153196686Y-97618685D01*
X153104723Y-97395439D01*
X153020285Y-97188631D01*
X152945904Y-97004601D01*
X152884109Y-96849690D01*
X152837432Y-96730235D01*
X152808403Y-96652578D01*
X152799457Y-96623595D01*
X152821891Y-96590349D01*
X152880574Y-96537362D01*
X152958824Y-96478943D01*
X153181669Y-96294191D01*
X153355853Y-96082421D01*
X153479289Y-95848095D01*
X153549889Y-95595673D01*
X153565566Y-95329616D01*
X153554171Y-95206814D01*
X153492085Y-94952032D01*
X153385158Y-94727040D01*
X153240024Y-94534056D01*
X153063313Y-94375300D01*
X152861657Y-94252989D01*
X152641689Y-94169344D01*
X152410041Y-94126583D01*
X152173344Y-94126926D01*
X151938230Y-94172591D01*
X151711331Y-94265798D01*
X151499279Y-94408766D01*
X151410771Y-94489622D01*
X151241024Y-94697246D01*
X151122834Y-94924134D01*
X151055413Y-95163672D01*
X151037975Y-95409246D01*
X151069733Y-95654242D01*
X151149900Y-95892047D01*
X151277690Y-96116046D01*
X151452315Y-96319626D01*
X151647447Y-96478943D01*
X151728726Y-96539841D01*
X151786144Y-96592254D01*
X151806813Y-96623645D01*
X151795991Y-96657878D01*
X151765212Y-96739658D01*
X151717009Y-96862646D01*
X151653913Y-97020502D01*
X151578457Y-97206888D01*
X151493173Y-97415465D01*
X151409354Y-97618735D01*
X151316880Y-97842172D01*
X151231224Y-98049223D01*
X151155017Y-98233525D01*
X151090888Y-98388714D01*
X151041467Y-98508427D01*
X151009383Y-98586300D01*
X150997494Y-98615377D01*
X150969409Y-98644916D01*
X150915084Y-98644830D01*
X150827530Y-98613565D01*
X150699754Y-98549568D01*
X150698743Y-98549024D01*
X150602537Y-98499360D01*
X150524766Y-98463184D01*
X150480912Y-98447647D01*
X150478977Y-98447503D01*
X150445964Y-98463263D01*
X150373081Y-98507089D01*
X150268457Y-98573796D01*
X150140225Y-98658203D01*
X149998083Y-98754055D01*
X149853368Y-98851106D01*
X149722939Y-98935509D01*
X149615245Y-99002040D01*
X149538733Y-99045477D01*
X149502197Y-99060607D01*
X149468553Y-99040721D01*
X149400911Y-98985142D01*
X149306028Y-98899993D01*
X149190665Y-98791392D01*
X149061580Y-98665460D01*
X149019364Y-98623388D01*
X148582874Y-98186170D01*
X148915112Y-97698579D01*
X149016081Y-97548844D01*
X149104697Y-97414459D01*
X149175989Y-97303208D01*
X149224985Y-97222878D01*
X149246713Y-97181253D01*
X149247350Y-97178292D01*
X149235895Y-97139057D01*
X149205084Y-97060134D01*
X149160251Y-96954748D01*
X149128782Y-96884193D01*
X149069943Y-96749115D01*
X149014531Y-96612648D01*
X148971571Y-96497342D01*
X148959901Y-96462216D01*
X148926746Y-96368413D01*
X148894336Y-96295933D01*
X148876534Y-96268540D01*
X148837249Y-96251775D01*
X148751509Y-96228009D01*
X148630438Y-96199936D01*
X148485162Y-96170248D01*
X148420147Y-96158045D01*
X148255048Y-96127707D01*
X148096687Y-96098332D01*
X147960539Y-96072808D01*
X147862078Y-96054024D01*
X147843537Y-96050399D01*
X147690262Y-96020145D01*
X147690262Y-95381884D01*
X147690606Y-95172009D01*
X147692019Y-95013219D01*
X147695071Y-94898212D01*
X147700332Y-94819685D01*
X147708372Y-94770335D01*
X147719762Y-94742858D01*
X147735072Y-94729952D01*
X147741353Y-94727559D01*
X147779239Y-94719072D01*
X147862940Y-94702139D01*
X147981702Y-94678805D01*
X148124774Y-94651114D01*
X148281403Y-94621112D01*
X148440838Y-94590843D01*
X148592326Y-94562354D01*
X148725116Y-94537688D01*
X148828454Y-94518890D01*
X148891590Y-94508006D01*
X148905638Y-94506124D01*
X148918365Y-94480943D01*
X148946535Y-94413861D01*
X148984883Y-94317572D01*
X148999526Y-94279860D01*
X149058587Y-94134160D01*
X149128135Y-93973190D01*
X149190423Y-93837530D01*
X149236256Y-93733800D01*
X149266748Y-93648565D01*
X149276927Y-93596365D01*
X149275304Y-93589369D01*
X149253792Y-93556341D01*
X149204670Y-93482882D01*
X149133212Y-93376816D01*
X149044690Y-93245965D01*
X148944376Y-93098151D01*
X148924541Y-93068973D01*
X148808147Y-92896102D01*
X148722587Y-92764465D01*
X148664451Y-92668000D01*
X148630327Y-92600647D01*
X148616804Y-92556345D01*
X148620471Y-92529033D01*
X148620565Y-92528859D01*
X148649428Y-92492985D01*
X148713268Y-92423630D01*
X148805166Y-92327984D01*
X148918202Y-92213238D01*
X149045456Y-92086580D01*
X149059807Y-92072444D01*
X149220178Y-91917142D01*
X149343940Y-91803109D01*
X149433580Y-91728241D01*
X149491583Y-91690435D01*
X149517131Y-91685556D01*
X149554417Y-91706842D01*
X149631792Y-91756012D01*
X149741268Y-91827814D01*
X149874855Y-91916994D01*
X150024565Y-92018302D01*
X150059517Y-92042136D01*
X150555745Y-92381004D01*
X150779842Y-92279295D01*
X150916124Y-92220022D01*
X151062411Y-92160409D01*
X151188170Y-92112879D01*
X151193710Y-92110924D01*
X151292078Y-92074916D01*
X151367906Y-92044468D01*
X151404853Y-92026144D01*
X151404915Y-92026091D01*
X151416639Y-91992968D01*
X151436567Y-91911506D01*
X151462722Y-91790864D01*
X151493125Y-91640198D01*
X151525798Y-91468667D01*
X151528471Y-91454206D01*
X151561245Y-91277474D01*
X151591333Y-91117049D01*
X151616796Y-90983127D01*
X151635694Y-90885902D01*
X151646088Y-90835571D01*
X151646270Y-90834802D01*
X151652596Y-90813392D01*
X151664896Y-90797227D01*
X151690541Y-90785570D01*
X151736900Y-90777684D01*
X151811343Y-90772832D01*
X151921240Y-90770278D01*
X152073960Y-90769284D01*
X152276873Y-90769113D01*
X152303135Y-90769113D01*
X152512149Y-90769237D01*
D13*
X180296820Y-95638620D03*
X124371100Y-95585280D03*
G04 #@! TA.AperFunction,SMDPad,CuDef*
D14*
G36*
X152604899Y-96929564D02*
G01*
X152627954Y-96932983D01*
X152650563Y-96938647D01*
X152672507Y-96946499D01*
X152693577Y-96956464D01*
X152713568Y-96968446D01*
X152732288Y-96982330D01*
X152749558Y-96997982D01*
X152765210Y-97015252D01*
X152779094Y-97033972D01*
X152791076Y-97053963D01*
X152801041Y-97075033D01*
X152808893Y-97096977D01*
X152814557Y-97119586D01*
X152817976Y-97142641D01*
X152819120Y-97165920D01*
X152819120Y-97740920D01*
X152817976Y-97764199D01*
X152814557Y-97787254D01*
X152808893Y-97809863D01*
X152801041Y-97831807D01*
X152791076Y-97852877D01*
X152779094Y-97872868D01*
X152765210Y-97891588D01*
X152749558Y-97908858D01*
X152732288Y-97924510D01*
X152713568Y-97938394D01*
X152693577Y-97950376D01*
X152672507Y-97960341D01*
X152650563Y-97968193D01*
X152627954Y-97973857D01*
X152604899Y-97977276D01*
X152581620Y-97978420D01*
X152106620Y-97978420D01*
X152083341Y-97977276D01*
X152060286Y-97973857D01*
X152037677Y-97968193D01*
X152015733Y-97960341D01*
X151994663Y-97950376D01*
X151974672Y-97938394D01*
X151955952Y-97924510D01*
X151938682Y-97908858D01*
X151923030Y-97891588D01*
X151909146Y-97872868D01*
X151897164Y-97852877D01*
X151887199Y-97831807D01*
X151879347Y-97809863D01*
X151873683Y-97787254D01*
X151870264Y-97764199D01*
X151869120Y-97740920D01*
X151869120Y-97165920D01*
X151870264Y-97142641D01*
X151873683Y-97119586D01*
X151879347Y-97096977D01*
X151887199Y-97075033D01*
X151897164Y-97053963D01*
X151909146Y-97033972D01*
X151923030Y-97015252D01*
X151938682Y-96997982D01*
X151955952Y-96982330D01*
X151974672Y-96968446D01*
X151994663Y-96956464D01*
X152015733Y-96946499D01*
X152037677Y-96938647D01*
X152060286Y-96932983D01*
X152083341Y-96929564D01*
X152106620Y-96928420D01*
X152581620Y-96928420D01*
X152604899Y-96929564D01*
G37*
G04 #@! TD.AperFunction*
G04 #@! TA.AperFunction,SMDPad,CuDef*
G36*
X152604899Y-95179564D02*
G01*
X152627954Y-95182983D01*
X152650563Y-95188647D01*
X152672507Y-95196499D01*
X152693577Y-95206464D01*
X152713568Y-95218446D01*
X152732288Y-95232330D01*
X152749558Y-95247982D01*
X152765210Y-95265252D01*
X152779094Y-95283972D01*
X152791076Y-95303963D01*
X152801041Y-95325033D01*
X152808893Y-95346977D01*
X152814557Y-95369586D01*
X152817976Y-95392641D01*
X152819120Y-95415920D01*
X152819120Y-95990920D01*
X152817976Y-96014199D01*
X152814557Y-96037254D01*
X152808893Y-96059863D01*
X152801041Y-96081807D01*
X152791076Y-96102877D01*
X152779094Y-96122868D01*
X152765210Y-96141588D01*
X152749558Y-96158858D01*
X152732288Y-96174510D01*
X152713568Y-96188394D01*
X152693577Y-96200376D01*
X152672507Y-96210341D01*
X152650563Y-96218193D01*
X152627954Y-96223857D01*
X152604899Y-96227276D01*
X152581620Y-96228420D01*
X152106620Y-96228420D01*
X152083341Y-96227276D01*
X152060286Y-96223857D01*
X152037677Y-96218193D01*
X152015733Y-96210341D01*
X151994663Y-96200376D01*
X151974672Y-96188394D01*
X151955952Y-96174510D01*
X151938682Y-96158858D01*
X151923030Y-96141588D01*
X151909146Y-96122868D01*
X151897164Y-96102877D01*
X151887199Y-96081807D01*
X151879347Y-96059863D01*
X151873683Y-96037254D01*
X151870264Y-96014199D01*
X151869120Y-95990920D01*
X151869120Y-95415920D01*
X151870264Y-95392641D01*
X151873683Y-95369586D01*
X151879347Y-95346977D01*
X151887199Y-95325033D01*
X151897164Y-95303963D01*
X151909146Y-95283972D01*
X151923030Y-95265252D01*
X151938682Y-95247982D01*
X151955952Y-95232330D01*
X151974672Y-95218446D01*
X151994663Y-95206464D01*
X152015733Y-95196499D01*
X152037677Y-95188647D01*
X152060286Y-95182983D01*
X152083341Y-95179564D01*
X152106620Y-95178420D01*
X152581620Y-95178420D01*
X152604899Y-95179564D01*
G37*
G04 #@! TD.AperFunction*
D15*
X152341580Y-94600000D03*
D16*
X135215880Y-95710144D02*
X124663200Y-95712280D01*
X135215880Y-95710144D02*
X135464788Y-95711866D01*
X135464788Y-95711866D02*
X135713646Y-95717135D01*
X135713646Y-95717135D02*
X135962404Y-95725950D01*
X135962404Y-95725950D02*
X136211011Y-95738308D01*
X136211011Y-95738308D02*
X136459417Y-95754207D01*
X136459417Y-95754207D02*
X136707571Y-95773643D01*
X136707571Y-95773643D02*
X136955423Y-95796614D01*
X136955423Y-95796614D02*
X137202923Y-95823114D01*
X137202923Y-95823114D02*
X137450019Y-95853137D01*
X137450019Y-95853137D02*
X137696663Y-95886678D01*
X137696663Y-95886678D02*
X137942804Y-95923730D01*
X137942804Y-95923730D02*
X138188393Y-95964285D01*
X138188393Y-95964285D02*
X138433378Y-96008335D01*
X138433378Y-96008335D02*
X138677711Y-96055871D01*
X138677711Y-96055871D02*
X138921341Y-96106884D01*
X138921341Y-96106884D02*
X139164221Y-96161364D01*
X146612345Y-97431788D02*
X152344120Y-97453420D01*
X146612345Y-97431788D02*
X146363407Y-97429105D01*
X146363407Y-97429105D02*
X146114532Y-97422938D01*
X146114532Y-97422938D02*
X145865767Y-97413287D01*
X145865767Y-97413287D02*
X145617162Y-97400155D01*
X145617162Y-97400155D02*
X145368765Y-97383544D01*
X145368765Y-97383544D02*
X145120625Y-97363456D01*
X145120625Y-97363456D02*
X144872791Y-97339897D01*
X144872791Y-97339897D02*
X144625311Y-97312871D01*
X144625311Y-97312871D02*
X144378233Y-97282382D01*
X144378233Y-97282382D02*
X144131606Y-97248438D01*
X144131606Y-97248438D02*
X143885479Y-97211044D01*
X143885479Y-97211044D02*
X143639899Y-97170208D01*
X143639899Y-97170208D02*
X143394915Y-97125938D01*
X143394915Y-97125938D02*
X143150575Y-97078243D01*
X143150575Y-97078243D02*
X142906927Y-97027132D01*
X142906927Y-97027132D02*
X142664018Y-96972615D01*
X142664018Y-96972615D02*
X139164221Y-96161364D01*
X152344120Y-95703420D02*
X152341580Y-94600000D01*
X152341580Y-94600000D02*
X152341580Y-94600000D01*
D17*
G36*
X127813051Y-93267052D02*
G01*
X127813814Y-93267716D01*
X128394120Y-93733776D01*
X128394951Y-93734390D01*
X128397640Y-93736211D01*
X128397640Y-93859160D01*
X128579198Y-93859160D01*
X129006595Y-94148589D01*
X129007481Y-94149137D01*
X129650464Y-94511475D01*
X129651388Y-94511947D01*
X130325710Y-94822424D01*
X130326651Y-94822812D01*
X131032311Y-95081428D01*
X131033251Y-95081732D01*
X131770249Y-95288487D01*
X131771169Y-95288709D01*
X132539507Y-95443602D01*
X132540394Y-95443748D01*
X133340070Y-95546780D01*
X133340912Y-95546860D01*
X134160010Y-95597298D01*
X134160055Y-95822704D01*
X133341705Y-95825879D01*
X133340801Y-95825915D01*
X132541158Y-95886071D01*
X132540198Y-95886180D01*
X131771916Y-96003267D01*
X131770910Y-96003462D01*
X131033988Y-96177479D01*
X131032956Y-96177769D01*
X130327395Y-96408717D01*
X130326359Y-96409107D01*
X129652159Y-96696986D01*
X129651143Y-96697474D01*
X129008303Y-97042284D01*
X129007333Y-97042862D01*
X128395854Y-97444603D01*
X128394950Y-97445255D01*
X127814832Y-97903927D01*
X127814013Y-97904634D01*
X127272126Y-98413782D01*
X122364528Y-95585686D01*
X127270959Y-92755616D01*
X127813051Y-93267052D01*
G37*
X127813051Y-93267052D02*
X127813814Y-93267716D01*
X128394120Y-93733776D01*
X128394951Y-93734390D01*
X128397640Y-93736211D01*
X128397640Y-93859160D01*
X128579198Y-93859160D01*
X129006595Y-94148589D01*
X129007481Y-94149137D01*
X129650464Y-94511475D01*
X129651388Y-94511947D01*
X130325710Y-94822424D01*
X130326651Y-94822812D01*
X131032311Y-95081428D01*
X131033251Y-95081732D01*
X131770249Y-95288487D01*
X131771169Y-95288709D01*
X132539507Y-95443602D01*
X132540394Y-95443748D01*
X133340070Y-95546780D01*
X133340912Y-95546860D01*
X134160010Y-95597298D01*
X134160055Y-95822704D01*
X133341705Y-95825879D01*
X133340801Y-95825915D01*
X132541158Y-95886071D01*
X132540198Y-95886180D01*
X131771916Y-96003267D01*
X131770910Y-96003462D01*
X131033988Y-96177479D01*
X131032956Y-96177769D01*
X130327395Y-96408717D01*
X130326359Y-96409107D01*
X129652159Y-96696986D01*
X129651143Y-96697474D01*
X129008303Y-97042284D01*
X129007333Y-97042862D01*
X128395854Y-97444603D01*
X128394950Y-97445255D01*
X127814832Y-97903927D01*
X127814013Y-97904634D01*
X127272126Y-98413782D01*
X122364528Y-95585686D01*
X127270959Y-92755616D01*
X127813051Y-93267052D01*
G36*
X152606503Y-94883193D02*
G01*
X152583611Y-94907501D01*
X152582959Y-94908250D01*
X152556684Y-94940929D01*
X152556072Y-94941758D01*
X152532901Y-94975916D01*
X152532345Y-94976814D01*
X152512277Y-95012454D01*
X152511792Y-95013406D01*
X152494827Y-95050526D01*
X152494425Y-95051513D01*
X152480564Y-95090114D01*
X152480251Y-95091114D01*
X152469493Y-95131195D01*
X152469269Y-95132187D01*
X152461615Y-95173749D01*
X152461475Y-95174714D01*
X152456924Y-95217756D01*
X152456861Y-95218678D01*
X152455812Y-95250943D01*
X152230345Y-95251462D01*
X152229147Y-95219203D01*
X152229079Y-95218281D01*
X152224330Y-95175260D01*
X152224186Y-95174295D01*
X152216340Y-95132769D01*
X152216112Y-95131779D01*
X152205170Y-95091747D01*
X152204852Y-95090748D01*
X152190814Y-95052212D01*
X152190407Y-95051227D01*
X152173271Y-95014185D01*
X152172782Y-95013235D01*
X152152550Y-94977689D01*
X152151990Y-94976793D01*
X152128662Y-94942741D01*
X152128046Y-94941916D01*
X152101621Y-94909359D01*
X152100966Y-94908613D01*
X152077963Y-94884410D01*
X152341178Y-94425428D01*
X152606503Y-94883193D01*
G37*
X152606503Y-94883193D02*
X152583611Y-94907501D01*
X152582959Y-94908250D01*
X152556684Y-94940929D01*
X152556072Y-94941758D01*
X152532901Y-94975916D01*
X152532345Y-94976814D01*
X152512277Y-95012454D01*
X152511792Y-95013406D01*
X152494827Y-95050526D01*
X152494425Y-95051513D01*
X152480564Y-95090114D01*
X152480251Y-95091114D01*
X152469493Y-95131195D01*
X152469269Y-95132187D01*
X152461615Y-95173749D01*
X152461475Y-95174714D01*
X152456924Y-95217756D01*
X152456861Y-95218678D01*
X152455812Y-95250943D01*
X152230345Y-95251462D01*
X152229147Y-95219203D01*
X152229079Y-95218281D01*
X152224330Y-95175260D01*
X152224186Y-95174295D01*
X152216340Y-95132769D01*
X152216112Y-95131779D01*
X152205170Y-95091747D01*
X152204852Y-95090748D01*
X152190814Y-95052212D01*
X152190407Y-95051227D01*
X152173271Y-95014185D01*
X152172782Y-95013235D01*
X152152550Y-94977689D01*
X152151990Y-94976793D01*
X152128662Y-94942741D01*
X152128046Y-94941916D01*
X152101621Y-94909359D01*
X152100966Y-94908613D01*
X152077963Y-94884410D01*
X152341178Y-94425428D01*
X152606503Y-94883193D01*
G36*
X127813051Y-93267052D02*
G01*
X127813814Y-93267716D01*
X128394120Y-93733776D01*
X128394951Y-93734390D01*
X128397640Y-93736211D01*
X128397640Y-93859160D01*
X128579198Y-93859160D01*
X129006595Y-94148589D01*
X129007481Y-94149137D01*
X129650464Y-94511475D01*
X129651388Y-94511947D01*
X130325710Y-94822424D01*
X130326651Y-94822812D01*
X131032311Y-95081428D01*
X131033251Y-95081732D01*
X131770249Y-95288487D01*
X131771169Y-95288709D01*
X132539507Y-95443602D01*
X132540394Y-95443748D01*
X133340070Y-95546780D01*
X133340912Y-95546860D01*
X134160010Y-95597298D01*
X134160055Y-95822704D01*
X133341705Y-95825879D01*
X133340801Y-95825915D01*
X132541158Y-95886071D01*
X132540198Y-95886180D01*
X131771916Y-96003267D01*
X131770910Y-96003462D01*
X131033988Y-96177479D01*
X131032956Y-96177769D01*
X130327395Y-96408717D01*
X130326359Y-96409107D01*
X129652159Y-96696986D01*
X129651143Y-96697474D01*
X129008303Y-97042284D01*
X129007333Y-97042862D01*
X128395854Y-97444603D01*
X128394950Y-97445255D01*
X127814832Y-97903927D01*
X127814013Y-97904634D01*
X127272126Y-98413782D01*
X122364528Y-95585686D01*
X127270959Y-92755616D01*
X127813051Y-93267052D01*
G37*
X127813051Y-93267052D02*
X127813814Y-93267716D01*
X128394120Y-93733776D01*
X128394951Y-93734390D01*
X128397640Y-93736211D01*
X128397640Y-93859160D01*
X128579198Y-93859160D01*
X129006595Y-94148589D01*
X129007481Y-94149137D01*
X129650464Y-94511475D01*
X129651388Y-94511947D01*
X130325710Y-94822424D01*
X130326651Y-94822812D01*
X131032311Y-95081428D01*
X131033251Y-95081732D01*
X131770249Y-95288487D01*
X131771169Y-95288709D01*
X132539507Y-95443602D01*
X132540394Y-95443748D01*
X133340070Y-95546780D01*
X133340912Y-95546860D01*
X134160010Y-95597298D01*
X134160055Y-95822704D01*
X133341705Y-95825879D01*
X133340801Y-95825915D01*
X132541158Y-95886071D01*
X132540198Y-95886180D01*
X131771916Y-96003267D01*
X131770910Y-96003462D01*
X131033988Y-96177479D01*
X131032956Y-96177769D01*
X130327395Y-96408717D01*
X130326359Y-96409107D01*
X129652159Y-96696986D01*
X129651143Y-96697474D01*
X129008303Y-97042284D01*
X129007333Y-97042862D01*
X128395854Y-97444603D01*
X128394950Y-97445255D01*
X127814832Y-97903927D01*
X127814013Y-97904634D01*
X127272126Y-98413782D01*
X122364528Y-95585686D01*
X127270959Y-92755616D01*
X127813051Y-93267052D01*
G36*
X127813051Y-93267052D02*
G01*
X127813814Y-93267716D01*
X128394120Y-93733776D01*
X128394951Y-93734390D01*
X128397640Y-93736211D01*
X128397640Y-93859160D01*
X128579198Y-93859160D01*
X129006595Y-94148589D01*
X129007481Y-94149137D01*
X129650464Y-94511475D01*
X129651388Y-94511947D01*
X130325710Y-94822424D01*
X130326651Y-94822812D01*
X131032311Y-95081428D01*
X131033251Y-95081732D01*
X131770249Y-95288487D01*
X131771169Y-95288709D01*
X132539507Y-95443602D01*
X132540394Y-95443748D01*
X133340070Y-95546780D01*
X133340912Y-95546860D01*
X134160010Y-95597298D01*
X134160055Y-95822704D01*
X133341705Y-95825879D01*
X133340801Y-95825915D01*
X132541158Y-95886071D01*
X132540198Y-95886180D01*
X131771916Y-96003267D01*
X131770910Y-96003462D01*
X131033988Y-96177479D01*
X131032956Y-96177769D01*
X130327395Y-96408717D01*
X130326359Y-96409107D01*
X129652159Y-96696986D01*
X129651143Y-96697474D01*
X129008303Y-97042284D01*
X129007333Y-97042862D01*
X128395854Y-97444603D01*
X128394950Y-97445255D01*
X127814832Y-97903927D01*
X127814013Y-97904634D01*
X127272126Y-98413782D01*
X122364528Y-95585686D01*
X127270959Y-92755616D01*
X127813051Y-93267052D01*
G37*
X127813051Y-93267052D02*
X127813814Y-93267716D01*
X128394120Y-93733776D01*
X128394951Y-93734390D01*
X128397640Y-93736211D01*
X128397640Y-93859160D01*
X128579198Y-93859160D01*
X129006595Y-94148589D01*
X129007481Y-94149137D01*
X129650464Y-94511475D01*
X129651388Y-94511947D01*
X130325710Y-94822424D01*
X130326651Y-94822812D01*
X131032311Y-95081428D01*
X131033251Y-95081732D01*
X131770249Y-95288487D01*
X131771169Y-95288709D01*
X132539507Y-95443602D01*
X132540394Y-95443748D01*
X133340070Y-95546780D01*
X133340912Y-95546860D01*
X134160010Y-95597298D01*
X134160055Y-95822704D01*
X133341705Y-95825879D01*
X133340801Y-95825915D01*
X132541158Y-95886071D01*
X132540198Y-95886180D01*
X131771916Y-96003267D01*
X131770910Y-96003462D01*
X131033988Y-96177479D01*
X131032956Y-96177769D01*
X130327395Y-96408717D01*
X130326359Y-96409107D01*
X129652159Y-96696986D01*
X129651143Y-96697474D01*
X129008303Y-97042284D01*
X129007333Y-97042862D01*
X128395854Y-97444603D01*
X128394950Y-97445255D01*
X127814832Y-97903927D01*
X127814013Y-97904634D01*
X127272126Y-98413782D01*
X122364528Y-95585686D01*
X127270959Y-92755616D01*
X127813051Y-93267052D01*
G36*
X152456694Y-94918114D02*
G01*
X152456762Y-94919038D01*
X152463120Y-94976527D01*
X152463264Y-94977492D01*
X152473767Y-95032992D01*
X152473997Y-95033984D01*
X152488645Y-95087494D01*
X152488963Y-95088493D01*
X152507757Y-95140015D01*
X152508164Y-95141000D01*
X152531103Y-95190533D01*
X152531592Y-95191482D01*
X152558676Y-95239026D01*
X152559236Y-95239921D01*
X152590466Y-95285476D01*
X152591082Y-95286301D01*
X152626458Y-95329867D01*
X152627112Y-95330611D01*
X152660113Y-95365329D01*
X152344608Y-95915492D01*
X152026574Y-95366787D01*
X152059414Y-95331917D01*
X152060065Y-95331170D01*
X152095240Y-95287442D01*
X152095852Y-95286615D01*
X152126872Y-95240916D01*
X152127428Y-95240018D01*
X152154293Y-95192350D01*
X152154778Y-95191399D01*
X152177489Y-95141761D01*
X152177891Y-95140774D01*
X152196447Y-95089166D01*
X152196761Y-95088166D01*
X152211163Y-95034589D01*
X152211387Y-95033596D01*
X152221634Y-94978048D01*
X152221774Y-94977082D01*
X152227866Y-94919565D01*
X152227930Y-94918641D01*
X152229469Y-94871412D01*
X152454939Y-94870893D01*
X152456694Y-94918114D01*
G37*
X152456694Y-94918114D02*
X152456762Y-94919038D01*
X152463120Y-94976527D01*
X152463264Y-94977492D01*
X152473767Y-95032992D01*
X152473997Y-95033984D01*
X152488645Y-95087494D01*
X152488963Y-95088493D01*
X152507757Y-95140015D01*
X152508164Y-95141000D01*
X152531103Y-95190533D01*
X152531592Y-95191482D01*
X152558676Y-95239026D01*
X152559236Y-95239921D01*
X152590466Y-95285476D01*
X152591082Y-95286301D01*
X152626458Y-95329867D01*
X152627112Y-95330611D01*
X152660113Y-95365329D01*
X152344608Y-95915492D01*
X152026574Y-95366787D01*
X152059414Y-95331917D01*
X152060065Y-95331170D01*
X152095240Y-95287442D01*
X152095852Y-95286615D01*
X152126872Y-95240916D01*
X152127428Y-95240018D01*
X152154293Y-95192350D01*
X152154778Y-95191399D01*
X152177489Y-95141761D01*
X152177891Y-95140774D01*
X152196447Y-95089166D01*
X152196761Y-95088166D01*
X152211163Y-95034589D01*
X152211387Y-95033596D01*
X152221634Y-94978048D01*
X152221774Y-94977082D01*
X152227866Y-94919565D01*
X152227930Y-94918641D01*
X152229469Y-94871412D01*
X152454939Y-94870893D01*
X152456694Y-94918114D01*
M02*
