G04 #@! TF.GenerationSoftware,KiCad,Pcbnew,5.1.5-52549c5~84~ubuntu19.04.1*
G04 #@! TF.CreationDate,2020-03-13T02:14:12+03:00*
G04 #@! TF.ProjectId,flex-strip-tester-v3,666c6578-2d73-4747-9269-702d74657374,rev?*
G04 #@! TF.SameCoordinates,Original*
G04 #@! TF.FileFunction,Legend,Bot*
G04 #@! TF.FilePolarity,Positive*
%FSLAX46Y46*%
G04 Gerber Fmt 4.6, Leading zero omitted, Abs format (unit mm)*
G04 Created by KiCad (PCBNEW 5.1.5-52549c5~84~ubuntu19.04.1) date 2020-03-13 02:14:12*
%MOMM*%
%LPD*%
G04 APERTURE LIST*
%ADD10C,0.228600*%
%ADD11C,0.150000*%
G04 APERTURE END LIST*
D10*
X145001345Y-92724291D02*
X145001345Y-93938577D01*
X145072774Y-94081434D01*
X145144202Y-94152862D01*
X145287060Y-94224291D01*
X145501345Y-94224291D01*
X145644202Y-94152862D01*
X145001345Y-93652862D02*
X145144202Y-93724291D01*
X145429917Y-93724291D01*
X145572774Y-93652862D01*
X145644202Y-93581434D01*
X145715631Y-93438577D01*
X145715631Y-93010005D01*
X145644202Y-92867148D01*
X145572774Y-92795720D01*
X145429917Y-92724291D01*
X145144202Y-92724291D01*
X145001345Y-92795720D01*
X144287060Y-93724291D02*
X144287060Y-92724291D01*
X144287060Y-92224291D02*
X144358488Y-92295720D01*
X144287060Y-92367148D01*
X144215631Y-92295720D01*
X144287060Y-92224291D01*
X144287060Y-92367148D01*
X143787060Y-92724291D02*
X143215631Y-92724291D01*
X143572774Y-92224291D02*
X143572774Y-93510005D01*
X143501345Y-93652862D01*
X143358488Y-93724291D01*
X143215631Y-93724291D01*
X142715631Y-93724291D02*
X142715631Y-92224291D01*
X142072774Y-93724291D02*
X142072774Y-92938577D01*
X142144202Y-92795720D01*
X142287060Y-92724291D01*
X142501345Y-92724291D01*
X142644202Y-92795720D01*
X142715631Y-92867148D01*
X140715631Y-92724291D02*
X140715631Y-93724291D01*
X141358488Y-92724291D02*
X141358488Y-93510005D01*
X141287060Y-93652862D01*
X141144202Y-93724291D01*
X140929917Y-93724291D01*
X140787060Y-93652862D01*
X140715631Y-93581434D01*
X140001345Y-93724291D02*
X140001345Y-92224291D01*
X140001345Y-92795720D02*
X139858488Y-92724291D01*
X139572774Y-92724291D01*
X139429917Y-92795720D01*
X139358488Y-92867148D01*
X139287060Y-93010005D01*
X139287060Y-93438577D01*
X139358488Y-93581434D01*
X139429917Y-93652862D01*
X139572774Y-93724291D01*
X139858488Y-93724291D01*
X140001345Y-93652862D01*
X138644202Y-93581434D02*
X138572774Y-93652862D01*
X138644202Y-93724291D01*
X138715631Y-93652862D01*
X138644202Y-93581434D01*
X138644202Y-93724291D01*
X137287060Y-93652862D02*
X137429917Y-93724291D01*
X137715631Y-93724291D01*
X137858488Y-93652862D01*
X137929917Y-93581434D01*
X138001345Y-93438577D01*
X138001345Y-93010005D01*
X137929917Y-92867148D01*
X137858488Y-92795720D01*
X137715631Y-92724291D01*
X137429917Y-92724291D01*
X137287060Y-92795720D01*
X136429917Y-93724291D02*
X136572774Y-93652862D01*
X136644202Y-93581434D01*
X136715631Y-93438577D01*
X136715631Y-93010005D01*
X136644202Y-92867148D01*
X136572774Y-92795720D01*
X136429917Y-92724291D01*
X136215631Y-92724291D01*
X136072774Y-92795720D01*
X136001345Y-92867148D01*
X135929917Y-93010005D01*
X135929917Y-93438577D01*
X136001345Y-93581434D01*
X136072774Y-93652862D01*
X136215631Y-93724291D01*
X136429917Y-93724291D01*
X135287060Y-93724291D02*
X135287060Y-92724291D01*
X135287060Y-92867148D02*
X135215631Y-92795720D01*
X135072774Y-92724291D01*
X134858488Y-92724291D01*
X134715631Y-92795720D01*
X134644202Y-92938577D01*
X134644202Y-93724291D01*
X134644202Y-92938577D02*
X134572774Y-92795720D01*
X134429917Y-92724291D01*
X134215631Y-92724291D01*
X134072774Y-92795720D01*
X134001345Y-92938577D01*
X134001345Y-93724291D01*
X132215631Y-92152862D02*
X133501345Y-94081434D01*
X143644202Y-96202891D02*
X143787060Y-96131462D01*
X143858488Y-96060034D01*
X143929917Y-95917177D01*
X143929917Y-95488605D01*
X143858488Y-95345748D01*
X143787060Y-95274320D01*
X143644202Y-95202891D01*
X143429917Y-95202891D01*
X143287060Y-95274320D01*
X143215631Y-95345748D01*
X143144202Y-95488605D01*
X143144202Y-95917177D01*
X143215631Y-96060034D01*
X143287060Y-96131462D01*
X143429917Y-96202891D01*
X143644202Y-96202891D01*
X142572774Y-96131462D02*
X142429917Y-96202891D01*
X142144202Y-96202891D01*
X142001345Y-96131462D01*
X141929917Y-95988605D01*
X141929917Y-95917177D01*
X142001345Y-95774320D01*
X142144202Y-95702891D01*
X142358488Y-95702891D01*
X142501345Y-95631462D01*
X142572774Y-95488605D01*
X142572774Y-95417177D01*
X142501345Y-95274320D01*
X142358488Y-95202891D01*
X142144202Y-95202891D01*
X142001345Y-95274320D01*
X141287060Y-96202891D02*
X141287060Y-94702891D01*
X140644202Y-96202891D02*
X140644202Y-95417177D01*
X140715631Y-95274320D01*
X140858488Y-95202891D01*
X141072774Y-95202891D01*
X141215631Y-95274320D01*
X141287060Y-95345748D01*
X139929917Y-95202891D02*
X139929917Y-96702891D01*
X139929917Y-95274320D02*
X139787060Y-95202891D01*
X139501345Y-95202891D01*
X139358488Y-95274320D01*
X139287060Y-95345748D01*
X139215631Y-95488605D01*
X139215631Y-95917177D01*
X139287060Y-96060034D01*
X139358488Y-96131462D01*
X139501345Y-96202891D01*
X139787060Y-96202891D01*
X139929917Y-96131462D01*
X137929917Y-96202891D02*
X137929917Y-95417177D01*
X138001345Y-95274320D01*
X138144202Y-95202891D01*
X138429917Y-95202891D01*
X138572774Y-95274320D01*
X137929917Y-96131462D02*
X138072774Y-96202891D01*
X138429917Y-96202891D01*
X138572774Y-96131462D01*
X138644202Y-95988605D01*
X138644202Y-95845748D01*
X138572774Y-95702891D01*
X138429917Y-95631462D01*
X138072774Y-95631462D01*
X137929917Y-95560034D01*
X137215631Y-96202891D02*
X137215631Y-95202891D01*
X137215631Y-95488605D02*
X137144202Y-95345748D01*
X137072774Y-95274320D01*
X136929917Y-95202891D01*
X136787060Y-95202891D01*
X136287060Y-96202891D02*
X136287060Y-94702891D01*
X136144202Y-95631462D02*
X135715631Y-96202891D01*
X135715631Y-95202891D02*
X136287060Y-95774320D01*
X134001345Y-94631462D02*
X135287060Y-96560034D01*
X144179917Y-97681491D02*
X143608488Y-97681491D01*
X143965631Y-98681491D02*
X143965631Y-97395777D01*
X143894202Y-97252920D01*
X143751345Y-97181491D01*
X143608488Y-97181491D01*
X142894202Y-98681491D02*
X143037060Y-98610062D01*
X143108488Y-98467205D01*
X143108488Y-97181491D01*
X141751345Y-98610062D02*
X141894202Y-98681491D01*
X142179917Y-98681491D01*
X142322774Y-98610062D01*
X142394202Y-98467205D01*
X142394202Y-97895777D01*
X142322774Y-97752920D01*
X142179917Y-97681491D01*
X141894202Y-97681491D01*
X141751345Y-97752920D01*
X141679917Y-97895777D01*
X141679917Y-98038634D01*
X142394202Y-98181491D01*
X141179917Y-98681491D02*
X140394202Y-97681491D01*
X141179917Y-97681491D02*
X140394202Y-98681491D01*
X140037060Y-97681491D02*
X139465631Y-97681491D01*
X139822774Y-97181491D02*
X139822774Y-98467205D01*
X139751345Y-98610062D01*
X139608488Y-98681491D01*
X139465631Y-98681491D01*
X138394202Y-98610062D02*
X138537060Y-98681491D01*
X138822774Y-98681491D01*
X138965631Y-98610062D01*
X139037060Y-98467205D01*
X139037060Y-97895777D01*
X138965631Y-97752920D01*
X138822774Y-97681491D01*
X138537060Y-97681491D01*
X138394202Y-97752920D01*
X138322774Y-97895777D01*
X138322774Y-98038634D01*
X139037060Y-98181491D01*
X137751345Y-98610062D02*
X137608488Y-98681491D01*
X137322774Y-98681491D01*
X137179917Y-98610062D01*
X137108488Y-98467205D01*
X137108488Y-98395777D01*
X137179917Y-98252920D01*
X137322774Y-98181491D01*
X137537060Y-98181491D01*
X137679917Y-98110062D01*
X137751345Y-97967205D01*
X137751345Y-97895777D01*
X137679917Y-97752920D01*
X137537060Y-97681491D01*
X137322774Y-97681491D01*
X137179917Y-97752920D01*
X136679917Y-97681491D02*
X136108488Y-97681491D01*
X136465631Y-97181491D02*
X136465631Y-98467205D01*
X136394202Y-98610062D01*
X136251345Y-98681491D01*
X136108488Y-98681491D01*
X135037060Y-98610062D02*
X135179917Y-98681491D01*
X135465631Y-98681491D01*
X135608488Y-98610062D01*
X135679917Y-98467205D01*
X135679917Y-97895777D01*
X135608488Y-97752920D01*
X135465631Y-97681491D01*
X135179917Y-97681491D01*
X135037060Y-97752920D01*
X134965631Y-97895777D01*
X134965631Y-98038634D01*
X135679917Y-98181491D01*
X134322774Y-98681491D02*
X134322774Y-97681491D01*
X134322774Y-97967205D02*
X134251345Y-97824348D01*
X134179917Y-97752920D01*
X134037060Y-97681491D01*
X133894202Y-97681491D01*
X166960371Y-93162097D02*
X167460371Y-93162097D01*
X167460371Y-93947811D02*
X167460371Y-92447811D01*
X166746085Y-92447811D01*
X165960371Y-93947811D02*
X166103228Y-93876382D01*
X166174657Y-93733525D01*
X166174657Y-92447811D01*
X164817514Y-93876382D02*
X164960371Y-93947811D01*
X165246085Y-93947811D01*
X165388942Y-93876382D01*
X165460371Y-93733525D01*
X165460371Y-93162097D01*
X165388942Y-93019240D01*
X165246085Y-92947811D01*
X164960371Y-92947811D01*
X164817514Y-93019240D01*
X164746085Y-93162097D01*
X164746085Y-93304954D01*
X165460371Y-93447811D01*
X164246085Y-93947811D02*
X163460371Y-92947811D01*
X164246085Y-92947811D02*
X163460371Y-93947811D01*
X169638942Y-96426411D02*
X169638942Y-94926411D01*
X169638942Y-95497840D02*
X169496085Y-95426411D01*
X169210371Y-95426411D01*
X169067514Y-95497840D01*
X168996085Y-95569268D01*
X168924657Y-95712125D01*
X168924657Y-96140697D01*
X168996085Y-96283554D01*
X169067514Y-96354982D01*
X169210371Y-96426411D01*
X169496085Y-96426411D01*
X169638942Y-96354982D01*
X167638942Y-96426411D02*
X167638942Y-95640697D01*
X167710371Y-95497840D01*
X167853228Y-95426411D01*
X168138942Y-95426411D01*
X168281800Y-95497840D01*
X167638942Y-96354982D02*
X167781800Y-96426411D01*
X168138942Y-96426411D01*
X168281800Y-96354982D01*
X168353228Y-96212125D01*
X168353228Y-96069268D01*
X168281800Y-95926411D01*
X168138942Y-95854982D01*
X167781800Y-95854982D01*
X167638942Y-95783554D01*
X167138942Y-95426411D02*
X166567514Y-95426411D01*
X166924657Y-94926411D02*
X166924657Y-96212125D01*
X166853228Y-96354982D01*
X166710371Y-96426411D01*
X166567514Y-96426411D01*
X166281800Y-95426411D02*
X165710371Y-95426411D01*
X166067514Y-94926411D02*
X166067514Y-96212125D01*
X165996085Y-96354982D01*
X165853228Y-96426411D01*
X165710371Y-96426411D01*
X164638942Y-96354982D02*
X164781800Y-96426411D01*
X165067514Y-96426411D01*
X165210371Y-96354982D01*
X165281800Y-96212125D01*
X165281800Y-95640697D01*
X165210371Y-95497840D01*
X165067514Y-95426411D01*
X164781800Y-95426411D01*
X164638942Y-95497840D01*
X164567514Y-95640697D01*
X164567514Y-95783554D01*
X165281800Y-95926411D01*
X163924657Y-96426411D02*
X163924657Y-95426411D01*
X163924657Y-95712125D02*
X163853228Y-95569268D01*
X163781800Y-95497840D01*
X163638942Y-95426411D01*
X163496085Y-95426411D01*
X163138942Y-95426411D02*
X162781800Y-96426411D01*
X162424657Y-95426411D02*
X162781800Y-96426411D01*
X162924657Y-96783554D01*
X162996085Y-96854982D01*
X163138942Y-96926411D01*
X168603228Y-97905011D02*
X168031800Y-97905011D01*
X168388942Y-97405011D02*
X168388942Y-98690725D01*
X168317514Y-98833582D01*
X168174657Y-98905011D01*
X168031800Y-98905011D01*
X166960371Y-98833582D02*
X167103228Y-98905011D01*
X167388942Y-98905011D01*
X167531800Y-98833582D01*
X167603228Y-98690725D01*
X167603228Y-98119297D01*
X167531800Y-97976440D01*
X167388942Y-97905011D01*
X167103228Y-97905011D01*
X166960371Y-97976440D01*
X166888942Y-98119297D01*
X166888942Y-98262154D01*
X167603228Y-98405011D01*
X166317514Y-98833582D02*
X166174657Y-98905011D01*
X165888942Y-98905011D01*
X165746085Y-98833582D01*
X165674657Y-98690725D01*
X165674657Y-98619297D01*
X165746085Y-98476440D01*
X165888942Y-98405011D01*
X166103228Y-98405011D01*
X166246085Y-98333582D01*
X166317514Y-98190725D01*
X166317514Y-98119297D01*
X166246085Y-97976440D01*
X166103228Y-97905011D01*
X165888942Y-97905011D01*
X165746085Y-97976440D01*
X165246085Y-97905011D02*
X164674657Y-97905011D01*
X165031800Y-97405011D02*
X165031800Y-98690725D01*
X164960371Y-98833582D01*
X164817514Y-98905011D01*
X164674657Y-98905011D01*
X163603228Y-98833582D02*
X163746085Y-98905011D01*
X164031800Y-98905011D01*
X164174657Y-98833582D01*
X164246085Y-98690725D01*
X164246085Y-98119297D01*
X164174657Y-97976440D01*
X164031800Y-97905011D01*
X163746085Y-97905011D01*
X163603228Y-97976440D01*
X163531800Y-98119297D01*
X163531800Y-98262154D01*
X164246085Y-98405011D01*
X162888942Y-98905011D02*
X162888942Y-97905011D01*
X162888942Y-98190725D02*
X162817514Y-98047868D01*
X162746085Y-97976440D01*
X162603228Y-97905011D01*
X162460371Y-97905011D01*
D11*
X127568912Y-91249808D02*
X126807007Y-91249808D01*
X127187960Y-91630760D02*
X127187960Y-90868856D01*
M02*
