G04 #@! TF.GenerationSoftware,KiCad,Pcbnew,5.1.5-52549c5~84~ubuntu19.04.1*
G04 #@! TF.CreationDate,2020-03-13T02:14:12+03:00*
G04 #@! TF.ProjectId,flex-strip-tester-v3,666c6578-2d73-4747-9269-702d74657374,rev?*
G04 #@! TF.SameCoordinates,Original*
G04 #@! TF.FileFunction,Copper,L2,Bot*
G04 #@! TF.FilePolarity,Positive*
%FSLAX46Y46*%
G04 Gerber Fmt 4.6, Leading zero omitted, Abs format (unit mm)*
G04 Created by KiCad (PCBNEW 5.1.5-52549c5~84~ubuntu19.04.1) date 2020-03-13 02:14:12*
%MOMM*%
%LPD*%
G04 APERTURE LIST*
%ADD10C,0.010000*%
%ADD11C,8.128000*%
%ADD12C,0.100000*%
%ADD13C,0.800000*%
%ADD14C,0.250000*%
%ADD15C,0.025400*%
G04 APERTURE END LIST*
D10*
G36*
X152102086Y-90797738D02*
G01*
X151944094Y-90798603D01*
X151829753Y-90800945D01*
X151751693Y-90805502D01*
X151702546Y-90813010D01*
X151674941Y-90824206D01*
X151661508Y-90839828D01*
X151654879Y-90860613D01*
X151654235Y-90863303D01*
X151644165Y-90911853D01*
X151625525Y-91007645D01*
X151600255Y-91140483D01*
X151570293Y-91300171D01*
X151537578Y-91476514D01*
X151536436Y-91482707D01*
X151503667Y-91655522D01*
X151473007Y-91808209D01*
X151446436Y-91931611D01*
X151425933Y-92016571D01*
X151413474Y-92053930D01*
X151412880Y-92054592D01*
X151376181Y-92072835D01*
X151300514Y-92103237D01*
X151202222Y-92139233D01*
X151201675Y-92139425D01*
X151077867Y-92185962D01*
X150931904Y-92245244D01*
X150794319Y-92304849D01*
X150787807Y-92307796D01*
X150563710Y-92409505D01*
X150067481Y-92070637D01*
X149915254Y-91967332D01*
X149777359Y-91874977D01*
X149661785Y-91798824D01*
X149576521Y-91744125D01*
X149529556Y-91716133D01*
X149525096Y-91714057D01*
X149490966Y-91723300D01*
X149427219Y-91767896D01*
X149331369Y-91849949D01*
X149200931Y-91971561D01*
X149067772Y-92100945D01*
X148939406Y-92228442D01*
X148824519Y-92344786D01*
X148730027Y-92442792D01*
X148662847Y-92515276D01*
X148629894Y-92555053D01*
X148628668Y-92557101D01*
X148625026Y-92584396D01*
X148638750Y-92628974D01*
X148673231Y-92696852D01*
X148731861Y-92794051D01*
X148818030Y-92926591D01*
X148932900Y-93097216D01*
X149034846Y-93247395D01*
X149125977Y-93382090D01*
X149201027Y-93493480D01*
X149254731Y-93573745D01*
X149281820Y-93615065D01*
X149283526Y-93617870D01*
X149280218Y-93657461D01*
X149255147Y-93734409D01*
X149213302Y-93834172D01*
X149198388Y-93866031D01*
X149133314Y-94007966D01*
X149063888Y-94169013D01*
X149007491Y-94308361D01*
X148966853Y-94411784D01*
X148934574Y-94490382D01*
X148915922Y-94531460D01*
X148913603Y-94534625D01*
X148879297Y-94539868D01*
X148798431Y-94554234D01*
X148681757Y-94575677D01*
X148540025Y-94602153D01*
X148383990Y-94631617D01*
X148224402Y-94662023D01*
X148072015Y-94691328D01*
X147937579Y-94717485D01*
X147831848Y-94738450D01*
X147765574Y-94752179D01*
X147749318Y-94756060D01*
X147732527Y-94765640D01*
X147719851Y-94787276D01*
X147710722Y-94828271D01*
X147704569Y-94895929D01*
X147700820Y-94997552D01*
X147698908Y-95140443D01*
X147698260Y-95331905D01*
X147698226Y-95410385D01*
X147698226Y-96048646D01*
X147851502Y-96078900D01*
X147936778Y-96095304D01*
X148064030Y-96119249D01*
X148217785Y-96147847D01*
X148382566Y-96178207D01*
X148428111Y-96186546D01*
X148580168Y-96216110D01*
X148712632Y-96245182D01*
X148814386Y-96271069D01*
X148874312Y-96291077D01*
X148884295Y-96297041D01*
X148908807Y-96339274D01*
X148943952Y-96421110D01*
X148982927Y-96526423D01*
X148990658Y-96549108D01*
X149041740Y-96689758D01*
X149105146Y-96848454D01*
X149167196Y-96990965D01*
X149167502Y-96991626D01*
X149270833Y-97215180D01*
X148591139Y-98214972D01*
X149027479Y-98652040D01*
X149159451Y-98782121D01*
X149279821Y-98896788D01*
X149381827Y-98989921D01*
X149458709Y-99055398D01*
X149503707Y-99087097D01*
X149510162Y-99089108D01*
X149548060Y-99073269D01*
X149625392Y-99029236D01*
X149733711Y-98962230D01*
X149864568Y-98877474D01*
X150006048Y-98782556D01*
X150149639Y-98685738D01*
X150277665Y-98601491D01*
X150381995Y-98534998D01*
X150454500Y-98491442D01*
X150486942Y-98476004D01*
X150526524Y-98489068D01*
X150601581Y-98523490D01*
X150696632Y-98572120D01*
X150706708Y-98577525D01*
X150834709Y-98641720D01*
X150922482Y-98673203D01*
X150977072Y-98673538D01*
X151005525Y-98644288D01*
X151005690Y-98643878D01*
X151019912Y-98609238D01*
X151053831Y-98527009D01*
X151104816Y-98403554D01*
X151170238Y-98245238D01*
X151247466Y-98058426D01*
X151333871Y-97849482D01*
X151417549Y-97647186D01*
X151509512Y-97423940D01*
X151593950Y-97217132D01*
X151668331Y-97033102D01*
X151730126Y-96878191D01*
X151776803Y-96758736D01*
X151805832Y-96681079D01*
X151814778Y-96652096D01*
X151792344Y-96618850D01*
X151733661Y-96565863D01*
X151655411Y-96507444D01*
X151432566Y-96322692D01*
X151258382Y-96110922D01*
X151134946Y-95876596D01*
X151064346Y-95624174D01*
X151048669Y-95358117D01*
X151060064Y-95235315D01*
X151122150Y-94980533D01*
X151229077Y-94755541D01*
X151374211Y-94562557D01*
X151550922Y-94403801D01*
X151752578Y-94281490D01*
X151972546Y-94197845D01*
X152204194Y-94155084D01*
X152440891Y-94155427D01*
X152676005Y-94201092D01*
X152902904Y-94294299D01*
X153114956Y-94437267D01*
X153203464Y-94518123D01*
X153373211Y-94725747D01*
X153491401Y-94952635D01*
X153558822Y-95192173D01*
X153576260Y-95437747D01*
X153544502Y-95682743D01*
X153464335Y-95920548D01*
X153336545Y-96144547D01*
X153161920Y-96348127D01*
X152966788Y-96507444D01*
X152885509Y-96568342D01*
X152828091Y-96620755D01*
X152807422Y-96652146D01*
X152818244Y-96686379D01*
X152849023Y-96768159D01*
X152897226Y-96891147D01*
X152960322Y-97049003D01*
X153035778Y-97235389D01*
X153121062Y-97443966D01*
X153204881Y-97647236D01*
X153297355Y-97870673D01*
X153383011Y-98077724D01*
X153459218Y-98262026D01*
X153523347Y-98417215D01*
X153572768Y-98536928D01*
X153604852Y-98614801D01*
X153616741Y-98643878D01*
X153644826Y-98673417D01*
X153699151Y-98673331D01*
X153786705Y-98642066D01*
X153914481Y-98578069D01*
X153915492Y-98577525D01*
X154011698Y-98527861D01*
X154089469Y-98491685D01*
X154133323Y-98476148D01*
X154135258Y-98476004D01*
X154168271Y-98491764D01*
X154241154Y-98535590D01*
X154345778Y-98602297D01*
X154474010Y-98686704D01*
X154616152Y-98782556D01*
X154760867Y-98879607D01*
X154891296Y-98964010D01*
X154998990Y-99030541D01*
X155075502Y-99073978D01*
X155112038Y-99089108D01*
X155145682Y-99069222D01*
X155213324Y-99013643D01*
X155308207Y-98928494D01*
X155423570Y-98819893D01*
X155552655Y-98693961D01*
X155594871Y-98651889D01*
X156031361Y-98214671D01*
X155699123Y-97727080D01*
X155598154Y-97577345D01*
X155509538Y-97442960D01*
X155438246Y-97331709D01*
X155389250Y-97251379D01*
X155367522Y-97209754D01*
X155366885Y-97206793D01*
X155378340Y-97167558D01*
X155409151Y-97088635D01*
X155453984Y-96983249D01*
X155485453Y-96912694D01*
X155544292Y-96777616D01*
X155599704Y-96641149D01*
X155642664Y-96525843D01*
X155654334Y-96490717D01*
X155687489Y-96396914D01*
X155719899Y-96324434D01*
X155737701Y-96297041D01*
X155776986Y-96280276D01*
X155862726Y-96256510D01*
X155983797Y-96228437D01*
X156129073Y-96198749D01*
X156194088Y-96186546D01*
X156359187Y-96156208D01*
X156517548Y-96126833D01*
X156653696Y-96101309D01*
X156752157Y-96082525D01*
X156770698Y-96078900D01*
X156923973Y-96048646D01*
X156923973Y-95410385D01*
X156923629Y-95200510D01*
X156922216Y-95041720D01*
X156919164Y-94926713D01*
X156913903Y-94848186D01*
X156905863Y-94798836D01*
X156894473Y-94771359D01*
X156879163Y-94758453D01*
X156872882Y-94756060D01*
X156834996Y-94747573D01*
X156751295Y-94730640D01*
X156632533Y-94707306D01*
X156489461Y-94679615D01*
X156332832Y-94649613D01*
X156173397Y-94619344D01*
X156021909Y-94590855D01*
X155889119Y-94566189D01*
X155785781Y-94547391D01*
X155722645Y-94536507D01*
X155708597Y-94534625D01*
X155695870Y-94509444D01*
X155667700Y-94442362D01*
X155629352Y-94346073D01*
X155614709Y-94308361D01*
X155555648Y-94162661D01*
X155486100Y-94001691D01*
X155423812Y-93866031D01*
X155377979Y-93762301D01*
X155347487Y-93677066D01*
X155337308Y-93624866D01*
X155338931Y-93617870D01*
X155360443Y-93584842D01*
X155409565Y-93511383D01*
X155481023Y-93405317D01*
X155569545Y-93274466D01*
X155669859Y-93126652D01*
X155689694Y-93097474D01*
X155806088Y-92924603D01*
X155891648Y-92792966D01*
X155949784Y-92696501D01*
X155983908Y-92629148D01*
X155997431Y-92584846D01*
X155993764Y-92557534D01*
X155993670Y-92557360D01*
X155964807Y-92521486D01*
X155900967Y-92452131D01*
X155809069Y-92356485D01*
X155696033Y-92241739D01*
X155568779Y-92115081D01*
X155554428Y-92100945D01*
X155394057Y-91945643D01*
X155270295Y-91831610D01*
X155180655Y-91756742D01*
X155122652Y-91718936D01*
X155097104Y-91714057D01*
X155059818Y-91735343D01*
X154982443Y-91784513D01*
X154872967Y-91856315D01*
X154739380Y-91945495D01*
X154589670Y-92046803D01*
X154554718Y-92070637D01*
X154058490Y-92409505D01*
X153834393Y-92307796D01*
X153698111Y-92248523D01*
X153551824Y-92188910D01*
X153426065Y-92141380D01*
X153420525Y-92139425D01*
X153322157Y-92103417D01*
X153246329Y-92072969D01*
X153209382Y-92054645D01*
X153209320Y-92054592D01*
X153197596Y-92021469D01*
X153177668Y-91940007D01*
X153151513Y-91819365D01*
X153121110Y-91668699D01*
X153088437Y-91497168D01*
X153085764Y-91482707D01*
X153052990Y-91305975D01*
X153022902Y-91145550D01*
X152997439Y-91011628D01*
X152978541Y-90914403D01*
X152968147Y-90864072D01*
X152967965Y-90863303D01*
X152961639Y-90841893D01*
X152949339Y-90825728D01*
X152923694Y-90814071D01*
X152877335Y-90806185D01*
X152802892Y-90801333D01*
X152692995Y-90798779D01*
X152540275Y-90797785D01*
X152337362Y-90797614D01*
X152311100Y-90797614D01*
X152102086Y-90797738D01*
G37*
X152102086Y-90797738D02*
X151944094Y-90798603D01*
X151829753Y-90800945D01*
X151751693Y-90805502D01*
X151702546Y-90813010D01*
X151674941Y-90824206D01*
X151661508Y-90839828D01*
X151654879Y-90860613D01*
X151654235Y-90863303D01*
X151644165Y-90911853D01*
X151625525Y-91007645D01*
X151600255Y-91140483D01*
X151570293Y-91300171D01*
X151537578Y-91476514D01*
X151536436Y-91482707D01*
X151503667Y-91655522D01*
X151473007Y-91808209D01*
X151446436Y-91931611D01*
X151425933Y-92016571D01*
X151413474Y-92053930D01*
X151412880Y-92054592D01*
X151376181Y-92072835D01*
X151300514Y-92103237D01*
X151202222Y-92139233D01*
X151201675Y-92139425D01*
X151077867Y-92185962D01*
X150931904Y-92245244D01*
X150794319Y-92304849D01*
X150787807Y-92307796D01*
X150563710Y-92409505D01*
X150067481Y-92070637D01*
X149915254Y-91967332D01*
X149777359Y-91874977D01*
X149661785Y-91798824D01*
X149576521Y-91744125D01*
X149529556Y-91716133D01*
X149525096Y-91714057D01*
X149490966Y-91723300D01*
X149427219Y-91767896D01*
X149331369Y-91849949D01*
X149200931Y-91971561D01*
X149067772Y-92100945D01*
X148939406Y-92228442D01*
X148824519Y-92344786D01*
X148730027Y-92442792D01*
X148662847Y-92515276D01*
X148629894Y-92555053D01*
X148628668Y-92557101D01*
X148625026Y-92584396D01*
X148638750Y-92628974D01*
X148673231Y-92696852D01*
X148731861Y-92794051D01*
X148818030Y-92926591D01*
X148932900Y-93097216D01*
X149034846Y-93247395D01*
X149125977Y-93382090D01*
X149201027Y-93493480D01*
X149254731Y-93573745D01*
X149281820Y-93615065D01*
X149283526Y-93617870D01*
X149280218Y-93657461D01*
X149255147Y-93734409D01*
X149213302Y-93834172D01*
X149198388Y-93866031D01*
X149133314Y-94007966D01*
X149063888Y-94169013D01*
X149007491Y-94308361D01*
X148966853Y-94411784D01*
X148934574Y-94490382D01*
X148915922Y-94531460D01*
X148913603Y-94534625D01*
X148879297Y-94539868D01*
X148798431Y-94554234D01*
X148681757Y-94575677D01*
X148540025Y-94602153D01*
X148383990Y-94631617D01*
X148224402Y-94662023D01*
X148072015Y-94691328D01*
X147937579Y-94717485D01*
X147831848Y-94738450D01*
X147765574Y-94752179D01*
X147749318Y-94756060D01*
X147732527Y-94765640D01*
X147719851Y-94787276D01*
X147710722Y-94828271D01*
X147704569Y-94895929D01*
X147700820Y-94997552D01*
X147698908Y-95140443D01*
X147698260Y-95331905D01*
X147698226Y-95410385D01*
X147698226Y-96048646D01*
X147851502Y-96078900D01*
X147936778Y-96095304D01*
X148064030Y-96119249D01*
X148217785Y-96147847D01*
X148382566Y-96178207D01*
X148428111Y-96186546D01*
X148580168Y-96216110D01*
X148712632Y-96245182D01*
X148814386Y-96271069D01*
X148874312Y-96291077D01*
X148884295Y-96297041D01*
X148908807Y-96339274D01*
X148943952Y-96421110D01*
X148982927Y-96526423D01*
X148990658Y-96549108D01*
X149041740Y-96689758D01*
X149105146Y-96848454D01*
X149167196Y-96990965D01*
X149167502Y-96991626D01*
X149270833Y-97215180D01*
X148591139Y-98214972D01*
X149027479Y-98652040D01*
X149159451Y-98782121D01*
X149279821Y-98896788D01*
X149381827Y-98989921D01*
X149458709Y-99055398D01*
X149503707Y-99087097D01*
X149510162Y-99089108D01*
X149548060Y-99073269D01*
X149625392Y-99029236D01*
X149733711Y-98962230D01*
X149864568Y-98877474D01*
X150006048Y-98782556D01*
X150149639Y-98685738D01*
X150277665Y-98601491D01*
X150381995Y-98534998D01*
X150454500Y-98491442D01*
X150486942Y-98476004D01*
X150526524Y-98489068D01*
X150601581Y-98523490D01*
X150696632Y-98572120D01*
X150706708Y-98577525D01*
X150834709Y-98641720D01*
X150922482Y-98673203D01*
X150977072Y-98673538D01*
X151005525Y-98644288D01*
X151005690Y-98643878D01*
X151019912Y-98609238D01*
X151053831Y-98527009D01*
X151104816Y-98403554D01*
X151170238Y-98245238D01*
X151247466Y-98058426D01*
X151333871Y-97849482D01*
X151417549Y-97647186D01*
X151509512Y-97423940D01*
X151593950Y-97217132D01*
X151668331Y-97033102D01*
X151730126Y-96878191D01*
X151776803Y-96758736D01*
X151805832Y-96681079D01*
X151814778Y-96652096D01*
X151792344Y-96618850D01*
X151733661Y-96565863D01*
X151655411Y-96507444D01*
X151432566Y-96322692D01*
X151258382Y-96110922D01*
X151134946Y-95876596D01*
X151064346Y-95624174D01*
X151048669Y-95358117D01*
X151060064Y-95235315D01*
X151122150Y-94980533D01*
X151229077Y-94755541D01*
X151374211Y-94562557D01*
X151550922Y-94403801D01*
X151752578Y-94281490D01*
X151972546Y-94197845D01*
X152204194Y-94155084D01*
X152440891Y-94155427D01*
X152676005Y-94201092D01*
X152902904Y-94294299D01*
X153114956Y-94437267D01*
X153203464Y-94518123D01*
X153373211Y-94725747D01*
X153491401Y-94952635D01*
X153558822Y-95192173D01*
X153576260Y-95437747D01*
X153544502Y-95682743D01*
X153464335Y-95920548D01*
X153336545Y-96144547D01*
X153161920Y-96348127D01*
X152966788Y-96507444D01*
X152885509Y-96568342D01*
X152828091Y-96620755D01*
X152807422Y-96652146D01*
X152818244Y-96686379D01*
X152849023Y-96768159D01*
X152897226Y-96891147D01*
X152960322Y-97049003D01*
X153035778Y-97235389D01*
X153121062Y-97443966D01*
X153204881Y-97647236D01*
X153297355Y-97870673D01*
X153383011Y-98077724D01*
X153459218Y-98262026D01*
X153523347Y-98417215D01*
X153572768Y-98536928D01*
X153604852Y-98614801D01*
X153616741Y-98643878D01*
X153644826Y-98673417D01*
X153699151Y-98673331D01*
X153786705Y-98642066D01*
X153914481Y-98578069D01*
X153915492Y-98577525D01*
X154011698Y-98527861D01*
X154089469Y-98491685D01*
X154133323Y-98476148D01*
X154135258Y-98476004D01*
X154168271Y-98491764D01*
X154241154Y-98535590D01*
X154345778Y-98602297D01*
X154474010Y-98686704D01*
X154616152Y-98782556D01*
X154760867Y-98879607D01*
X154891296Y-98964010D01*
X154998990Y-99030541D01*
X155075502Y-99073978D01*
X155112038Y-99089108D01*
X155145682Y-99069222D01*
X155213324Y-99013643D01*
X155308207Y-98928494D01*
X155423570Y-98819893D01*
X155552655Y-98693961D01*
X155594871Y-98651889D01*
X156031361Y-98214671D01*
X155699123Y-97727080D01*
X155598154Y-97577345D01*
X155509538Y-97442960D01*
X155438246Y-97331709D01*
X155389250Y-97251379D01*
X155367522Y-97209754D01*
X155366885Y-97206793D01*
X155378340Y-97167558D01*
X155409151Y-97088635D01*
X155453984Y-96983249D01*
X155485453Y-96912694D01*
X155544292Y-96777616D01*
X155599704Y-96641149D01*
X155642664Y-96525843D01*
X155654334Y-96490717D01*
X155687489Y-96396914D01*
X155719899Y-96324434D01*
X155737701Y-96297041D01*
X155776986Y-96280276D01*
X155862726Y-96256510D01*
X155983797Y-96228437D01*
X156129073Y-96198749D01*
X156194088Y-96186546D01*
X156359187Y-96156208D01*
X156517548Y-96126833D01*
X156653696Y-96101309D01*
X156752157Y-96082525D01*
X156770698Y-96078900D01*
X156923973Y-96048646D01*
X156923973Y-95410385D01*
X156923629Y-95200510D01*
X156922216Y-95041720D01*
X156919164Y-94926713D01*
X156913903Y-94848186D01*
X156905863Y-94798836D01*
X156894473Y-94771359D01*
X156879163Y-94758453D01*
X156872882Y-94756060D01*
X156834996Y-94747573D01*
X156751295Y-94730640D01*
X156632533Y-94707306D01*
X156489461Y-94679615D01*
X156332832Y-94649613D01*
X156173397Y-94619344D01*
X156021909Y-94590855D01*
X155889119Y-94566189D01*
X155785781Y-94547391D01*
X155722645Y-94536507D01*
X155708597Y-94534625D01*
X155695870Y-94509444D01*
X155667700Y-94442362D01*
X155629352Y-94346073D01*
X155614709Y-94308361D01*
X155555648Y-94162661D01*
X155486100Y-94001691D01*
X155423812Y-93866031D01*
X155377979Y-93762301D01*
X155347487Y-93677066D01*
X155337308Y-93624866D01*
X155338931Y-93617870D01*
X155360443Y-93584842D01*
X155409565Y-93511383D01*
X155481023Y-93405317D01*
X155569545Y-93274466D01*
X155669859Y-93126652D01*
X155689694Y-93097474D01*
X155806088Y-92924603D01*
X155891648Y-92792966D01*
X155949784Y-92696501D01*
X155983908Y-92629148D01*
X155997431Y-92584846D01*
X155993764Y-92557534D01*
X155993670Y-92557360D01*
X155964807Y-92521486D01*
X155900967Y-92452131D01*
X155809069Y-92356485D01*
X155696033Y-92241739D01*
X155568779Y-92115081D01*
X155554428Y-92100945D01*
X155394057Y-91945643D01*
X155270295Y-91831610D01*
X155180655Y-91756742D01*
X155122652Y-91718936D01*
X155097104Y-91714057D01*
X155059818Y-91735343D01*
X154982443Y-91784513D01*
X154872967Y-91856315D01*
X154739380Y-91945495D01*
X154589670Y-92046803D01*
X154554718Y-92070637D01*
X154058490Y-92409505D01*
X153834393Y-92307796D01*
X153698111Y-92248523D01*
X153551824Y-92188910D01*
X153426065Y-92141380D01*
X153420525Y-92139425D01*
X153322157Y-92103417D01*
X153246329Y-92072969D01*
X153209382Y-92054645D01*
X153209320Y-92054592D01*
X153197596Y-92021469D01*
X153177668Y-91940007D01*
X153151513Y-91819365D01*
X153121110Y-91668699D01*
X153088437Y-91497168D01*
X153085764Y-91482707D01*
X153052990Y-91305975D01*
X153022902Y-91145550D01*
X152997439Y-91011628D01*
X152978541Y-90914403D01*
X152968147Y-90864072D01*
X152967965Y-90863303D01*
X152961639Y-90841893D01*
X152949339Y-90825728D01*
X152923694Y-90814071D01*
X152877335Y-90806185D01*
X152802892Y-90801333D01*
X152692995Y-90798779D01*
X152540275Y-90797785D01*
X152337362Y-90797614D01*
X152311100Y-90797614D01*
X152102086Y-90797738D01*
D11*
X180296820Y-95638620D03*
X124371100Y-95585280D03*
G04 #@! TA.AperFunction,SMDPad,CuDef*
D12*
G36*
X152609979Y-95170644D02*
G01*
X152633034Y-95174063D01*
X152655643Y-95179727D01*
X152677587Y-95187579D01*
X152698657Y-95197544D01*
X152718648Y-95209526D01*
X152737368Y-95223410D01*
X152754638Y-95239062D01*
X152770290Y-95256332D01*
X152784174Y-95275052D01*
X152796156Y-95295043D01*
X152806121Y-95316113D01*
X152813973Y-95338057D01*
X152819637Y-95360666D01*
X152823056Y-95383721D01*
X152824200Y-95407000D01*
X152824200Y-95982000D01*
X152823056Y-96005279D01*
X152819637Y-96028334D01*
X152813973Y-96050943D01*
X152806121Y-96072887D01*
X152796156Y-96093957D01*
X152784174Y-96113948D01*
X152770290Y-96132668D01*
X152754638Y-96149938D01*
X152737368Y-96165590D01*
X152718648Y-96179474D01*
X152698657Y-96191456D01*
X152677587Y-96201421D01*
X152655643Y-96209273D01*
X152633034Y-96214937D01*
X152609979Y-96218356D01*
X152586700Y-96219500D01*
X152111700Y-96219500D01*
X152088421Y-96218356D01*
X152065366Y-96214937D01*
X152042757Y-96209273D01*
X152020813Y-96201421D01*
X151999743Y-96191456D01*
X151979752Y-96179474D01*
X151961032Y-96165590D01*
X151943762Y-96149938D01*
X151928110Y-96132668D01*
X151914226Y-96113948D01*
X151902244Y-96093957D01*
X151892279Y-96072887D01*
X151884427Y-96050943D01*
X151878763Y-96028334D01*
X151875344Y-96005279D01*
X151874200Y-95982000D01*
X151874200Y-95407000D01*
X151875344Y-95383721D01*
X151878763Y-95360666D01*
X151884427Y-95338057D01*
X151892279Y-95316113D01*
X151902244Y-95295043D01*
X151914226Y-95275052D01*
X151928110Y-95256332D01*
X151943762Y-95239062D01*
X151961032Y-95223410D01*
X151979752Y-95209526D01*
X151999743Y-95197544D01*
X152020813Y-95187579D01*
X152042757Y-95179727D01*
X152065366Y-95174063D01*
X152088421Y-95170644D01*
X152111700Y-95169500D01*
X152586700Y-95169500D01*
X152609979Y-95170644D01*
G37*
G04 #@! TD.AperFunction*
G04 #@! TA.AperFunction,SMDPad,CuDef*
G36*
X152609979Y-96920644D02*
G01*
X152633034Y-96924063D01*
X152655643Y-96929727D01*
X152677587Y-96937579D01*
X152698657Y-96947544D01*
X152718648Y-96959526D01*
X152737368Y-96973410D01*
X152754638Y-96989062D01*
X152770290Y-97006332D01*
X152784174Y-97025052D01*
X152796156Y-97045043D01*
X152806121Y-97066113D01*
X152813973Y-97088057D01*
X152819637Y-97110666D01*
X152823056Y-97133721D01*
X152824200Y-97157000D01*
X152824200Y-97732000D01*
X152823056Y-97755279D01*
X152819637Y-97778334D01*
X152813973Y-97800943D01*
X152806121Y-97822887D01*
X152796156Y-97843957D01*
X152784174Y-97863948D01*
X152770290Y-97882668D01*
X152754638Y-97899938D01*
X152737368Y-97915590D01*
X152718648Y-97929474D01*
X152698657Y-97941456D01*
X152677587Y-97951421D01*
X152655643Y-97959273D01*
X152633034Y-97964937D01*
X152609979Y-97968356D01*
X152586700Y-97969500D01*
X152111700Y-97969500D01*
X152088421Y-97968356D01*
X152065366Y-97964937D01*
X152042757Y-97959273D01*
X152020813Y-97951421D01*
X151999743Y-97941456D01*
X151979752Y-97929474D01*
X151961032Y-97915590D01*
X151943762Y-97899938D01*
X151928110Y-97882668D01*
X151914226Y-97863948D01*
X151902244Y-97843957D01*
X151892279Y-97822887D01*
X151884427Y-97800943D01*
X151878763Y-97778334D01*
X151875344Y-97755279D01*
X151874200Y-97732000D01*
X151874200Y-97157000D01*
X151875344Y-97133721D01*
X151878763Y-97110666D01*
X151884427Y-97088057D01*
X151892279Y-97066113D01*
X151902244Y-97045043D01*
X151914226Y-97025052D01*
X151928110Y-97006332D01*
X151943762Y-96989062D01*
X151961032Y-96973410D01*
X151979752Y-96959526D01*
X151999743Y-96947544D01*
X152020813Y-96937579D01*
X152042757Y-96929727D01*
X152065366Y-96924063D01*
X152088421Y-96920644D01*
X152111700Y-96919500D01*
X152586700Y-96919500D01*
X152609979Y-96920644D01*
G37*
G04 #@! TD.AperFunction*
D13*
X152341580Y-94600000D03*
D14*
X171348400Y-95643700D02*
X180296820Y-95638620D01*
X162418963Y-96348278D02*
X161808462Y-96472642D01*
X161808462Y-96472642D02*
X161196499Y-96589605D01*
X161196499Y-96589605D02*
X160583166Y-96699147D01*
X160583166Y-96699147D02*
X159968550Y-96801253D01*
X159968550Y-96801253D02*
X159352743Y-96895908D01*
X159352743Y-96895908D02*
X158735835Y-96983098D01*
X158735835Y-96983098D02*
X158117916Y-97062810D01*
X158117916Y-97062810D02*
X157499077Y-97135033D01*
X157499077Y-97135033D02*
X156879408Y-97199756D01*
X156879408Y-97199756D02*
X156259002Y-97256969D01*
X156259002Y-97256969D02*
X155637947Y-97306665D01*
X155637947Y-97306665D02*
X155016337Y-97348835D01*
X155016337Y-97348835D02*
X154394261Y-97383474D01*
X154394261Y-97383474D02*
X153771812Y-97410576D01*
X153771812Y-97410576D02*
X153149080Y-97430138D01*
X153149080Y-97430138D02*
X152526157Y-97442157D01*
X152526157Y-97442157D02*
X152349200Y-97444500D01*
X166785799Y-95641616D02*
X171348400Y-95643700D01*
X166785799Y-95641616D02*
X166661250Y-95642366D01*
X166661250Y-95642366D02*
X166536722Y-95644731D01*
X166536722Y-95644731D02*
X166412236Y-95648711D01*
X166412236Y-95648711D02*
X166287811Y-95654305D01*
X166287811Y-95654305D02*
X166163469Y-95661512D01*
X166163469Y-95661512D02*
X166039231Y-95670331D01*
X166039231Y-95670331D02*
X165915118Y-95680759D01*
X165915118Y-95680759D02*
X165791151Y-95692797D01*
X165791151Y-95692797D02*
X165667350Y-95706440D01*
X165667350Y-95706440D02*
X165543737Y-95721688D01*
X165543737Y-95721688D02*
X165420331Y-95738537D01*
X165420331Y-95738537D02*
X165297155Y-95756985D01*
X165297155Y-95756985D02*
X165174228Y-95777029D01*
X165174228Y-95777029D02*
X165051571Y-95798665D01*
X165051571Y-95798665D02*
X164929205Y-95821889D01*
X164929205Y-95821889D02*
X164807151Y-95846700D01*
X164807151Y-95846700D02*
X162418963Y-96348278D01*
X152349200Y-95703420D02*
X152341580Y-94600000D01*
D15*
G36*
X182303392Y-95637481D02*
G01*
X177398051Y-98469310D01*
X176864308Y-97959428D01*
X176863662Y-97958852D01*
X176308784Y-97496801D01*
X176308052Y-97496235D01*
X175738920Y-97088588D01*
X175738103Y-97088049D01*
X175154716Y-96734806D01*
X175153818Y-96734311D01*
X174556177Y-96435473D01*
X174555208Y-96435038D01*
X173943311Y-96190603D01*
X173942288Y-96190244D01*
X173316138Y-96000213D01*
X173315081Y-95999942D01*
X172674676Y-95864315D01*
X172673609Y-95864136D01*
X172018949Y-95782914D01*
X172017894Y-95782827D01*
X171361164Y-95756497D01*
X171361037Y-95530888D01*
X172017736Y-95503812D01*
X172018791Y-95503725D01*
X172673358Y-95421759D01*
X172674425Y-95421578D01*
X173314675Y-95285225D01*
X173315732Y-95284952D01*
X173941667Y-95094210D01*
X173942690Y-95093850D01*
X174554308Y-94848721D01*
X174555276Y-94848286D01*
X175152578Y-94548769D01*
X175153475Y-94548272D01*
X175736460Y-94194367D01*
X175737277Y-94193827D01*
X176305946Y-93785534D01*
X176306677Y-93784968D01*
X176861030Y-93322287D01*
X176861675Y-93321710D01*
X177394838Y-92811223D01*
X182303392Y-95637481D01*
G37*
X182303392Y-95637481D02*
X177398051Y-98469310D01*
X176864308Y-97959428D01*
X176863662Y-97958852D01*
X176308784Y-97496801D01*
X176308052Y-97496235D01*
X175738920Y-97088588D01*
X175738103Y-97088049D01*
X175154716Y-96734806D01*
X175153818Y-96734311D01*
X174556177Y-96435473D01*
X174555208Y-96435038D01*
X173943311Y-96190603D01*
X173942288Y-96190244D01*
X173316138Y-96000213D01*
X173315081Y-95999942D01*
X172674676Y-95864315D01*
X172673609Y-95864136D01*
X172018949Y-95782914D01*
X172017894Y-95782827D01*
X171361164Y-95756497D01*
X171361037Y-95530888D01*
X172017736Y-95503812D01*
X172018791Y-95503725D01*
X172673358Y-95421759D01*
X172674425Y-95421578D01*
X173314675Y-95285225D01*
X173315732Y-95284952D01*
X173941667Y-95094210D01*
X173942690Y-95093850D01*
X174554308Y-94848721D01*
X174555276Y-94848286D01*
X175152578Y-94548769D01*
X175153475Y-94548272D01*
X175736460Y-94194367D01*
X175737277Y-94193827D01*
X176305946Y-93785534D01*
X176306677Y-93784968D01*
X176861030Y-93322287D01*
X176861675Y-93321710D01*
X177394838Y-92811223D01*
X182303392Y-95637481D01*
G36*
X152607804Y-94881970D02*
G01*
X152585024Y-94906384D01*
X152584376Y-94907136D01*
X152558252Y-94939935D01*
X152557643Y-94940766D01*
X152534629Y-94975031D01*
X152534077Y-94975932D01*
X152514174Y-95011664D01*
X152513694Y-95012618D01*
X152496900Y-95049815D01*
X152496503Y-95050804D01*
X152482820Y-95089468D01*
X152482511Y-95090469D01*
X152471938Y-95130600D01*
X152471719Y-95131593D01*
X152464256Y-95173189D01*
X152464120Y-95174155D01*
X152459767Y-95217218D01*
X152459708Y-95218141D01*
X152458808Y-95250410D01*
X152233345Y-95251967D01*
X152231999Y-95219714D01*
X152231927Y-95218792D01*
X152226980Y-95175793D01*
X152226831Y-95174830D01*
X152218794Y-95133340D01*
X152218561Y-95132350D01*
X152207435Y-95092370D01*
X152207113Y-95091373D01*
X152192897Y-95052901D01*
X152192486Y-95051918D01*
X152175180Y-95014956D01*
X152174686Y-95014008D01*
X152154291Y-94978555D01*
X152153727Y-94977662D01*
X152130242Y-94943718D01*
X152129622Y-94942895D01*
X152103048Y-94910459D01*
X152102389Y-94909717D01*
X152079275Y-94885621D01*
X152340375Y-94425431D01*
X152607804Y-94881970D01*
G37*
X152607804Y-94881970D02*
X152585024Y-94906384D01*
X152584376Y-94907136D01*
X152558252Y-94939935D01*
X152557643Y-94940766D01*
X152534629Y-94975031D01*
X152534077Y-94975932D01*
X152514174Y-95011664D01*
X152513694Y-95012618D01*
X152496900Y-95049815D01*
X152496503Y-95050804D01*
X152482820Y-95089468D01*
X152482511Y-95090469D01*
X152471938Y-95130600D01*
X152471719Y-95131593D01*
X152464256Y-95173189D01*
X152464120Y-95174155D01*
X152459767Y-95217218D01*
X152459708Y-95218141D01*
X152458808Y-95250410D01*
X152233345Y-95251967D01*
X152231999Y-95219714D01*
X152231927Y-95218792D01*
X152226980Y-95175793D01*
X152226831Y-95174830D01*
X152218794Y-95133340D01*
X152218561Y-95132350D01*
X152207435Y-95092370D01*
X152207113Y-95091373D01*
X152192897Y-95052901D01*
X152192486Y-95051918D01*
X152175180Y-95014956D01*
X152174686Y-95014008D01*
X152154291Y-94978555D01*
X152153727Y-94977662D01*
X152130242Y-94943718D01*
X152129622Y-94942895D01*
X152103048Y-94910459D01*
X152102389Y-94909717D01*
X152079275Y-94885621D01*
X152340375Y-94425431D01*
X152607804Y-94881970D01*
G36*
X152721355Y-97160650D02*
G01*
X152722101Y-97161303D01*
X152765749Y-97196578D01*
X152766575Y-97197191D01*
X152792653Y-97214981D01*
X152833987Y-97317081D01*
X152834004Y-97317114D01*
X152834272Y-97317782D01*
X152919556Y-97526359D01*
X152919572Y-97526389D01*
X152919801Y-97526956D01*
X152948407Y-97596329D01*
X152912225Y-97609433D01*
X152911240Y-97609838D01*
X152861655Y-97632663D01*
X152860704Y-97633149D01*
X152813097Y-97660124D01*
X152812201Y-97660683D01*
X152766575Y-97691808D01*
X152765749Y-97692421D01*
X152722101Y-97727696D01*
X152721355Y-97728349D01*
X152686561Y-97761271D01*
X152137126Y-97444500D01*
X152686562Y-97127729D01*
X152721355Y-97160650D01*
G37*
X152721355Y-97160650D02*
X152722101Y-97161303D01*
X152765749Y-97196578D01*
X152766575Y-97197191D01*
X152792653Y-97214981D01*
X152833987Y-97317081D01*
X152834004Y-97317114D01*
X152834272Y-97317782D01*
X152919556Y-97526359D01*
X152919572Y-97526389D01*
X152919801Y-97526956D01*
X152948407Y-97596329D01*
X152912225Y-97609433D01*
X152911240Y-97609838D01*
X152861655Y-97632663D01*
X152860704Y-97633149D01*
X152813097Y-97660124D01*
X152812201Y-97660683D01*
X152766575Y-97691808D01*
X152765749Y-97692421D01*
X152722101Y-97727696D01*
X152721355Y-97728349D01*
X152686561Y-97761271D01*
X152137126Y-97444500D01*
X152686562Y-97127729D01*
X152721355Y-97160650D01*
G36*
X152458158Y-94915925D02*
G01*
X152458234Y-94916872D01*
X152464856Y-94972814D01*
X152465012Y-94973797D01*
X152475770Y-95027910D01*
X152476012Y-95028914D01*
X152490907Y-95081197D01*
X152491238Y-95082199D01*
X152510269Y-95132653D01*
X152510687Y-95133633D01*
X152533853Y-95182257D01*
X152534349Y-95183195D01*
X152561653Y-95229989D01*
X152562214Y-95230866D01*
X152593653Y-95275831D01*
X152594263Y-95276635D01*
X152629839Y-95319770D01*
X152630482Y-95320491D01*
X152663628Y-95354968D01*
X152350664Y-95906568D01*
X152030112Y-95359342D01*
X152062778Y-95324411D01*
X152063411Y-95323681D01*
X152098383Y-95280058D01*
X152098982Y-95279246D01*
X152129791Y-95233852D01*
X152130341Y-95232967D01*
X152156987Y-95185800D01*
X152157470Y-95184855D01*
X152179952Y-95135916D01*
X152180356Y-95134929D01*
X152198674Y-95084217D01*
X152198991Y-95083209D01*
X152213146Y-95030726D01*
X152213374Y-95029719D01*
X152223366Y-94975463D01*
X152223508Y-94974477D01*
X152229335Y-94918448D01*
X152229398Y-94917500D01*
X152230710Y-94871949D01*
X152456199Y-94870392D01*
X152458158Y-94915925D01*
G37*
X152458158Y-94915925D02*
X152458234Y-94916872D01*
X152464856Y-94972814D01*
X152465012Y-94973797D01*
X152475770Y-95027910D01*
X152476012Y-95028914D01*
X152490907Y-95081197D01*
X152491238Y-95082199D01*
X152510269Y-95132653D01*
X152510687Y-95133633D01*
X152533853Y-95182257D01*
X152534349Y-95183195D01*
X152561653Y-95229989D01*
X152562214Y-95230866D01*
X152593653Y-95275831D01*
X152594263Y-95276635D01*
X152629839Y-95319770D01*
X152630482Y-95320491D01*
X152663628Y-95354968D01*
X152350664Y-95906568D01*
X152030112Y-95359342D01*
X152062778Y-95324411D01*
X152063411Y-95323681D01*
X152098383Y-95280058D01*
X152098982Y-95279246D01*
X152129791Y-95233852D01*
X152130341Y-95232967D01*
X152156987Y-95185800D01*
X152157470Y-95184855D01*
X152179952Y-95135916D01*
X152180356Y-95134929D01*
X152198674Y-95084217D01*
X152198991Y-95083209D01*
X152213146Y-95030726D01*
X152213374Y-95029719D01*
X152223366Y-94975463D01*
X152223508Y-94974477D01*
X152229335Y-94918448D01*
X152229398Y-94917500D01*
X152230710Y-94871949D01*
X152456199Y-94870392D01*
X152458158Y-94915925D01*
M02*
