G04 #@! TF.GenerationSoftware,KiCad,Pcbnew,5.1.5-52549c5~84~ubuntu19.04.1*
G04 #@! TF.CreationDate,2020-03-13T02:14:12+03:00*
G04 #@! TF.ProjectId,flex-strip-tester-v3,666c6578-2d73-4747-9269-702d74657374,rev?*
G04 #@! TF.SameCoordinates,Original*
G04 #@! TF.FileFunction,Soldermask,Top*
G04 #@! TF.FilePolarity,Negative*
%FSLAX46Y46*%
G04 Gerber Fmt 4.6, Leading zero omitted, Abs format (unit mm)*
G04 Created by KiCad (PCBNEW 5.1.5-52549c5~84~ubuntu19.04.1) date 2020-03-13 02:14:12*
%MOMM*%
%LPD*%
G04 APERTURE LIST*
%ADD10C,0.300000*%
%ADD11C,0.010000*%
%ADD12C,0.100000*%
G04 APERTURE END LIST*
D10*
X140372452Y-100632912D02*
X140372452Y-98132912D01*
X140967690Y-98132912D01*
X141324833Y-98251960D01*
X141562928Y-98490055D01*
X141681976Y-98728150D01*
X141801023Y-99204340D01*
X141801023Y-99561483D01*
X141681976Y-100037674D01*
X141562928Y-100275769D01*
X141324833Y-100513864D01*
X140967690Y-100632912D01*
X140372452Y-100632912D01*
X142872452Y-100632912D02*
X142872452Y-98966245D01*
X142872452Y-99442436D02*
X142991500Y-99204340D01*
X143110547Y-99085293D01*
X143348642Y-98966245D01*
X143586738Y-98966245D01*
X145372452Y-100513864D02*
X145134357Y-100632912D01*
X144658166Y-100632912D01*
X144420071Y-100513864D01*
X144301023Y-100275769D01*
X144301023Y-99323388D01*
X144420071Y-99085293D01*
X144658166Y-98966245D01*
X145134357Y-98966245D01*
X145372452Y-99085293D01*
X145491500Y-99323388D01*
X145491500Y-99561483D01*
X144301023Y-99799579D01*
X146324833Y-98966245D02*
X146801023Y-100632912D01*
X147277214Y-99442436D01*
X147753404Y-100632912D01*
X148229595Y-98966245D01*
X157634357Y-99323388D02*
X156801023Y-99323388D01*
X156801023Y-100632912D02*
X156801023Y-98132912D01*
X157991500Y-98132912D01*
X160015309Y-98966245D02*
X160015309Y-100632912D01*
X158943880Y-98966245D02*
X158943880Y-100275769D01*
X159062928Y-100513864D01*
X159301023Y-100632912D01*
X159658166Y-100632912D01*
X159896261Y-100513864D01*
X160015309Y-100394817D01*
X161086738Y-100513864D02*
X161324833Y-100632912D01*
X161801023Y-100632912D01*
X162039119Y-100513864D01*
X162158166Y-100275769D01*
X162158166Y-100156721D01*
X162039119Y-99918626D01*
X161801023Y-99799579D01*
X161443880Y-99799579D01*
X161205785Y-99680531D01*
X161086738Y-99442436D01*
X161086738Y-99323388D01*
X161205785Y-99085293D01*
X161443880Y-98966245D01*
X161801023Y-98966245D01*
X162039119Y-99085293D01*
X162872452Y-98966245D02*
X163824833Y-98966245D01*
X163229595Y-98132912D02*
X163229595Y-100275769D01*
X163348642Y-100513864D01*
X163586738Y-100632912D01*
X163824833Y-100632912D01*
X164658166Y-100632912D02*
X164658166Y-98966245D01*
X164658166Y-98132912D02*
X164539119Y-98251960D01*
X164658166Y-98371007D01*
X164777214Y-98251960D01*
X164658166Y-98132912D01*
X164658166Y-98371007D01*
X165848642Y-98966245D02*
X165848642Y-100632912D01*
X165848642Y-99204340D02*
X165967690Y-99085293D01*
X166205785Y-98966245D01*
X166562928Y-98966245D01*
X166801023Y-99085293D01*
X166920071Y-99323388D01*
X166920071Y-100632912D01*
X168110547Y-100632912D02*
X168110547Y-98966245D01*
X168110547Y-98132912D02*
X167991500Y-98251960D01*
X168110547Y-98371007D01*
X168229595Y-98251960D01*
X168110547Y-98132912D01*
X168110547Y-98371007D01*
D11*
G36*
X152522654Y-90785038D02*
G01*
X152680646Y-90785903D01*
X152794987Y-90788245D01*
X152873047Y-90792802D01*
X152922194Y-90800310D01*
X152949799Y-90811506D01*
X152963232Y-90827128D01*
X152969861Y-90847913D01*
X152970505Y-90850603D01*
X152980575Y-90899153D01*
X152999215Y-90994945D01*
X153024485Y-91127783D01*
X153054447Y-91287471D01*
X153087162Y-91463814D01*
X153088304Y-91470007D01*
X153121073Y-91642822D01*
X153151733Y-91795509D01*
X153178304Y-91918911D01*
X153198807Y-92003871D01*
X153211266Y-92041230D01*
X153211860Y-92041892D01*
X153248559Y-92060135D01*
X153324226Y-92090537D01*
X153422518Y-92126533D01*
X153423065Y-92126725D01*
X153546873Y-92173262D01*
X153692836Y-92232544D01*
X153830421Y-92292149D01*
X153836933Y-92295096D01*
X154061030Y-92396805D01*
X154557259Y-92057937D01*
X154709486Y-91954632D01*
X154847381Y-91862277D01*
X154962955Y-91786124D01*
X155048219Y-91731425D01*
X155095184Y-91703433D01*
X155099644Y-91701357D01*
X155133774Y-91710600D01*
X155197521Y-91755196D01*
X155293371Y-91837249D01*
X155423809Y-91958861D01*
X155556968Y-92088245D01*
X155685334Y-92215742D01*
X155800221Y-92332086D01*
X155894713Y-92430092D01*
X155961893Y-92502576D01*
X155994846Y-92542353D01*
X155996072Y-92544401D01*
X155999714Y-92571696D01*
X155985990Y-92616274D01*
X155951509Y-92684152D01*
X155892879Y-92781351D01*
X155806710Y-92913891D01*
X155691840Y-93084516D01*
X155589894Y-93234695D01*
X155498763Y-93369390D01*
X155423713Y-93480780D01*
X155370009Y-93561045D01*
X155342920Y-93602365D01*
X155341214Y-93605170D01*
X155344522Y-93644761D01*
X155369593Y-93721709D01*
X155411438Y-93821472D01*
X155426352Y-93853331D01*
X155491426Y-93995266D01*
X155560852Y-94156313D01*
X155617249Y-94295661D01*
X155657887Y-94399084D01*
X155690166Y-94477682D01*
X155708818Y-94518760D01*
X155711137Y-94521925D01*
X155745443Y-94527168D01*
X155826309Y-94541534D01*
X155942983Y-94562977D01*
X156084715Y-94589453D01*
X156240750Y-94618917D01*
X156400338Y-94649323D01*
X156552725Y-94678628D01*
X156687161Y-94704785D01*
X156792892Y-94725750D01*
X156859166Y-94739479D01*
X156875422Y-94743360D01*
X156892213Y-94752940D01*
X156904889Y-94774576D01*
X156914018Y-94815571D01*
X156920171Y-94883229D01*
X156923920Y-94984852D01*
X156925832Y-95127743D01*
X156926480Y-95319205D01*
X156926514Y-95397685D01*
X156926514Y-96035946D01*
X156773238Y-96066200D01*
X156687962Y-96082604D01*
X156560710Y-96106549D01*
X156406955Y-96135147D01*
X156242174Y-96165507D01*
X156196629Y-96173846D01*
X156044572Y-96203410D01*
X155912108Y-96232482D01*
X155810354Y-96258369D01*
X155750428Y-96278377D01*
X155740445Y-96284341D01*
X155715933Y-96326574D01*
X155680788Y-96408410D01*
X155641813Y-96513723D01*
X155634082Y-96536408D01*
X155583000Y-96677058D01*
X155519594Y-96835754D01*
X155457544Y-96978265D01*
X155457238Y-96978926D01*
X155353907Y-97202480D01*
X156033601Y-98202272D01*
X155597261Y-98639340D01*
X155465289Y-98769421D01*
X155344919Y-98884088D01*
X155242913Y-98977221D01*
X155166031Y-99042698D01*
X155121033Y-99074397D01*
X155114578Y-99076408D01*
X155076680Y-99060569D01*
X154999348Y-99016536D01*
X154891029Y-98949530D01*
X154760172Y-98864774D01*
X154618692Y-98769856D01*
X154475101Y-98673038D01*
X154347075Y-98588791D01*
X154242745Y-98522298D01*
X154170240Y-98478742D01*
X154137798Y-98463304D01*
X154098216Y-98476368D01*
X154023159Y-98510790D01*
X153928108Y-98559420D01*
X153918032Y-98564825D01*
X153790031Y-98629020D01*
X153702258Y-98660503D01*
X153647668Y-98660838D01*
X153619215Y-98631588D01*
X153619050Y-98631178D01*
X153604828Y-98596538D01*
X153570909Y-98514309D01*
X153519924Y-98390854D01*
X153454502Y-98232538D01*
X153377274Y-98045726D01*
X153290869Y-97836782D01*
X153207191Y-97634486D01*
X153115228Y-97411240D01*
X153030790Y-97204432D01*
X152956409Y-97020402D01*
X152894614Y-96865491D01*
X152847937Y-96746036D01*
X152818908Y-96668379D01*
X152809962Y-96639396D01*
X152832396Y-96606150D01*
X152891079Y-96553163D01*
X152969329Y-96494744D01*
X153192174Y-96309992D01*
X153366358Y-96098222D01*
X153489794Y-95863896D01*
X153560394Y-95611474D01*
X153576071Y-95345417D01*
X153564676Y-95222615D01*
X153502590Y-94967833D01*
X153395663Y-94742841D01*
X153250529Y-94549857D01*
X153073818Y-94391101D01*
X152872162Y-94268790D01*
X152652194Y-94185145D01*
X152420546Y-94142384D01*
X152183849Y-94142727D01*
X151948735Y-94188392D01*
X151721836Y-94281599D01*
X151509784Y-94424567D01*
X151421276Y-94505423D01*
X151251529Y-94713047D01*
X151133339Y-94939935D01*
X151065918Y-95179473D01*
X151048480Y-95425047D01*
X151080238Y-95670043D01*
X151160405Y-95907848D01*
X151288195Y-96131847D01*
X151462820Y-96335427D01*
X151657952Y-96494744D01*
X151739231Y-96555642D01*
X151796649Y-96608055D01*
X151817318Y-96639446D01*
X151806496Y-96673679D01*
X151775717Y-96755459D01*
X151727514Y-96878447D01*
X151664418Y-97036303D01*
X151588962Y-97222689D01*
X151503678Y-97431266D01*
X151419859Y-97634536D01*
X151327385Y-97857973D01*
X151241729Y-98065024D01*
X151165522Y-98249326D01*
X151101393Y-98404515D01*
X151051972Y-98524228D01*
X151019888Y-98602101D01*
X151007999Y-98631178D01*
X150979914Y-98660717D01*
X150925589Y-98660631D01*
X150838035Y-98629366D01*
X150710259Y-98565369D01*
X150709248Y-98564825D01*
X150613042Y-98515161D01*
X150535271Y-98478985D01*
X150491417Y-98463448D01*
X150489482Y-98463304D01*
X150456469Y-98479064D01*
X150383586Y-98522890D01*
X150278962Y-98589597D01*
X150150730Y-98674004D01*
X150008588Y-98769856D01*
X149863873Y-98866907D01*
X149733444Y-98951310D01*
X149625750Y-99017841D01*
X149549238Y-99061278D01*
X149512702Y-99076408D01*
X149479058Y-99056522D01*
X149411416Y-99000943D01*
X149316533Y-98915794D01*
X149201170Y-98807193D01*
X149072085Y-98681261D01*
X149029869Y-98639189D01*
X148593379Y-98201971D01*
X148925617Y-97714380D01*
X149026586Y-97564645D01*
X149115202Y-97430260D01*
X149186494Y-97319009D01*
X149235490Y-97238679D01*
X149257218Y-97197054D01*
X149257855Y-97194093D01*
X149246400Y-97154858D01*
X149215589Y-97075935D01*
X149170756Y-96970549D01*
X149139287Y-96899994D01*
X149080448Y-96764916D01*
X149025036Y-96628449D01*
X148982076Y-96513143D01*
X148970406Y-96478017D01*
X148937251Y-96384214D01*
X148904841Y-96311734D01*
X148887039Y-96284341D01*
X148847754Y-96267576D01*
X148762014Y-96243810D01*
X148640943Y-96215737D01*
X148495667Y-96186049D01*
X148430652Y-96173846D01*
X148265553Y-96143508D01*
X148107192Y-96114133D01*
X147971044Y-96088609D01*
X147872583Y-96069825D01*
X147854042Y-96066200D01*
X147700767Y-96035946D01*
X147700767Y-95397685D01*
X147701111Y-95187810D01*
X147702524Y-95029020D01*
X147705576Y-94914013D01*
X147710837Y-94835486D01*
X147718877Y-94786136D01*
X147730267Y-94758659D01*
X147745577Y-94745753D01*
X147751858Y-94743360D01*
X147789744Y-94734873D01*
X147873445Y-94717940D01*
X147992207Y-94694606D01*
X148135279Y-94666915D01*
X148291908Y-94636913D01*
X148451343Y-94606644D01*
X148602831Y-94578155D01*
X148735621Y-94553489D01*
X148838959Y-94534691D01*
X148902095Y-94523807D01*
X148916143Y-94521925D01*
X148928870Y-94496744D01*
X148957040Y-94429662D01*
X148995388Y-94333373D01*
X149010031Y-94295661D01*
X149069092Y-94149961D01*
X149138640Y-93988991D01*
X149200928Y-93853331D01*
X149246761Y-93749601D01*
X149277253Y-93664366D01*
X149287432Y-93612166D01*
X149285809Y-93605170D01*
X149264297Y-93572142D01*
X149215175Y-93498683D01*
X149143717Y-93392617D01*
X149055195Y-93261766D01*
X148954881Y-93113952D01*
X148935046Y-93084774D01*
X148818652Y-92911903D01*
X148733092Y-92780266D01*
X148674956Y-92683801D01*
X148640832Y-92616448D01*
X148627309Y-92572146D01*
X148630976Y-92544834D01*
X148631070Y-92544660D01*
X148659933Y-92508786D01*
X148723773Y-92439431D01*
X148815671Y-92343785D01*
X148928707Y-92229039D01*
X149055961Y-92102381D01*
X149070312Y-92088245D01*
X149230683Y-91932943D01*
X149354445Y-91818910D01*
X149444085Y-91744042D01*
X149502088Y-91706236D01*
X149527636Y-91701357D01*
X149564922Y-91722643D01*
X149642297Y-91771813D01*
X149751773Y-91843615D01*
X149885360Y-91932795D01*
X150035070Y-92034103D01*
X150070022Y-92057937D01*
X150566250Y-92396805D01*
X150790347Y-92295096D01*
X150926629Y-92235823D01*
X151072916Y-92176210D01*
X151198675Y-92128680D01*
X151204215Y-92126725D01*
X151302583Y-92090717D01*
X151378411Y-92060269D01*
X151415358Y-92041945D01*
X151415420Y-92041892D01*
X151427144Y-92008769D01*
X151447072Y-91927307D01*
X151473227Y-91806665D01*
X151503630Y-91655999D01*
X151536303Y-91484468D01*
X151538976Y-91470007D01*
X151571750Y-91293275D01*
X151601838Y-91132850D01*
X151627301Y-90998928D01*
X151646199Y-90901703D01*
X151656593Y-90851372D01*
X151656775Y-90850603D01*
X151663101Y-90829193D01*
X151675401Y-90813028D01*
X151701046Y-90801371D01*
X151747405Y-90793485D01*
X151821848Y-90788633D01*
X151931745Y-90786079D01*
X152084465Y-90785085D01*
X152287378Y-90784914D01*
X152313640Y-90784914D01*
X152522654Y-90785038D01*
G37*
X152522654Y-90785038D02*
X152680646Y-90785903D01*
X152794987Y-90788245D01*
X152873047Y-90792802D01*
X152922194Y-90800310D01*
X152949799Y-90811506D01*
X152963232Y-90827128D01*
X152969861Y-90847913D01*
X152970505Y-90850603D01*
X152980575Y-90899153D01*
X152999215Y-90994945D01*
X153024485Y-91127783D01*
X153054447Y-91287471D01*
X153087162Y-91463814D01*
X153088304Y-91470007D01*
X153121073Y-91642822D01*
X153151733Y-91795509D01*
X153178304Y-91918911D01*
X153198807Y-92003871D01*
X153211266Y-92041230D01*
X153211860Y-92041892D01*
X153248559Y-92060135D01*
X153324226Y-92090537D01*
X153422518Y-92126533D01*
X153423065Y-92126725D01*
X153546873Y-92173262D01*
X153692836Y-92232544D01*
X153830421Y-92292149D01*
X153836933Y-92295096D01*
X154061030Y-92396805D01*
X154557259Y-92057937D01*
X154709486Y-91954632D01*
X154847381Y-91862277D01*
X154962955Y-91786124D01*
X155048219Y-91731425D01*
X155095184Y-91703433D01*
X155099644Y-91701357D01*
X155133774Y-91710600D01*
X155197521Y-91755196D01*
X155293371Y-91837249D01*
X155423809Y-91958861D01*
X155556968Y-92088245D01*
X155685334Y-92215742D01*
X155800221Y-92332086D01*
X155894713Y-92430092D01*
X155961893Y-92502576D01*
X155994846Y-92542353D01*
X155996072Y-92544401D01*
X155999714Y-92571696D01*
X155985990Y-92616274D01*
X155951509Y-92684152D01*
X155892879Y-92781351D01*
X155806710Y-92913891D01*
X155691840Y-93084516D01*
X155589894Y-93234695D01*
X155498763Y-93369390D01*
X155423713Y-93480780D01*
X155370009Y-93561045D01*
X155342920Y-93602365D01*
X155341214Y-93605170D01*
X155344522Y-93644761D01*
X155369593Y-93721709D01*
X155411438Y-93821472D01*
X155426352Y-93853331D01*
X155491426Y-93995266D01*
X155560852Y-94156313D01*
X155617249Y-94295661D01*
X155657887Y-94399084D01*
X155690166Y-94477682D01*
X155708818Y-94518760D01*
X155711137Y-94521925D01*
X155745443Y-94527168D01*
X155826309Y-94541534D01*
X155942983Y-94562977D01*
X156084715Y-94589453D01*
X156240750Y-94618917D01*
X156400338Y-94649323D01*
X156552725Y-94678628D01*
X156687161Y-94704785D01*
X156792892Y-94725750D01*
X156859166Y-94739479D01*
X156875422Y-94743360D01*
X156892213Y-94752940D01*
X156904889Y-94774576D01*
X156914018Y-94815571D01*
X156920171Y-94883229D01*
X156923920Y-94984852D01*
X156925832Y-95127743D01*
X156926480Y-95319205D01*
X156926514Y-95397685D01*
X156926514Y-96035946D01*
X156773238Y-96066200D01*
X156687962Y-96082604D01*
X156560710Y-96106549D01*
X156406955Y-96135147D01*
X156242174Y-96165507D01*
X156196629Y-96173846D01*
X156044572Y-96203410D01*
X155912108Y-96232482D01*
X155810354Y-96258369D01*
X155750428Y-96278377D01*
X155740445Y-96284341D01*
X155715933Y-96326574D01*
X155680788Y-96408410D01*
X155641813Y-96513723D01*
X155634082Y-96536408D01*
X155583000Y-96677058D01*
X155519594Y-96835754D01*
X155457544Y-96978265D01*
X155457238Y-96978926D01*
X155353907Y-97202480D01*
X156033601Y-98202272D01*
X155597261Y-98639340D01*
X155465289Y-98769421D01*
X155344919Y-98884088D01*
X155242913Y-98977221D01*
X155166031Y-99042698D01*
X155121033Y-99074397D01*
X155114578Y-99076408D01*
X155076680Y-99060569D01*
X154999348Y-99016536D01*
X154891029Y-98949530D01*
X154760172Y-98864774D01*
X154618692Y-98769856D01*
X154475101Y-98673038D01*
X154347075Y-98588791D01*
X154242745Y-98522298D01*
X154170240Y-98478742D01*
X154137798Y-98463304D01*
X154098216Y-98476368D01*
X154023159Y-98510790D01*
X153928108Y-98559420D01*
X153918032Y-98564825D01*
X153790031Y-98629020D01*
X153702258Y-98660503D01*
X153647668Y-98660838D01*
X153619215Y-98631588D01*
X153619050Y-98631178D01*
X153604828Y-98596538D01*
X153570909Y-98514309D01*
X153519924Y-98390854D01*
X153454502Y-98232538D01*
X153377274Y-98045726D01*
X153290869Y-97836782D01*
X153207191Y-97634486D01*
X153115228Y-97411240D01*
X153030790Y-97204432D01*
X152956409Y-97020402D01*
X152894614Y-96865491D01*
X152847937Y-96746036D01*
X152818908Y-96668379D01*
X152809962Y-96639396D01*
X152832396Y-96606150D01*
X152891079Y-96553163D01*
X152969329Y-96494744D01*
X153192174Y-96309992D01*
X153366358Y-96098222D01*
X153489794Y-95863896D01*
X153560394Y-95611474D01*
X153576071Y-95345417D01*
X153564676Y-95222615D01*
X153502590Y-94967833D01*
X153395663Y-94742841D01*
X153250529Y-94549857D01*
X153073818Y-94391101D01*
X152872162Y-94268790D01*
X152652194Y-94185145D01*
X152420546Y-94142384D01*
X152183849Y-94142727D01*
X151948735Y-94188392D01*
X151721836Y-94281599D01*
X151509784Y-94424567D01*
X151421276Y-94505423D01*
X151251529Y-94713047D01*
X151133339Y-94939935D01*
X151065918Y-95179473D01*
X151048480Y-95425047D01*
X151080238Y-95670043D01*
X151160405Y-95907848D01*
X151288195Y-96131847D01*
X151462820Y-96335427D01*
X151657952Y-96494744D01*
X151739231Y-96555642D01*
X151796649Y-96608055D01*
X151817318Y-96639446D01*
X151806496Y-96673679D01*
X151775717Y-96755459D01*
X151727514Y-96878447D01*
X151664418Y-97036303D01*
X151588962Y-97222689D01*
X151503678Y-97431266D01*
X151419859Y-97634536D01*
X151327385Y-97857973D01*
X151241729Y-98065024D01*
X151165522Y-98249326D01*
X151101393Y-98404515D01*
X151051972Y-98524228D01*
X151019888Y-98602101D01*
X151007999Y-98631178D01*
X150979914Y-98660717D01*
X150925589Y-98660631D01*
X150838035Y-98629366D01*
X150710259Y-98565369D01*
X150709248Y-98564825D01*
X150613042Y-98515161D01*
X150535271Y-98478985D01*
X150491417Y-98463448D01*
X150489482Y-98463304D01*
X150456469Y-98479064D01*
X150383586Y-98522890D01*
X150278962Y-98589597D01*
X150150730Y-98674004D01*
X150008588Y-98769856D01*
X149863873Y-98866907D01*
X149733444Y-98951310D01*
X149625750Y-99017841D01*
X149549238Y-99061278D01*
X149512702Y-99076408D01*
X149479058Y-99056522D01*
X149411416Y-99000943D01*
X149316533Y-98915794D01*
X149201170Y-98807193D01*
X149072085Y-98681261D01*
X149029869Y-98639189D01*
X148593379Y-98201971D01*
X148925617Y-97714380D01*
X149026586Y-97564645D01*
X149115202Y-97430260D01*
X149186494Y-97319009D01*
X149235490Y-97238679D01*
X149257218Y-97197054D01*
X149257855Y-97194093D01*
X149246400Y-97154858D01*
X149215589Y-97075935D01*
X149170756Y-96970549D01*
X149139287Y-96899994D01*
X149080448Y-96764916D01*
X149025036Y-96628449D01*
X148982076Y-96513143D01*
X148970406Y-96478017D01*
X148937251Y-96384214D01*
X148904841Y-96311734D01*
X148887039Y-96284341D01*
X148847754Y-96267576D01*
X148762014Y-96243810D01*
X148640943Y-96215737D01*
X148495667Y-96186049D01*
X148430652Y-96173846D01*
X148265553Y-96143508D01*
X148107192Y-96114133D01*
X147971044Y-96088609D01*
X147872583Y-96069825D01*
X147854042Y-96066200D01*
X147700767Y-96035946D01*
X147700767Y-95397685D01*
X147701111Y-95187810D01*
X147702524Y-95029020D01*
X147705576Y-94914013D01*
X147710837Y-94835486D01*
X147718877Y-94786136D01*
X147730267Y-94758659D01*
X147745577Y-94745753D01*
X147751858Y-94743360D01*
X147789744Y-94734873D01*
X147873445Y-94717940D01*
X147992207Y-94694606D01*
X148135279Y-94666915D01*
X148291908Y-94636913D01*
X148451343Y-94606644D01*
X148602831Y-94578155D01*
X148735621Y-94553489D01*
X148838959Y-94534691D01*
X148902095Y-94523807D01*
X148916143Y-94521925D01*
X148928870Y-94496744D01*
X148957040Y-94429662D01*
X148995388Y-94333373D01*
X149010031Y-94295661D01*
X149069092Y-94149961D01*
X149138640Y-93988991D01*
X149200928Y-93853331D01*
X149246761Y-93749601D01*
X149277253Y-93664366D01*
X149287432Y-93612166D01*
X149285809Y-93605170D01*
X149264297Y-93572142D01*
X149215175Y-93498683D01*
X149143717Y-93392617D01*
X149055195Y-93261766D01*
X148954881Y-93113952D01*
X148935046Y-93084774D01*
X148818652Y-92911903D01*
X148733092Y-92780266D01*
X148674956Y-92683801D01*
X148640832Y-92616448D01*
X148627309Y-92572146D01*
X148630976Y-92544834D01*
X148631070Y-92544660D01*
X148659933Y-92508786D01*
X148723773Y-92439431D01*
X148815671Y-92343785D01*
X148928707Y-92229039D01*
X149055961Y-92102381D01*
X149070312Y-92088245D01*
X149230683Y-91932943D01*
X149354445Y-91818910D01*
X149444085Y-91744042D01*
X149502088Y-91706236D01*
X149527636Y-91701357D01*
X149564922Y-91722643D01*
X149642297Y-91771813D01*
X149751773Y-91843615D01*
X149885360Y-91932795D01*
X150035070Y-92034103D01*
X150070022Y-92057937D01*
X150566250Y-92396805D01*
X150790347Y-92295096D01*
X150926629Y-92235823D01*
X151072916Y-92176210D01*
X151198675Y-92128680D01*
X151204215Y-92126725D01*
X151302583Y-92090717D01*
X151378411Y-92060269D01*
X151415358Y-92041945D01*
X151415420Y-92041892D01*
X151427144Y-92008769D01*
X151447072Y-91927307D01*
X151473227Y-91806665D01*
X151503630Y-91655999D01*
X151536303Y-91484468D01*
X151538976Y-91470007D01*
X151571750Y-91293275D01*
X151601838Y-91132850D01*
X151627301Y-90998928D01*
X151646199Y-90901703D01*
X151656593Y-90851372D01*
X151656775Y-90850603D01*
X151663101Y-90829193D01*
X151675401Y-90813028D01*
X151701046Y-90801371D01*
X151747405Y-90793485D01*
X151821848Y-90788633D01*
X151931745Y-90786079D01*
X152084465Y-90785085D01*
X152287378Y-90784914D01*
X152313640Y-90784914D01*
X152522654Y-90785038D01*
D12*
G36*
X181497120Y-91681756D02*
G01*
X182117230Y-91938614D01*
X182246004Y-91991954D01*
X182585280Y-92218651D01*
X182840152Y-92388951D01*
X182919980Y-92442291D01*
X183493149Y-93015460D01*
X183907847Y-93636098D01*
X183943487Y-93689438D01*
X184253684Y-94438320D01*
X184411820Y-95233327D01*
X184411820Y-96043913D01*
X184253684Y-96838920D01*
X183943487Y-97587802D01*
X183528791Y-98208439D01*
X183493149Y-98261780D01*
X182919980Y-98834949D01*
X182246004Y-99285286D01*
X182246003Y-99285287D01*
X182246002Y-99285287D01*
X181497120Y-99595484D01*
X180702113Y-99753620D01*
X179891527Y-99753620D01*
X179096520Y-99595484D01*
X178347638Y-99285287D01*
X178347637Y-99285287D01*
X178347636Y-99285286D01*
X177673660Y-98834949D01*
X177100491Y-98261780D01*
X177064850Y-98208439D01*
X176650153Y-97587802D01*
X176339956Y-96838920D01*
X176181820Y-96043913D01*
X176181820Y-95233327D01*
X176339956Y-94438320D01*
X176650153Y-93689438D01*
X176685794Y-93636098D01*
X177100491Y-93015460D01*
X177673660Y-92442291D01*
X177753489Y-92388951D01*
X178008360Y-92218651D01*
X178347636Y-91991954D01*
X178476410Y-91938614D01*
X179096520Y-91681756D01*
X179891527Y-91523620D01*
X180702113Y-91523620D01*
X181497120Y-91681756D01*
G37*
G36*
X125571400Y-91628416D02*
G01*
X126320282Y-91938613D01*
X126320284Y-91938614D01*
X126659560Y-92165311D01*
X126994259Y-92388950D01*
X127567430Y-92962121D01*
X128017767Y-93636098D01*
X128327964Y-94384980D01*
X128486100Y-95179987D01*
X128486100Y-95990573D01*
X128327964Y-96785580D01*
X128222673Y-97039774D01*
X128017766Y-97534464D01*
X127982125Y-97587804D01*
X127567430Y-98208439D01*
X126994259Y-98781610D01*
X126914430Y-98834950D01*
X126320284Y-99231946D01*
X126320283Y-99231947D01*
X126320282Y-99231947D01*
X125571400Y-99542144D01*
X124776393Y-99700280D01*
X123965807Y-99700280D01*
X123170800Y-99542144D01*
X122421918Y-99231947D01*
X122421917Y-99231947D01*
X122421916Y-99231946D01*
X121827770Y-98834950D01*
X121747941Y-98781610D01*
X121174770Y-98208439D01*
X120760075Y-97587804D01*
X120724434Y-97534464D01*
X120519527Y-97039774D01*
X120414236Y-96785580D01*
X120256100Y-95990573D01*
X120256100Y-95179987D01*
X120414236Y-94384980D01*
X120724433Y-93636098D01*
X121174770Y-92962121D01*
X121747941Y-92388950D01*
X122082640Y-92165311D01*
X122421916Y-91938614D01*
X122421918Y-91938613D01*
X123170800Y-91628416D01*
X123965807Y-91470280D01*
X124776393Y-91470280D01*
X125571400Y-91628416D01*
G37*
G36*
X152708619Y-96881865D02*
G01*
X152746115Y-96893240D01*
X152780674Y-96911712D01*
X152810967Y-96936573D01*
X152835828Y-96966866D01*
X152854300Y-97001425D01*
X152865675Y-97038921D01*
X152870120Y-97084058D01*
X152870120Y-97822782D01*
X152865675Y-97867919D01*
X152854300Y-97905415D01*
X152835828Y-97939974D01*
X152810967Y-97970267D01*
X152780674Y-97995128D01*
X152746115Y-98013600D01*
X152708619Y-98024975D01*
X152663482Y-98029420D01*
X152024758Y-98029420D01*
X151979621Y-98024975D01*
X151942125Y-98013600D01*
X151907566Y-97995128D01*
X151877273Y-97970267D01*
X151852412Y-97939974D01*
X151833940Y-97905415D01*
X151822565Y-97867919D01*
X151818120Y-97822782D01*
X151818120Y-97084058D01*
X151822565Y-97038921D01*
X151833940Y-97001425D01*
X151852412Y-96966866D01*
X151877273Y-96936573D01*
X151907566Y-96911712D01*
X151942125Y-96893240D01*
X151979621Y-96881865D01*
X152024758Y-96877420D01*
X152663482Y-96877420D01*
X152708619Y-96881865D01*
G37*
G36*
X152708619Y-95131865D02*
G01*
X152746115Y-95143240D01*
X152780674Y-95161712D01*
X152810967Y-95186573D01*
X152835828Y-95216866D01*
X152854300Y-95251425D01*
X152865675Y-95288921D01*
X152870120Y-95334058D01*
X152870120Y-96072782D01*
X152865675Y-96117919D01*
X152854300Y-96155415D01*
X152835828Y-96189974D01*
X152810967Y-96220267D01*
X152780674Y-96245128D01*
X152746115Y-96263600D01*
X152708619Y-96274975D01*
X152663482Y-96279420D01*
X152024758Y-96279420D01*
X151979621Y-96274975D01*
X151942125Y-96263600D01*
X151907566Y-96245128D01*
X151877273Y-96220267D01*
X151852412Y-96189974D01*
X151833940Y-96155415D01*
X151822565Y-96117919D01*
X151818120Y-96072782D01*
X151818120Y-95334058D01*
X151822565Y-95288921D01*
X151833940Y-95251425D01*
X151852412Y-95216866D01*
X151877273Y-95186573D01*
X151907566Y-95161712D01*
X151942125Y-95143240D01*
X151979621Y-95131865D01*
X152024758Y-95127420D01*
X152663482Y-95127420D01*
X152708619Y-95131865D01*
G37*
M02*
