G04 #@! TF.GenerationSoftware,KiCad,Pcbnew,5.1.5-52549c5~84~ubuntu19.04.1*
G04 #@! TF.CreationDate,2020-03-13T02:14:12+03:00*
G04 #@! TF.ProjectId,flex-strip-tester-v3,666c6578-2d73-4747-9269-702d74657374,rev?*
G04 #@! TF.SameCoordinates,Original*
G04 #@! TF.FileFunction,Paste,Bot*
G04 #@! TF.FilePolarity,Positive*
%FSLAX46Y46*%
G04 Gerber Fmt 4.6, Leading zero omitted, Abs format (unit mm)*
G04 Created by KiCad (PCBNEW 5.1.5-52549c5~84~ubuntu19.04.1) date 2020-03-13 02:14:12*
%MOMM*%
%LPD*%
G04 APERTURE LIST*
%ADD10C,0.100000*%
G04 APERTURE END LIST*
D10*
G36*
X152609979Y-95170644D02*
G01*
X152633034Y-95174063D01*
X152655643Y-95179727D01*
X152677587Y-95187579D01*
X152698657Y-95197544D01*
X152718648Y-95209526D01*
X152737368Y-95223410D01*
X152754638Y-95239062D01*
X152770290Y-95256332D01*
X152784174Y-95275052D01*
X152796156Y-95295043D01*
X152806121Y-95316113D01*
X152813973Y-95338057D01*
X152819637Y-95360666D01*
X152823056Y-95383721D01*
X152824200Y-95407000D01*
X152824200Y-95982000D01*
X152823056Y-96005279D01*
X152819637Y-96028334D01*
X152813973Y-96050943D01*
X152806121Y-96072887D01*
X152796156Y-96093957D01*
X152784174Y-96113948D01*
X152770290Y-96132668D01*
X152754638Y-96149938D01*
X152737368Y-96165590D01*
X152718648Y-96179474D01*
X152698657Y-96191456D01*
X152677587Y-96201421D01*
X152655643Y-96209273D01*
X152633034Y-96214937D01*
X152609979Y-96218356D01*
X152586700Y-96219500D01*
X152111700Y-96219500D01*
X152088421Y-96218356D01*
X152065366Y-96214937D01*
X152042757Y-96209273D01*
X152020813Y-96201421D01*
X151999743Y-96191456D01*
X151979752Y-96179474D01*
X151961032Y-96165590D01*
X151943762Y-96149938D01*
X151928110Y-96132668D01*
X151914226Y-96113948D01*
X151902244Y-96093957D01*
X151892279Y-96072887D01*
X151884427Y-96050943D01*
X151878763Y-96028334D01*
X151875344Y-96005279D01*
X151874200Y-95982000D01*
X151874200Y-95407000D01*
X151875344Y-95383721D01*
X151878763Y-95360666D01*
X151884427Y-95338057D01*
X151892279Y-95316113D01*
X151902244Y-95295043D01*
X151914226Y-95275052D01*
X151928110Y-95256332D01*
X151943762Y-95239062D01*
X151961032Y-95223410D01*
X151979752Y-95209526D01*
X151999743Y-95197544D01*
X152020813Y-95187579D01*
X152042757Y-95179727D01*
X152065366Y-95174063D01*
X152088421Y-95170644D01*
X152111700Y-95169500D01*
X152586700Y-95169500D01*
X152609979Y-95170644D01*
G37*
G36*
X152609979Y-96920644D02*
G01*
X152633034Y-96924063D01*
X152655643Y-96929727D01*
X152677587Y-96937579D01*
X152698657Y-96947544D01*
X152718648Y-96959526D01*
X152737368Y-96973410D01*
X152754638Y-96989062D01*
X152770290Y-97006332D01*
X152784174Y-97025052D01*
X152796156Y-97045043D01*
X152806121Y-97066113D01*
X152813973Y-97088057D01*
X152819637Y-97110666D01*
X152823056Y-97133721D01*
X152824200Y-97157000D01*
X152824200Y-97732000D01*
X152823056Y-97755279D01*
X152819637Y-97778334D01*
X152813973Y-97800943D01*
X152806121Y-97822887D01*
X152796156Y-97843957D01*
X152784174Y-97863948D01*
X152770290Y-97882668D01*
X152754638Y-97899938D01*
X152737368Y-97915590D01*
X152718648Y-97929474D01*
X152698657Y-97941456D01*
X152677587Y-97951421D01*
X152655643Y-97959273D01*
X152633034Y-97964937D01*
X152609979Y-97968356D01*
X152586700Y-97969500D01*
X152111700Y-97969500D01*
X152088421Y-97968356D01*
X152065366Y-97964937D01*
X152042757Y-97959273D01*
X152020813Y-97951421D01*
X151999743Y-97941456D01*
X151979752Y-97929474D01*
X151961032Y-97915590D01*
X151943762Y-97899938D01*
X151928110Y-97882668D01*
X151914226Y-97863948D01*
X151902244Y-97843957D01*
X151892279Y-97822887D01*
X151884427Y-97800943D01*
X151878763Y-97778334D01*
X151875344Y-97755279D01*
X151874200Y-97732000D01*
X151874200Y-97157000D01*
X151875344Y-97133721D01*
X151878763Y-97110666D01*
X151884427Y-97088057D01*
X151892279Y-97066113D01*
X151902244Y-97045043D01*
X151914226Y-97025052D01*
X151928110Y-97006332D01*
X151943762Y-96989062D01*
X151961032Y-96973410D01*
X151979752Y-96959526D01*
X151999743Y-96947544D01*
X152020813Y-96937579D01*
X152042757Y-96929727D01*
X152065366Y-96924063D01*
X152088421Y-96920644D01*
X152111700Y-96919500D01*
X152586700Y-96919500D01*
X152609979Y-96920644D01*
G37*
M02*
