G04 #@! TF.GenerationSoftware,KiCad,Pcbnew,5.1.5-52549c5~84~ubuntu19.04.1*
G04 #@! TF.CreationDate,2020-03-13T02:14:12+03:00*
G04 #@! TF.ProjectId,flex-strip-tester-v3,666c6578-2d73-4747-9269-702d74657374,rev?*
G04 #@! TF.SameCoordinates,Original*
G04 #@! TF.FileFunction,Paste,Top*
G04 #@! TF.FilePolarity,Positive*
%FSLAX46Y46*%
G04 Gerber Fmt 4.6, Leading zero omitted, Abs format (unit mm)*
G04 Created by KiCad (PCBNEW 5.1.5-52549c5~84~ubuntu19.04.1) date 2020-03-13 02:14:12*
%MOMM*%
%LPD*%
G04 APERTURE LIST*
%ADD10C,0.100000*%
G04 APERTURE END LIST*
D10*
G36*
X152604899Y-96929564D02*
G01*
X152627954Y-96932983D01*
X152650563Y-96938647D01*
X152672507Y-96946499D01*
X152693577Y-96956464D01*
X152713568Y-96968446D01*
X152732288Y-96982330D01*
X152749558Y-96997982D01*
X152765210Y-97015252D01*
X152779094Y-97033972D01*
X152791076Y-97053963D01*
X152801041Y-97075033D01*
X152808893Y-97096977D01*
X152814557Y-97119586D01*
X152817976Y-97142641D01*
X152819120Y-97165920D01*
X152819120Y-97740920D01*
X152817976Y-97764199D01*
X152814557Y-97787254D01*
X152808893Y-97809863D01*
X152801041Y-97831807D01*
X152791076Y-97852877D01*
X152779094Y-97872868D01*
X152765210Y-97891588D01*
X152749558Y-97908858D01*
X152732288Y-97924510D01*
X152713568Y-97938394D01*
X152693577Y-97950376D01*
X152672507Y-97960341D01*
X152650563Y-97968193D01*
X152627954Y-97973857D01*
X152604899Y-97977276D01*
X152581620Y-97978420D01*
X152106620Y-97978420D01*
X152083341Y-97977276D01*
X152060286Y-97973857D01*
X152037677Y-97968193D01*
X152015733Y-97960341D01*
X151994663Y-97950376D01*
X151974672Y-97938394D01*
X151955952Y-97924510D01*
X151938682Y-97908858D01*
X151923030Y-97891588D01*
X151909146Y-97872868D01*
X151897164Y-97852877D01*
X151887199Y-97831807D01*
X151879347Y-97809863D01*
X151873683Y-97787254D01*
X151870264Y-97764199D01*
X151869120Y-97740920D01*
X151869120Y-97165920D01*
X151870264Y-97142641D01*
X151873683Y-97119586D01*
X151879347Y-97096977D01*
X151887199Y-97075033D01*
X151897164Y-97053963D01*
X151909146Y-97033972D01*
X151923030Y-97015252D01*
X151938682Y-96997982D01*
X151955952Y-96982330D01*
X151974672Y-96968446D01*
X151994663Y-96956464D01*
X152015733Y-96946499D01*
X152037677Y-96938647D01*
X152060286Y-96932983D01*
X152083341Y-96929564D01*
X152106620Y-96928420D01*
X152581620Y-96928420D01*
X152604899Y-96929564D01*
G37*
G36*
X152604899Y-95179564D02*
G01*
X152627954Y-95182983D01*
X152650563Y-95188647D01*
X152672507Y-95196499D01*
X152693577Y-95206464D01*
X152713568Y-95218446D01*
X152732288Y-95232330D01*
X152749558Y-95247982D01*
X152765210Y-95265252D01*
X152779094Y-95283972D01*
X152791076Y-95303963D01*
X152801041Y-95325033D01*
X152808893Y-95346977D01*
X152814557Y-95369586D01*
X152817976Y-95392641D01*
X152819120Y-95415920D01*
X152819120Y-95990920D01*
X152817976Y-96014199D01*
X152814557Y-96037254D01*
X152808893Y-96059863D01*
X152801041Y-96081807D01*
X152791076Y-96102877D01*
X152779094Y-96122868D01*
X152765210Y-96141588D01*
X152749558Y-96158858D01*
X152732288Y-96174510D01*
X152713568Y-96188394D01*
X152693577Y-96200376D01*
X152672507Y-96210341D01*
X152650563Y-96218193D01*
X152627954Y-96223857D01*
X152604899Y-96227276D01*
X152581620Y-96228420D01*
X152106620Y-96228420D01*
X152083341Y-96227276D01*
X152060286Y-96223857D01*
X152037677Y-96218193D01*
X152015733Y-96210341D01*
X151994663Y-96200376D01*
X151974672Y-96188394D01*
X151955952Y-96174510D01*
X151938682Y-96158858D01*
X151923030Y-96141588D01*
X151909146Y-96122868D01*
X151897164Y-96102877D01*
X151887199Y-96081807D01*
X151879347Y-96059863D01*
X151873683Y-96037254D01*
X151870264Y-96014199D01*
X151869120Y-95990920D01*
X151869120Y-95415920D01*
X151870264Y-95392641D01*
X151873683Y-95369586D01*
X151879347Y-95346977D01*
X151887199Y-95325033D01*
X151897164Y-95303963D01*
X151909146Y-95283972D01*
X151923030Y-95265252D01*
X151938682Y-95247982D01*
X151955952Y-95232330D01*
X151974672Y-95218446D01*
X151994663Y-95206464D01*
X152015733Y-95196499D01*
X152037677Y-95188647D01*
X152060286Y-95182983D01*
X152083341Y-95179564D01*
X152106620Y-95178420D01*
X152581620Y-95178420D01*
X152604899Y-95179564D01*
G37*
M02*
