<?xml version="1.0" encoding="UTF-8" standalone="no"?>
<!-- Generator: Adobe Illustrator 23.0.1, SVG Export Plug-In . SVG Version: 6.00 Build 0)  -->

<svg
   xmlns:dc="http://purl.org/dc/elements/1.1/"
   xmlns:cc="http://creativecommons.org/ns#"
   xmlns:rdf="http://www.w3.org/1999/02/22-rdf-syntax-ns#"
   xmlns:svg="http://www.w3.org/2000/svg"
   xmlns="http://www.w3.org/2000/svg"
   xmlns:xlink="http://www.w3.org/1999/xlink"
   xmlns:sodipodi="http://sodipodi.sourceforge.net/DTD/sodipodi-0.dtd"
   xmlns:inkscape="http://www.inkscape.org/namespaces/inkscape"
   height="100.0mm"
   width="100.0mm"
   inkscape:version="0.92.5 (2060ec1f9f, 2020-04-08)"
   sodipodi:docname="oshpark-v2-osh.svg"
   xml:space="preserve"
   style="enable-background:new 0 0 306 306;"
   viewBox="0 0 100.0 100.0"
   y="0px"
   x="0px"
   id="Layer_1"
   version="1.0"><metadata
   id="metadata25120"><rdf:RDF><cc:Work
       rdf:about=""><dc:format>image/svg+xml</dc:format><dc:type
         rdf:resource="http://purl.org/dc/dcmitype/StillImage" /><dc:title /></cc:Work></rdf:RDF></metadata><defs
   id="defs25118">
	
	
</defs><sodipodi:namedview
   pagecolor="#ffffff"
   bordercolor="#666666"
   borderopacity="1"
   objecttolerance="10"
   gridtolerance="10"
   guidetolerance="10"
   inkscape:pageopacity="0"
   inkscape:pageshadow="2"
   inkscape:window-width="2560"
   inkscape:window-height="1376"
   id="namedview25116"
   showgrid="true"
   inkscape:zoom="5.6568542"
   inkscape:cx="164.45079"
   inkscape:cy="271.05326"
   inkscape:window-x="0"
   inkscape:window-y="27"
   inkscape:window-maximized="1"
   inkscape:current-layer="g25045"
   borderlayer="true"
   inkscape:document-units="mm"><inkscape:grid
     id="grid25143"
     units="mm"
     type="xygrid"
     empspacing="1"
     spacingy="2.54"
     spacingx="2.54" /></sodipodi:namedview>
<style
   type="text/css"
   id="style25013">
	.st0{clip-path:url(#SVGID_2_);}
	.st1{fill:#662D91;}
	.st2{fill:#662D91;stroke:#662D91;stroke-miterlimit:10;}
	.st3{fill:#FFFFFF;stroke:#662D91;stroke-miterlimit:10;}
</style>
<g
   id="g25029">
	<defs
   id="defs25016">
		<polygon
   id="SVGID_1_"
   points="35.11,79.71 35.11,213.4 150.88,280.25 266.66,213.4 266.66,79.71 150.88,12.87   " />
	</defs>
	<clipPath
   id="SVGID_2_">
		<use
   xlink:href="#SVGID_1_"
   style="overflow:visible;"
   id="use25018" />
	</clipPath>
	
	<g
   class="st0"
   clip-path="url(#SVGID_2_)"
   id="g25025">
	</g>
	
</g>


<g
   id="g25103">
</g>
<g
   id="g25105">
</g>
<g
   id="g25107">
</g>
<g
   id="g25109">
</g>
<g
   id="g25111">
</g>
<g
   id="g25113">
</g>
<g
   id="g25197"
   sodipodi:insensitive="true"
   inkscape:groupmode="layer"
   inkscape:label="[fixed] BG"><rect
     id="rect25195"
     style="stroke:none;fill-opacity:1;fill:#FFFFFF"
     height="100.0"
     width="100.0"
     y="0"
     x="0" /></g><g
   id="g25199"
   inkscape:groupmode="layer"
   inkscape:label="F.Cu" /><g
   id="g25201"
   inkscape:groupmode="layer"
   inkscape:label="B.Cu-disabled" /><g
   id="g25203"
   inkscape:groupmode="layer"
   inkscape:label="B.Adhes-disabled" /><g
   id="g25205"
   inkscape:groupmode="layer"
   inkscape:label="F.Adhes-disabled" /><g
   id="g25207"
   inkscape:groupmode="layer"
   inkscape:label="B.Paste-disabled" /><g
   id="g25209"
   inkscape:groupmode="layer"
   inkscape:label="F.Paste-disabled" /><g
   id="g25211"
   inkscape:groupmode="layer"
   inkscape:label="B.SilkS-disabled" /><g
   id="g25213"
   inkscape:groupmode="layer"
   inkscape:label="F.SilkS"><g
     id="g25045"
     transform="matrix(0.13366297,0,0,0.13366297,25.630859,16.546515)">
		<path
   style="fill:#662d91;stroke:#662d91;stroke-width:0.88612866;stroke-miterlimit:10"
   inkscape:connector-curvature="0"
   id="path25031"
   d="m 15.223065,80.968484 c 0,-2.631802 0.48737,-5.077517 1.45325,-7.346006 0.965881,-2.26849 2.312797,-4.253418 4.040747,-5.937063 1.719089,-1.692505 3.783768,-3.012837 6.176316,-3.969856 2.392547,-0.95702 5.03321,-1.435528 7.913128,-1.435528 2.844473,0 5.476275,0.478508 7.886546,1.435528 2.410269,0.957019 4.48381,2.277351 6.220622,3.969856 1.736813,1.692506 3.092589,3.668573 4.058469,5.937063 0.96588,2.268489 1.453251,4.723064 1.453251,7.346006 0,2.631801 -0.487371,5.077516 -1.453251,7.346005 -0.974741,2.26849 -2.321656,4.253417 -4.058469,5.937062 -1.736812,1.692506 -3.810353,3.012837 -6.220622,3.969857 -2.410271,0.957018 -5.042073,1.435527 -7.886546,1.435527 -2.879918,0 -5.520581,-0.478509 -7.913128,-1.435527 -2.392548,-0.95702 -4.457227,-2.277351 -6.176316,-3.969857 -1.71909,-1.692505 -3.066006,-3.668572 -4.040747,-5.937062 -0.96588,-2.268489 -1.45325,-4.714204 -1.45325,-7.346005 z m 9.632217,0 c 0,1.408943 0.265839,2.711553 0.797516,3.898964 0.531677,1.187413 1.249441,2.224183 2.162153,3.101452 0.903851,0.877267 1.967206,1.559586 3.172342,2.046957 1.205134,0.48737 2.48116,0.726625 3.828074,0.726625 1.346916,0 2.622942,-0.239255 3.828076,-0.726625 1.205136,-0.487371 2.26849,-1.16969 3.190063,-2.046957 0.921574,-0.877269 1.648199,-1.905176 2.179876,-3.101452 0.531678,-1.187411 0.797517,-2.490021 0.797517,-3.898964 0,-1.408945 -0.265839,-2.711555 -0.797517,-3.898967 -0.531677,-1.187412 -1.258302,-2.224183 -2.179876,-3.10145 -0.921573,-0.877268 -1.984927,-1.559586 -3.190063,-2.046957 -1.205134,-0.487371 -2.48116,-0.726626 -3.828076,-0.726626 -1.346914,0 -2.62294,0.239255 -3.828074,0.726626 -1.205136,0.487371 -2.259628,1.169689 -3.172342,2.046957 -0.903851,0.877267 -1.630476,1.914038 -2.162153,3.10145 -0.531677,1.187412 -0.797516,2.490022 -0.797516,3.898967 z"
   class="st2" />
		<path
   style="fill:#662d91;stroke:#662d91;stroke-width:0.88612866;stroke-miterlimit:10"
   inkscape:connector-curvature="0"
   id="path25033"
   d="M 79.706644,72.328729 C 78.705318,71.513491 77.703993,70.910923 76.702668,70.521027 75.701343,70.13113 74.7266,69.936182 73.787305,69.936182 c -1.187412,0 -2.162154,0.283561 -2.915364,0.841822 -0.753209,0.567123 -1.125384,1.30261 -1.125384,2.206461 0,0.62915 0.186088,1.143105 0.567123,1.550724 0.372174,0.407621 0.868407,0.76207 1.479836,1.054494 0.611427,0.301284 1.302608,0.55826 2.064679,0.770931 0.770931,0.221533 1.524141,0.451925 2.277351,0.700042 3.003976,1.001325 5.201574,2.33938 6.601657,4.014163 1.391222,1.674783 2.091264,3.863521 2.091264,6.548491 0,1.816562 -0.301284,3.4559 -0.912713,4.926874 -0.611429,1.470975 -1.506418,2.729277 -2.676108,3.783769 -1.178552,1.045632 -2.614079,1.860871 -4.324307,2.445715 -1.710228,0.575985 -3.641989,0.868407 -5.804143,0.868407 -4.474949,0 -8.622032,-1.329193 -12.450107,-3.987579 l 3.943273,-7.416897 c 1.373498,1.222857 2.738137,2.126708 4.085051,2.720416 1.346916,0.593706 2.676109,0.894988 3.98758,0.894988 1.506419,0 2.62294,-0.345588 3.358427,-1.036769 0.735487,-0.691181 1.107661,-1.470975 1.107661,-2.348242 0,-0.531676 -0.09748,-0.992462 -0.283561,-1.382361 -0.186087,-0.389896 -0.505093,-0.753209 -0.939297,-1.081075 -0.443063,-0.327868 -1.010186,-0.638013 -1.710228,-0.912713 -0.700041,-0.283561 -1.559587,-0.593707 -2.560912,-0.939298 -1.187412,-0.372172 -2.357101,-0.788653 -3.500207,-1.240579 -1.143107,-0.451925 -2.162154,-1.054493 -3.048283,-1.807702 -0.89499,-0.753209 -1.612754,-1.701367 -2.162153,-2.844472 -0.549401,-1.143108 -0.8241,-2.587496 -0.8241,-4.342031 0,-1.754536 0.292422,-3.340705 0.868405,-4.767373 0.575984,-1.426666 1.391222,-2.649523 2.445716,-3.65971 1.045632,-1.019048 2.330519,-1.807703 3.854659,-2.374824 1.51528,-0.567123 3.216648,-0.841823 5.09524,-0.841823 1.754534,0 3.588821,0.239254 5.493997,0.726625 1.905178,0.48737 3.739463,1.196273 5.493998,2.135571 z"
   class="st2" />
		<path
   style="fill:#662d91;stroke:#662d91;stroke-width:0.88612866;stroke-miterlimit:10"
   inkscape:connector-curvature="0"
   id="path25035"
   d="M 99.812902,76.927736 H 113.10483 V 63.263634 h 9.20688 v 35.409699 h -9.20688 V 84.069934 H 99.812902 V 98.673333 H 90.606025 V 63.263634 h 9.206877 z"
   class="st2" />
		<path
   style="fill:#662d91;stroke:#662d91;stroke-width:0.88612866;stroke-miterlimit:10"
   inkscape:connector-curvature="0"
   id="path25037"
   d="m 154.89465,98.673333 h -9.20687 V 63.263634 h 14.65657 c 3.97872,0 7.01813,1.036769 9.13598,3.101451 2.11786,2.064679 3.17235,4.980042 3.17235,8.737226 0,3.757186 -1.05449,6.67255 -3.17235,8.73723 -2.11785,2.064679 -5.15726,3.10145 -9.13598,3.10145 h -5.4497 z m 0,-19.158102 h 3.04829 c 3.38501,0 5.06865,-1.470972 5.06865,-4.41292 0,-2.941946 -1.69249,-4.412919 -5.06865,-4.412919 h -3.04829 z"
   class="st2" />
		<path
   style="fill:#662d91;stroke:#662d91;stroke-width:0.88612866;stroke-miterlimit:10"
   inkscape:connector-curvature="0"
   id="path25039"
   d="m 194.77045,74.579496 h 8.55114 v 24.093837 h -8.55114 v -2.676108 c -1.81657,2.286211 -4.27115,3.429318 -7.37261,3.429318 -1.75452,0 -3.36728,-0.319007 -4.83825,-0.965881 -1.47097,-0.638013 -2.75586,-1.541864 -3.85466,-2.702692 -1.09879,-1.160829 -1.94948,-2.516605 -2.5609,-4.085053 -0.61144,-1.568448 -0.91272,-3.269815 -0.91272,-5.121823 0,-1.71909 0.30128,-3.358427 0.89499,-4.909154 0.5937,-1.550724 1.42667,-2.906501 2.49002,-4.058467 1.06335,-1.16083 2.33051,-2.073543 3.80148,-2.747 1.47099,-0.673457 3.10146,-1.010187 4.88258,-1.010187 3.00397,0 5.494,1.045633 7.47007,3.145757 z m -10.70444,11.980459 c 0,0.779793 0.14179,1.51528 0.42534,2.179877 0.28357,0.673456 0.6646,1.258303 1.15197,1.763395 0.48737,0.505093 1.06336,0.89499 1.73681,1.178552 0.67347,0.283561 1.40009,0.425341 2.17987,0.425341 0.75321,0 1.46211,-0.14178 2.13557,-0.425341 0.67346,-0.283562 1.24944,-0.673459 1.73681,-1.178552 0.48737,-0.496232 0.87728,-1.081077 1.17856,-1.736812 0.29242,-0.655735 0.44306,-1.364638 0.44306,-2.108986 0,-0.753209 -0.15064,-1.462112 -0.44306,-2.135569 -0.30128,-0.673459 -0.69119,-1.258303 -1.17856,-1.763397 -0.48737,-0.496232 -1.06335,-0.89499 -1.73681,-1.17855 -0.67346,-0.283561 -1.38236,-0.425343 -2.13557,-0.425343 -0.77978,0 -1.51528,0.141782 -2.17987,0.425343 -0.67345,0.28356 -1.24944,0.673456 -1.73681,1.17855 -0.48737,0.505094 -0.8684,1.072216 -1.15197,1.710228 -0.28355,0.638013 -0.42534,1.338055 -0.42534,2.091264 z"
   class="st2" />
		<path
   style="fill:#662d91;stroke:#662d91;stroke-width:0.88612866;stroke-miterlimit:10"
   inkscape:connector-curvature="0"
   id="path25041"
   d="m 209.09913,74.579496 h 8.498 v 3.943273 c 0.90384,-1.435529 2.02036,-2.54319 3.33183,-3.314121 1.31147,-0.770933 2.84448,-1.151968 4.59901,-1.151968 0.22153,0 0.46079,0 0.72662,0 0.26583,0 0.56713,0.03545 0.91271,0.09748 v 8.1258 c -1.12537,-0.567122 -2.34823,-0.841822 -3.6597,-0.841822 -1.97607,0 -3.45591,0.584844 -4.43951,1.763396 -0.98359,1.169689 -1.47984,2.888779 -1.47984,5.139546 v 10.33226 h -8.49797 V 74.579496 Z"
   class="st2" />
		<path
   style="fill:#662d91;stroke:#662d91;stroke-width:0.88612866;stroke-miterlimit:10"
   inkscape:connector-curvature="0"
   id="path25043"
   d="m 239.4845,59.692535 v 23.579883 l 8.92331,-8.692922 h 11.64373 l -12.06907,11.129776 12.77797,12.964061 H 248.8243 l -9.34867,-9.818305 v 9.818305 h -8.49797 V 59.692535 Z"
   class="st2" />
	</g><g
     id="g25063"
     transform="matrix(0.13366297,0,0,0.13366297,25.630859,16.546514)">
		<g
   id="g25061">
			
			
			
			
			
			
			
		</g>
	</g></g><g
   id="g25215"
   inkscape:groupmode="layer"
   inkscape:label="B.Mask-disabled" /><g
   id="g25217"
   inkscape:groupmode="layer"
   inkscape:label="F.Mask-disabled" /><g
   id="g25219"
   inkscape:groupmode="layer"
   inkscape:label="Dwgs.User-disabled" /><g
   id="g25221"
   inkscape:groupmode="layer"
   inkscape:label="Cmts.User-disabled" /><g
   id="g25223"
   inkscape:groupmode="layer"
   inkscape:label="Eco1.User-disabled" /><g
   id="g25225"
   inkscape:groupmode="layer"
   inkscape:label="Eco2.User-disabled" /><g
   id="g25227"
   inkscape:groupmode="layer"
   inkscape:label="Edge.Cuts" /><g
   id="g25229"
   inkscape:groupmode="layer"
   inkscape:label="Margin-disabled" /><g
   id="g25231"
   inkscape:groupmode="layer"
   inkscape:label="B.CrtYd-disabled" /><g
   id="g25233"
   inkscape:groupmode="layer"
   inkscape:label="F.CrtYd-disabled" /><g
   id="g25235"
   inkscape:groupmode="layer"
   inkscape:label="B.Fab-disabled" /><g
   id="g25237"
   inkscape:groupmode="layer"
   inkscape:label="F.Fab-disabled" /><g
   id="g25239"
   inkscape:groupmode="layer"
   inkscape:label="Drill" /></svg>