<?xml version="1.0" encoding="UTF-8" standalone="no"?>
<!-- Generator: Adobe Illustrator 23.0.1, SVG Export Plug-In . SVG Version: 6.00 Build 0)  -->

<svg
   xmlns:dc="http://purl.org/dc/elements/1.1/"
   xmlns:cc="http://creativecommons.org/ns#"
   xmlns:rdf="http://www.w3.org/1999/02/22-rdf-syntax-ns#"
   xmlns:svg="http://www.w3.org/2000/svg"
   xmlns="http://www.w3.org/2000/svg"
   xmlns:xlink="http://www.w3.org/1999/xlink"
   xmlns:sodipodi="http://sodipodi.sourceforge.net/DTD/sodipodi-0.dtd"
   xmlns:inkscape="http://www.inkscape.org/namespaces/inkscape"
   height="100.0mm"
   width="100.0mm"
   inkscape:version="0.92.5 (2060ec1f9f, 2020-04-08)"
   sodipodi:docname="oshpark-v2-park.svg"
   xml:space="preserve"
   style="enable-background:new 0 0 306 306;"
   viewBox="0 0 100.0 100.0"
   y="0px"
   x="0px"
   id="Layer_1"
   version="1.0"><metadata
   id="metadata25120"><rdf:RDF><cc:Work
       rdf:about=""><dc:format>image/svg+xml</dc:format><dc:type
         rdf:resource="http://purl.org/dc/dcmitype/StillImage" /><dc:title /></cc:Work></rdf:RDF></metadata><defs
   id="defs25118">
	
	
</defs><sodipodi:namedview
   pagecolor="#ffffff"
   bordercolor="#666666"
   borderopacity="1"
   objecttolerance="10"
   gridtolerance="10"
   guidetolerance="10"
   inkscape:pageopacity="0"
   inkscape:pageshadow="2"
   inkscape:window-width="2560"
   inkscape:window-height="1376"
   id="namedview25116"
   showgrid="true"
   inkscape:zoom="5.6568542"
   inkscape:cx="164.62757"
   inkscape:cy="271.05326"
   inkscape:window-x="0"
   inkscape:window-y="27"
   inkscape:window-maximized="1"
   inkscape:current-layer="g25045"
   borderlayer="true"
   inkscape:document-units="mm"><inkscape:grid
     id="grid25143"
     units="mm"
     type="xygrid"
     empspacing="1"
     spacingy="2.54"
     spacingx="2.54" /></sodipodi:namedview>
<style
   type="text/css"
   id="style25013">
	.st0{clip-path:url(#SVGID_2_);}
	.st1{fill:#662D91;}
	.st2{fill:#662D91;stroke:#662D91;stroke-miterlimit:10;}
	.st3{fill:#FFFFFF;stroke:#662D91;stroke-miterlimit:10;}
</style>
<g
   id="g25029">
	<defs
   id="defs25016">
		<polygon
   id="SVGID_1_"
   points="35.11,79.71 35.11,213.4 150.88,280.25 266.66,213.4 266.66,79.71 150.88,12.87   " />
	</defs>
	<clipPath
   id="SVGID_2_">
		<use
   xlink:href="#SVGID_1_"
   style="overflow:visible;"
   id="use25018" />
	</clipPath>
	
	<g
   class="st0"
   clip-path="url(#SVGID_2_)"
   id="g25025">
	</g>
	
</g>


<g
   id="g25103">
</g>
<g
   id="g25105">
</g>
<g
   id="g25107">
</g>
<g
   id="g25109">
</g>
<g
   id="g25111">
</g>
<g
   id="g25113">
</g>
<g
   id="g25197"
   sodipodi:insensitive="true"
   inkscape:groupmode="layer"
   inkscape:label="[fixed] BG"><rect
     id="rect25195"
     style="stroke:none;fill-opacity:1;fill:#FFFFFF"
     height="100.0"
     width="100.0"
     y="0"
     x="0" /></g><g
   id="g25199"
   inkscape:groupmode="layer"
   inkscape:label="F.Cu" /><g
   id="g25201"
   inkscape:groupmode="layer"
   inkscape:label="B.Cu-disabled" /><g
   id="g25203"
   inkscape:groupmode="layer"
   inkscape:label="B.Adhes-disabled" /><g
   id="g25205"
   inkscape:groupmode="layer"
   inkscape:label="F.Adhes-disabled" /><g
   id="g25207"
   inkscape:groupmode="layer"
   inkscape:label="B.Paste-disabled" /><g
   id="g25209"
   inkscape:groupmode="layer"
   inkscape:label="F.Paste-disabled" /><g
   id="g25211"
   inkscape:groupmode="layer"
   inkscape:label="B.SilkS-disabled" /><g
   id="g25213"
   inkscape:groupmode="layer"
   inkscape:label="F.SilkS"><g
     id="g25045"
     transform="matrix(0.13366297,0,0,0.13366297,25.630859,16.546515)">
		<path
   style="fill:#662d91;stroke:#662d91;stroke-width:0.74980116;stroke-miterlimit:10"
   inkscape:connector-curvature="0"
   id="path25031"
   d="m 15.154901,83.911794 c 0,-2.226909 0.41239,-4.296361 1.229673,-6.215851 0.817284,-1.919492 1.956982,-3.599046 3.419094,-5.023669 1.454614,-1.432119 3.20165,-2.549323 5.226114,-3.359108 2.024462,-0.809787 4.258869,-1.214678 6.695723,-1.214678 2.406861,0 4.633771,0.404891 6.673231,1.214678 2.039458,0.809785 3.793993,1.926989 5.263604,3.359108 1.469611,1.432121 2.616805,3.104177 3.434089,5.023669 0.817283,1.91949 1.229673,3.996439 1.229673,6.215851 0,2.226909 -0.41239,4.29636 -1.229673,6.215851 -0.824782,1.919491 -1.964478,3.599045 -3.434089,5.023668 -1.469611,1.43212 -3.224146,2.549323 -5.263604,3.359109 -2.03946,0.809784 -4.26637,1.214677 -6.673231,1.214677 -2.436854,0 -4.671261,-0.404893 -6.695723,-1.214677 -2.024464,-0.809786 -3.7715,-1.926989 -5.226114,-3.359109 -1.454615,-1.43212 -2.594312,-3.104177 -3.419094,-5.023668 -0.817283,-1.919491 -1.229673,-3.988942 -1.229673,-6.215851 z m 8.150337,0 c 0,1.192183 0.224941,2.294392 0.674822,3.299124 0.449881,1.004734 1.057219,1.882 1.829514,2.624305 0.764797,0.742303 1.664558,1.31965 2.684289,1.73204 1.019729,0.41239 2.099444,0.614837 3.239139,0.614837 1.139699,0 2.219413,-0.202447 3.239142,-0.614837 1.01973,-0.41239 1.919492,-0.989737 2.699284,-1.73204 0.779793,-0.742305 1.39463,-1.612072 1.844511,-2.624305 0.44988,-1.004732 0.674821,-2.106941 0.674821,-3.299124 0,-1.192184 -0.224941,-2.294393 -0.674821,-3.299126 -0.449881,-1.004733 -1.064718,-1.882001 -1.844511,-2.624304 -0.779792,-0.742303 -1.679554,-1.319649 -2.699284,-1.73204 -1.019729,-0.41239 -2.099443,-0.614837 -3.239142,-0.614837 -1.139695,0 -2.21941,0.202447 -3.239139,0.614837 -1.019731,0.412391 -1.911993,0.989737 -2.684289,1.73204 -0.764797,0.742303 -1.379633,1.619571 -1.829514,2.624304 -0.449881,1.004733 -0.674822,2.106942 -0.674822,3.299126 z"
   class="st2" />
		<path
   style="fill:#662d91;stroke:#662d91;stroke-width:0.74980116;stroke-miterlimit:10"
   inkscape:connector-curvature="0"
   id="path25033"
   d="m 69.717928,76.601232 c -0.847275,-0.689816 -1.69455,-1.199682 -2.541825,-1.529594 -0.847275,-0.329913 -1.672057,-0.494869 -2.466845,-0.494869 -1.004734,0 -1.829514,0.239936 -2.466847,0.712312 -0.63733,0.479873 -0.952247,1.102208 -0.952247,1.867005 0,0.532358 0.157458,0.967243 0.479873,1.312152 0.314916,0.344909 0.734805,0.644827 1.252168,0.892264 0.517363,0.254931 1.102208,0.472373 1.747036,0.652325 0.652327,0.187451 1.289658,0.382399 1.92699,0.592344 2.541826,0.847275 4.401331,1.979475 5.586017,3.396599 1.177188,1.417124 1.769531,3.269132 1.769531,5.541031 0,1.537091 -0.254932,2.924223 -0.772295,4.168893 -0.517363,1.244671 -1.274662,2.309388 -2.264399,3.201651 -0.997237,0.884765 -2.211913,1.574583 -3.65903,2.069451 -1.447115,0.487372 -3.081682,0.734805 -4.911197,0.734805 -3.786496,0 -7.295565,-1.124701 -10.534706,-3.374104 l 3.336615,-6.275836 c 1.162191,1.034725 2.316885,1.799522 3.456583,2.30189 1.139697,0.502366 2.264399,0.757298 3.374106,0.757298 1.274661,0 2.21941,-0.292421 2.841745,-0.877267 0.622335,-0.584845 0.937253,-1.244671 0.937253,-1.986973 0,-0.44988 -0.08248,-0.839776 -0.239938,-1.169691 -0.157458,-0.329911 -0.427386,-0.63733 -0.794789,-0.914755 -0.3749,-0.277426 -0.854773,-0.539857 -1.447116,-0.772295 -0.592343,-0.239937 -1.319651,-0.502368 -2.166926,-0.794791 -1.004734,-0.314915 -1.99447,-0.667322 -2.961714,-1.049721 -0.967243,-0.382399 -1.829514,-0.892263 -2.579316,-1.529594 -0.757299,-0.637331 -1.364637,-1.439619 -1.829514,-2.406861 -0.464877,-0.967245 -0.697315,-2.18942 -0.697315,-3.674026 0,-1.484607 0.247433,-2.826751 0.734804,-4.033931 0.487371,-1.207179 1.177188,-2.241904 2.069452,-3.096677 0.884766,-0.862272 1.971977,-1.529596 3.261635,-2.009468 1.28216,-0.479872 2.721778,-0.712311 4.311356,-0.712311 1.484606,0 3.036695,0.202446 4.648767,0.614837 1.612074,0.412389 3.164161,1.012231 4.648767,1.807021 z"
   class="st2" />
		<path
   style="fill:#662d91;stroke:#662d91;stroke-width:0.74980116;stroke-miterlimit:10"
   inkscape:connector-curvature="0"
   id="path25035"
   d="M 86.730916,80.4927 H 97.977928 V 68.930767 h 7.790442 V 98.892821 H 97.977928 V 86.536098 H 86.730916 V 98.892821 H 78.940482 V 68.930767 h 7.790434 z"
   class="st2" />
		<path
   style="fill:#662d91;stroke:#662d91;stroke-width:0.74980116;stroke-miterlimit:10"
   inkscape:connector-curvature="0"
   id="path25037"
   d="m 133.33855,98.892821 h -7.79043 V 68.930767 h 12.40171 c 3.36662,0 5.93842,0.877267 7.73045,2.624305 1.79203,1.747036 2.6843,4.213882 2.6843,7.393037 0,3.179158 -0.89227,5.646004 -2.6843,7.393041 -1.79203,1.747036 -4.36383,2.624304 -7.73045,2.624304 h -4.61128 z m 0,-16.210702 h 2.57933 c 2.86422,0 4.28885,-1.244669 4.28885,-3.73401 0,-2.489339 -1.43211,-3.734008 -4.28885,-3.734008 h -2.57933 z"
   class="st2" />
		<path
   style="fill:#662d91;stroke:#662d91;stroke-width:0.74980116;stroke-miterlimit:10"
   inkscape:connector-curvature="0"
   id="path25039"
   d="m 167.07961,78.505727 h 7.23558 v 20.387094 h -7.23558 v -2.2644 c -1.5371,1.934486 -3.61406,2.90173 -6.23836,2.90173 -1.48459,0 -2.84924,-0.269929 -4.09391,-0.817283 -1.24466,-0.539857 -2.33187,-1.304655 -3.26163,-2.286894 -0.92975,-0.982239 -1.64956,-2.129435 -2.16692,-3.456582 -0.51737,-1.327149 -0.7723,-2.766768 -0.7723,-4.333851 0,-1.454615 0.25493,-2.841746 0.75731,-4.153899 0.50235,-1.312152 1.20717,-2.459347 2.10694,-3.434088 0.89975,-0.982241 1.97197,-1.754536 3.21664,-2.324385 1.24467,-0.569848 2.62429,-0.854773 4.1314,-0.854773 2.54183,0 4.64878,0.884766 6.32083,2.661794 z m -9.0576,10.137312 c 0,0.659825 0.11997,1.28216 0.3599,1.844511 0.23994,0.569848 0.56236,1.064718 0.97475,1.492103 0.41238,0.427387 0.89976,0.7573 1.4696,0.997237 0.56986,0.239936 1.18469,0.359904 1.84451,0.359904 0.63733,0 1.23717,-0.119968 1.80702,-0.359904 0.56985,-0.239937 1.05721,-0.56985 1.46961,-0.997237 0.41239,-0.419888 0.74232,-0.914757 0.99724,-1.46961 0.24743,-0.554852 0.3749,-1.154694 0.3749,-1.784526 0,-0.637331 -0.12747,-1.237172 -0.3749,-1.80702 -0.25492,-0.56985 -0.58485,-1.064717 -0.99724,-1.492105 -0.4124,-0.419888 -0.89976,-0.757299 -1.46961,-0.997234 -0.56985,-0.239937 -1.16969,-0.359906 -1.80702,-0.359906 -0.65982,0 -1.28216,0.119969 -1.84451,0.359906 -0.56984,0.239935 -1.05722,0.569847 -1.4696,0.997234 -0.41239,0.427388 -0.73481,0.907259 -0.97475,1.447116 -0.23993,0.539857 -0.3599,1.1322 -0.3599,1.769531 z"
   class="st2" />
		<path
   style="fill:#662d91;stroke:#662d91;stroke-width:0.74980116;stroke-miterlimit:10"
   inkscape:connector-curvature="0"
   id="path25041"
   d="m 179.20389,78.505727 h 7.1906 v 3.336616 c 0.7648,-1.214678 1.70954,-2.15193 2.81924,-2.804257 1.10971,-0.652326 2.40687,-0.974742 3.89148,-0.974742 0.18744,0 0.38989,0 0.61483,0 0.22493,0 0.47987,0.02999 0.77229,0.08248 v 6.875677 c -0.95224,-0.479872 -1.98697,-0.71231 -3.09667,-0.71231 -1.67206,0 -2.92423,0.494868 -3.75651,1.492103 -0.83227,0.989738 -1.25217,2.444352 -1.25217,4.348847 v 8.742682 h -7.19059 V 78.505727 Z"
   class="st2" />
		<path
   style="fill:#662d91;stroke:#662d91;stroke-width:0.74980116;stroke-miterlimit:10"
   inkscape:connector-curvature="0"
   id="path25043"
   d="m 204.91457,65.909068 v 19.952209 l 7.5505,-7.35555 h 9.85239 l -10.2123,9.417503 10.81214,10.969591 h -10.09982 l -7.91041,-8.307797 v 8.307797 h -7.19059 V 65.909068 Z"
   class="st2" />
	</g><g
     id="g25063"
     transform="matrix(0.13366297,0,0,0.13366297,25.630859,16.546514)">
		<g
   id="g25061">
			
			
			
			
			
			
			
		</g>
	</g></g><g
   id="g25215"
   inkscape:groupmode="layer"
   inkscape:label="B.Mask-disabled" /><g
   id="g25217"
   inkscape:groupmode="layer"
   inkscape:label="F.Mask-disabled" /><g
   id="g25219"
   inkscape:groupmode="layer"
   inkscape:label="Dwgs.User-disabled" /><g
   id="g25221"
   inkscape:groupmode="layer"
   inkscape:label="Cmts.User-disabled" /><g
   id="g25223"
   inkscape:groupmode="layer"
   inkscape:label="Eco1.User-disabled" /><g
   id="g25225"
   inkscape:groupmode="layer"
   inkscape:label="Eco2.User-disabled" /><g
   id="g25227"
   inkscape:groupmode="layer"
   inkscape:label="Edge.Cuts" /><g
   id="g25229"
   inkscape:groupmode="layer"
   inkscape:label="Margin-disabled" /><g
   id="g25231"
   inkscape:groupmode="layer"
   inkscape:label="B.CrtYd-disabled" /><g
   id="g25233"
   inkscape:groupmode="layer"
   inkscape:label="F.CrtYd-disabled" /><g
   id="g25235"
   inkscape:groupmode="layer"
   inkscape:label="B.Fab-disabled" /><g
   id="g25237"
   inkscape:groupmode="layer"
   inkscape:label="F.Fab-disabled" /><g
   id="g25239"
   inkscape:groupmode="layer"
   inkscape:label="Drill" /></svg>