<?xml version="1.0" encoding="UTF-8" standalone="no"?>
<!-- Generator: Adobe Illustrator 23.0.1, SVG Export Plug-In . SVG Version: 6.00 Build 0)  -->

<svg
   xmlns:dc="http://purl.org/dc/elements/1.1/"
   xmlns:cc="http://creativecommons.org/ns#"
   xmlns:rdf="http://www.w3.org/1999/02/22-rdf-syntax-ns#"
   xmlns:svg="http://www.w3.org/2000/svg"
   xmlns="http://www.w3.org/2000/svg"
   xmlns:xlink="http://www.w3.org/1999/xlink"
   xmlns:sodipodi="http://sodipodi.sourceforge.net/DTD/sodipodi-0.dtd"
   xmlns:inkscape="http://www.inkscape.org/namespaces/inkscape"
   height="100.0mm"
   width="100.0mm"
   inkscape:version="0.92.5 (2060ec1f9f, 2020-04-08)"
   sodipodi:docname="oshpark-v2-oshpark.svg"
   xml:space="preserve"
   style="enable-background:new 0 0 306 306;"
   viewBox="0 0 100.0 100.0"
   y="0px"
   x="0px"
   id="Layer_1"
   version="1.0"><metadata
   id="metadata25120"><rdf:RDF><cc:Work
       rdf:about=""><dc:format>image/svg+xml</dc:format><dc:type
         rdf:resource="http://purl.org/dc/dcmitype/StillImage" /><dc:title></dc:title></cc:Work></rdf:RDF></metadata><defs
   id="defs25118" /><sodipodi:namedview
   pagecolor="#ffffff"
   bordercolor="#666666"
   borderopacity="1"
   objecttolerance="10"
   gridtolerance="10"
   guidetolerance="10"
   inkscape:pageopacity="0"
   inkscape:pageshadow="2"
   inkscape:window-width="2560"
   inkscape:window-height="1376"
   id="namedview25116"
   showgrid="true"
   inkscape:zoom="8.2208287"
   inkscape:cx="182.68403"
   inkscape:cy="249.7127"
   inkscape:window-x="0"
   inkscape:window-y="27"
   inkscape:window-maximized="1"
   inkscape:current-layer="g25213"
   borderlayer="true"
   inkscape:document-units="mm"><inkscape:grid
     id="grid25143"
     units="mm"
     type="xygrid"
     empspacing="1"
     spacingy="2.54"
     spacingx="2.54" /></sodipodi:namedview>
<style
   type="text/css"
   id="style25013">
	.st0{clip-path:url(#SVGID_2_);}
	.st1{fill:#662D91;}
	.st2{fill:#662D91;stroke:#662D91;stroke-miterlimit:10;}
	.st3{fill:#FFFFFF;stroke:#662D91;stroke-miterlimit:10;}
</style>
<g
   id="g25029">
	<defs
   id="defs25016">
		<polygon
   id="SVGID_1_"
   points="35.11,79.71 35.11,213.4 150.88,280.25 266.66,213.4 266.66,79.71 150.88,12.87   " />
	</defs>
	<clipPath
   id="SVGID_2_">
		<use
   xlink:href="#SVGID_1_"
   style="overflow:visible;"
   id="use25018" />
	</clipPath>
	
	<g
   class="st0"
   clip-path="url(#SVGID_2_)"
   id="g25025">
	</g>
	
</g>


<g
   id="g25103">
</g>
<g
   id="g25105">
</g>
<g
   id="g25107">
</g>
<g
   id="g25109">
</g>
<g
   id="g25111">
</g>
<g
   id="g25113">
</g>
<g
   id="g25197"
   sodipodi:insensitive="true"
   inkscape:groupmode="layer"
   inkscape:label="[fixed] BG"><rect
     id="rect25195"
     style="stroke:none;fill-opacity:1;fill:#FFFFFF"
     height="100.0"
     width="100.0"
     y="0"
     x="0" /></g><g
   id="g25199"
   inkscape:groupmode="layer"
   inkscape:label="F.Cu" /><g
   id="g25201"
   inkscape:groupmode="layer"
   inkscape:label="B.Cu-disabled" /><g
   id="g25203"
   inkscape:groupmode="layer"
   inkscape:label="B.Adhes-disabled" /><g
   id="g25205"
   inkscape:groupmode="layer"
   inkscape:label="F.Adhes-disabled" /><g
   id="g25207"
   inkscape:groupmode="layer"
   inkscape:label="B.Paste-disabled" /><g
   id="g25209"
   inkscape:groupmode="layer"
   inkscape:label="F.Paste-disabled" /><g
   id="g25211"
   inkscape:groupmode="layer"
   inkscape:label="B.SilkS-disabled" /><g
   id="g25213"
   inkscape:groupmode="layer"
   inkscape:label="F.SilkS"><g
     id="g25065"
     transform="matrix(0.13366297,0,0,0.13366297,25.630859,16.546515)">
	<g
   id="g25045">
		<path
   class="st2"
   d="m 15.28,78.51 c 0,-2.97 0.55,-5.73 1.64,-8.29 1.09,-2.56 2.61,-4.8 4.56,-6.7 1.94,-1.91 4.27,-3.4 6.97,-4.48 2.7,-1.08 5.68,-1.62 8.93,-1.62 3.21,0 6.18,0.54 8.9,1.62 2.72,1.08 5.06,2.57 7.02,4.48 1.96,1.91 3.49,4.14 4.58,6.7 1.09,2.56 1.64,5.33 1.64,8.29 0,2.97 -0.55,5.73 -1.64,8.29 -1.1,2.56 -2.62,4.8 -4.58,6.7 -1.96,1.91 -4.3,3.4 -7.02,4.48 -2.72,1.08 -5.69,1.62 -8.9,1.62 -3.25,0 -6.23,-0.54 -8.93,-1.62 -2.7,-1.08 -5.03,-2.57 -6.97,-4.48 -1.94,-1.91 -3.46,-4.14 -4.56,-6.7 -1.09,-2.56 -1.64,-5.32 -1.64,-8.29 z m 10.87,0 c 0,1.59 0.3,3.06 0.9,4.4 0.6,1.34 1.41,2.51 2.44,3.5 1.02,0.99 2.22,1.76 3.58,2.31 1.36,0.55 2.8,0.82 4.32,0.82 1.52,0 2.96,-0.27 4.32,-0.82 1.36,-0.55 2.56,-1.32 3.6,-2.31 1.04,-0.99 1.86,-2.15 2.46,-3.5 0.6,-1.34 0.9,-2.81 0.9,-4.4 0,-1.59 -0.3,-3.06 -0.9,-4.4 -0.6,-1.34 -1.42,-2.51 -2.46,-3.5 -1.04,-0.99 -2.24,-1.76 -3.6,-2.31 -1.36,-0.55 -2.8,-0.82 -4.32,-0.82 -1.52,0 -2.96,0.27 -4.32,0.82 -1.36,0.55 -2.55,1.32 -3.58,2.31 -1.02,0.99 -1.84,2.16 -2.44,3.5 -0.6,1.34 -0.9,2.81 -0.9,4.4 z"
   id="path25031"
   inkscape:connector-curvature="0"
   style="fill:#662d91;stroke:#662d91;stroke-miterlimit:10" />
		<path
   class="st2"
   d="m 88.05,68.76 c -1.13,-0.92 -2.26,-1.6 -3.39,-2.04 -1.13,-0.44 -2.23,-0.66 -3.29,-0.66 -1.34,0 -2.44,0.32 -3.29,0.95 -0.85,0.64 -1.27,1.47 -1.27,2.49 0,0.71 0.21,1.29 0.64,1.75 0.42,0.46 0.98,0.86 1.67,1.19 0.69,0.34 1.47,0.63 2.33,0.87 0.87,0.25 1.72,0.51 2.57,0.79 3.39,1.13 5.87,2.64 7.45,4.53 1.57,1.89 2.36,4.36 2.36,7.39 0,2.05 -0.34,3.9 -1.03,5.56 -0.69,1.66 -1.7,3.08 -3.02,4.27 -1.33,1.18 -2.95,2.1 -4.88,2.76 -1.93,0.65 -4.11,0.98 -6.55,0.98 -5.05,0 -9.73,-1.5 -14.05,-4.5 l 4.45,-8.37 c 1.55,1.38 3.09,2.4 4.61,3.07 1.52,0.67 3.02,1.01 4.5,1.01 1.7,0 2.96,-0.39 3.79,-1.17 0.83,-0.78 1.25,-1.66 1.25,-2.65 0,-0.6 -0.11,-1.12 -0.32,-1.56 -0.21,-0.44 -0.57,-0.85 -1.06,-1.22 -0.5,-0.37 -1.14,-0.72 -1.93,-1.03 -0.79,-0.32 -1.76,-0.67 -2.89,-1.06 -1.34,-0.42 -2.66,-0.89 -3.95,-1.4 -1.29,-0.51 -2.44,-1.19 -3.44,-2.04 -1.01,-0.85 -1.82,-1.92 -2.44,-3.21 -0.62,-1.29 -0.93,-2.92 -0.93,-4.9 0,-1.98 0.33,-3.77 0.98,-5.38 0.65,-1.61 1.57,-2.99 2.76,-4.13 1.18,-1.15 2.63,-2.04 4.35,-2.68 1.71,-0.64 3.63,-0.95 5.75,-0.95 1.98,0 4.05,0.27 6.2,0.82 2.15,0.55 4.22,1.35 6.2,2.41 z"
   id="path25033"
   inkscape:connector-curvature="0"
   style="fill:#662d91;stroke:#662d91;stroke-miterlimit:10" />
		<path
   class="st2"
   d="m 110.74,73.95 h 15 V 58.53 h 10.39 V 98.49 H 125.74 V 82.01 h -15 V 98.49 H 100.35 V 58.53 h 10.39 z"
   id="path25035"
   inkscape:connector-curvature="0"
   style="fill:#662d91;stroke:#662d91;stroke-miterlimit:10" />
		<path
   class="st2"
   d="M 172.9,98.49 H 162.51 V 58.53 h 16.54 c 4.49,0 7.92,1.17 10.31,3.5 2.39,2.33 3.58,5.62 3.58,9.86 0,4.24 -1.19,7.53 -3.58,9.86 -2.39,2.33 -5.82,3.5 -10.31,3.5 h -6.15 z m 0,-21.62 h 3.44 c 3.82,0 5.72,-1.66 5.72,-4.98 0,-3.32 -1.91,-4.98 -5.72,-4.98 h -3.44 z"
   id="path25037"
   inkscape:connector-curvature="0"
   style="fill:#662d91;stroke:#662d91;stroke-miterlimit:10" />
		<path
   class="st2"
   d="m 217.9,71.3 h 9.65 v 27.19 h -9.65 v -3.02 c -2.05,2.58 -4.82,3.87 -8.32,3.87 -1.98,0 -3.8,-0.36 -5.46,-1.09 -1.66,-0.72 -3.11,-1.74 -4.35,-3.05 -1.24,-1.31 -2.2,-2.84 -2.89,-4.61 -0.69,-1.77 -1.03,-3.69 -1.03,-5.78 0,-1.94 0.34,-3.79 1.01,-5.54 0.67,-1.75 1.61,-3.28 2.81,-4.58 1.2,-1.31 2.63,-2.34 4.29,-3.1 1.66,-0.76 3.5,-1.14 5.51,-1.14 3.39,0 6.2,1.18 8.43,3.55 z m -12.08,13.52 c 0,0.88 0.16,1.71 0.48,2.46 0.32,0.76 0.75,1.42 1.3,1.99 0.55,0.57 1.2,1.01 1.96,1.33 0.76,0.32 1.58,0.48 2.46,0.48 0.85,0 1.65,-0.16 2.41,-0.48 0.76,-0.32 1.41,-0.76 1.96,-1.33 0.55,-0.56 0.99,-1.22 1.33,-1.96 0.33,-0.74 0.5,-1.54 0.5,-2.38 0,-0.85 -0.17,-1.65 -0.5,-2.41 -0.34,-0.76 -0.78,-1.42 -1.33,-1.99 -0.55,-0.56 -1.2,-1.01 -1.96,-1.33 -0.76,-0.32 -1.56,-0.48 -2.41,-0.48 -0.88,0 -1.71,0.16 -2.46,0.48 -0.76,0.32 -1.41,0.76 -1.96,1.33 -0.55,0.57 -0.98,1.21 -1.3,1.93 -0.32,0.72 -0.48,1.51 -0.48,2.36 z"
   id="path25039"
   inkscape:connector-curvature="0"
   style="fill:#662d91;stroke:#662d91;stroke-miterlimit:10" />
		<path
   class="st2"
   d="m 234.07,71.3 h 9.59 v 4.45 c 1.02,-1.62 2.28,-2.87 3.76,-3.74 1.48,-0.87 3.21,-1.3 5.19,-1.3 0.25,0 0.52,0 0.82,0 0.3,0 0.64,0.04 1.03,0.11 v 9.17 c -1.27,-0.64 -2.65,-0.95 -4.13,-0.95 -2.23,0 -3.9,0.66 -5.01,1.99 -1.11,1.32 -1.67,3.26 -1.67,5.8 v 11.66 h -9.59 V 71.3 Z"
   id="path25041"
   inkscape:connector-curvature="0"
   style="fill:#662d91;stroke:#662d91;stroke-miterlimit:10" />
		<path
   class="st2"
   d="m 268.36,54.5 v 26.61 l 10.07,-9.81 h 13.14 l -13.62,12.56 14.42,14.63 H 278.9 L 268.35,87.41 v 11.08 h -9.59 V 54.5 Z"
   id="path25043"
   inkscape:connector-curvature="0"
   style="fill:#662d91;stroke:#662d91;stroke-miterlimit:10" />
	</g>
	<g
   id="g25063">
		<g
   id="g25061">
			<path
   class="st3"
   d="m 11.68,74.91 c 0,-2.97 0.55,-5.73 1.64,-8.29 1.09,-2.56 2.61,-4.8 4.56,-6.7 1.94,-1.91 4.27,-3.4 6.97,-4.48 2.7,-1.08 5.68,-1.62 8.93,-1.62 3.21,0 6.18,0.54 8.9,1.62 2.72,1.08 5.06,2.57 7.02,4.48 1.96,1.91 3.49,4.14 4.58,6.7 1.09,2.56 1.64,5.33 1.64,8.29 0,2.97 -0.55,5.73 -1.64,8.29 -1.1,2.56 -2.62,4.8 -4.58,6.7 -1.96,1.91 -4.3,3.4 -7.02,4.48 C 39.97,95.46 37,96 33.79,96 30.54,96 27.56,95.46 24.86,94.38 22.16,93.3 19.83,91.81 17.89,89.9 15.95,87.99 14.43,85.76 13.33,83.2 12.23,80.64 11.68,77.88 11.68,74.91 Z m 10.87,0 c 0,1.59 0.3,3.06 0.9,4.4 0.6,1.34 1.41,2.51 2.44,3.5 1.02,0.99 2.22,1.76 3.58,2.31 1.36,0.55 2.8,0.82 4.32,0.82 1.52,0 2.96,-0.27 4.32,-0.82 1.36,-0.55 2.56,-1.32 3.6,-2.31 1.04,-0.99 1.86,-2.15 2.46,-3.5 0.6,-1.34 0.9,-2.81 0.9,-4.4 0,-1.59 -0.3,-3.06 -0.9,-4.4 -0.6,-1.34 -1.42,-2.51 -2.46,-3.5 -1.04,-0.99 -2.24,-1.76 -3.6,-2.31 -1.36,-0.55 -2.8,-0.82 -4.32,-0.82 -1.52,0 -2.96,0.27 -4.32,0.82 -1.36,0.55 -2.55,1.32 -3.58,2.31 -1.02,0.99 -1.84,2.16 -2.44,3.5 -0.6,1.34 -0.9,2.81 -0.9,4.4 z"
   id="path25047"
   inkscape:connector-curvature="0"
   style="fill:#ffffff;stroke:#662d91;stroke-miterlimit:10" />
			<path
   class="st3"
   d="m 84.45,65.16 c -1.13,-0.92 -2.26,-1.6 -3.39,-2.04 -1.13,-0.44 -2.23,-0.66 -3.29,-0.66 -1.34,0 -2.44,0.32 -3.29,0.95 -0.85,0.64 -1.27,1.47 -1.27,2.49 0,0.71 0.21,1.29 0.64,1.75 0.42,0.46 0.98,0.86 1.67,1.19 0.69,0.34 1.47,0.63 2.33,0.87 0.87,0.25 1.72,0.51 2.57,0.79 3.39,1.13 5.87,2.64 7.45,4.53 1.57,1.89 2.36,4.36 2.36,7.39 0,2.05 -0.34,3.9 -1.03,5.56 -0.69,1.66 -1.7,3.08 -3.02,4.27 -1.33,1.18 -2.95,2.1 -4.88,2.76 C 79.37,95.68 77.19,96 74.75,96 69.7,96 65.02,94.5 60.7,91.5 l 4.45,-8.37 c 1.55,1.38 3.09,2.4 4.61,3.07 1.52,0.67 3.02,1.01 4.5,1.01 1.7,0 2.96,-0.39 3.79,-1.17 0.83,-0.78 1.25,-1.66 1.25,-2.65 0,-0.6 -0.11,-1.12 -0.32,-1.56 -0.21,-0.44 -0.57,-0.85 -1.06,-1.22 -0.5,-0.37 -1.14,-0.72 -1.93,-1.03 -0.79,-0.32 -1.76,-0.67 -2.89,-1.06 -1.34,-0.42 -2.66,-0.89 -3.95,-1.4 -1.29,-0.51 -2.44,-1.19 -3.44,-2.04 -1.01,-0.85 -1.82,-1.92 -2.44,-3.21 -0.62,-1.29 -0.93,-2.92 -0.93,-4.9 0,-1.98 0.33,-3.77 0.98,-5.38 0.65,-1.61 1.57,-2.99 2.76,-4.13 1.18,-1.15 2.63,-2.04 4.35,-2.68 1.71,-0.64 3.63,-0.95 5.75,-0.95 1.98,0 4.05,0.27 6.2,0.82 2.15,0.55 4.22,1.35 6.2,2.41 z"
   id="path25049"
   inkscape:connector-curvature="0"
   style="fill:#ffffff;stroke:#662d91;stroke-miterlimit:10" />
			<path
   class="st3"
   d="m 107.14,70.35 h 15 V 54.93 h 10.39 V 94.89 H 122.14 V 78.41 h -15 V 94.89 H 96.75 V 54.93 h 10.39 z"
   id="path25051"
   inkscape:connector-curvature="0"
   style="fill:#ffffff;stroke:#662d91;stroke-miterlimit:10" />
			<path
   class="st3"
   d="M 169.3,94.89 H 158.91 V 54.93 h 16.54 c 4.49,0 7.92,1.17 10.31,3.5 2.39,2.33 3.58,5.62 3.58,9.86 0,4.24 -1.19,7.53 -3.58,9.86 -2.39,2.33 -5.82,3.5 -10.31,3.5 h -6.15 z m 0,-21.62 h 3.44 c 3.82,0 5.72,-1.66 5.72,-4.98 0,-3.32 -1.91,-4.98 -5.72,-4.98 h -3.44 z"
   id="path25053"
   inkscape:connector-curvature="0"
   style="fill:#ffffff;stroke:#662d91;stroke-miterlimit:10" />
			<path
   class="st3"
   d="m 214.3,67.7 h 9.65 v 27.19 h -9.65 v -3.02 c -2.05,2.58 -4.82,3.87 -8.32,3.87 -1.98,0 -3.8,-0.36 -5.46,-1.09 -1.66,-0.72 -3.11,-1.74 -4.35,-3.05 -1.24,-1.31 -2.2,-2.84 -2.89,-4.61 -0.69,-1.77 -1.03,-3.69 -1.03,-5.78 0,-1.94 0.34,-3.79 1.01,-5.54 0.67,-1.75 1.61,-3.28 2.81,-4.58 1.2,-1.31 2.63,-2.34 4.29,-3.1 1.66,-0.76 3.5,-1.14 5.51,-1.14 3.39,0 6.2,1.18 8.43,3.55 z m -12.08,13.52 c 0,0.88 0.16,1.71 0.48,2.46 0.32,0.76 0.75,1.42 1.3,1.99 0.55,0.57 1.2,1.01 1.96,1.33 0.76,0.32 1.58,0.48 2.46,0.48 0.85,0 1.65,-0.16 2.41,-0.48 0.76,-0.32 1.41,-0.76 1.96,-1.33 0.55,-0.56 0.99,-1.22 1.33,-1.96 0.33,-0.74 0.5,-1.54 0.5,-2.38 0,-0.85 -0.17,-1.65 -0.5,-2.41 -0.34,-0.76 -0.78,-1.42 -1.33,-1.99 -0.55,-0.56 -1.2,-1.01 -1.96,-1.33 -0.76,-0.32 -1.56,-0.48 -2.41,-0.48 -0.88,0 -1.71,0.16 -2.46,0.48 -0.76,0.32 -1.41,0.76 -1.96,1.33 -0.55,0.57 -0.98,1.21 -1.3,1.93 -0.32,0.72 -0.48,1.51 -0.48,2.36 z"
   id="path25055"
   inkscape:connector-curvature="0"
   style="fill:#ffffff;stroke:#662d91;stroke-miterlimit:10" />
			<path
   class="st3"
   d="m 230.47,67.7 h 9.59 v 4.45 c 1.02,-1.62 2.28,-2.87 3.76,-3.74 1.48,-0.87 3.21,-1.3 5.19,-1.3 0.25,0 0.52,0 0.82,0 0.3,0 0.64,0.04 1.03,0.11 v 9.17 c -1.27,-0.64 -2.65,-0.95 -4.13,-0.95 -2.23,0 -3.9,0.66 -5.01,1.99 -1.11,1.32 -1.67,3.26 -1.67,5.8 v 11.66 h -9.59 V 67.7 Z"
   id="path25057"
   inkscape:connector-curvature="0"
   style="fill:#ffffff;stroke:#662d91;stroke-miterlimit:10" />
			<path
   class="st3"
   d="m 264.76,50.9 v 26.61 l 10.07,-9.81 h 13.14 l -13.62,12.56 14.42,14.63 H 275.3 L 264.75,83.81 v 11.08 h -9.59 V 50.9 Z"
   id="path25059"
   inkscape:connector-curvature="0"
   style="fill:#ffffff;stroke:#662d91;stroke-miterlimit:10" />
		</g>
	</g>
</g></g><g
   id="g25215"
   inkscape:groupmode="layer"
   inkscape:label="B.Mask-disabled" /><g
   id="g25217"
   inkscape:groupmode="layer"
   inkscape:label="F.Mask-disabled" /><g
   id="g25219"
   inkscape:groupmode="layer"
   inkscape:label="Dwgs.User-disabled" /><g
   id="g25221"
   inkscape:groupmode="layer"
   inkscape:label="Cmts.User-disabled" /><g
   id="g25223"
   inkscape:groupmode="layer"
   inkscape:label="Eco1.User-disabled" /><g
   id="g25225"
   inkscape:groupmode="layer"
   inkscape:label="Eco2.User-disabled" /><g
   id="g25227"
   inkscape:groupmode="layer"
   inkscape:label="Edge.Cuts" /><g
   id="g25229"
   inkscape:groupmode="layer"
   inkscape:label="Margin-disabled" /><g
   id="g25231"
   inkscape:groupmode="layer"
   inkscape:label="B.CrtYd-disabled" /><g
   id="g25233"
   inkscape:groupmode="layer"
   inkscape:label="F.CrtYd-disabled" /><g
   id="g25235"
   inkscape:groupmode="layer"
   inkscape:label="B.Fab-disabled" /><g
   id="g25237"
   inkscape:groupmode="layer"
   inkscape:label="F.Fab-disabled" /><g
   id="g25239"
   inkscape:groupmode="layer"
   inkscape:label="Drill" /></svg>