G04 #@! TF.GenerationSoftware,KiCad,Pcbnew,(5.99.0-1716-g4efed4b72)*
G04 #@! TF.CreationDate,2020-05-21T15:21:06+02:00*
G04 #@! TF.ProjectId,flex-strip-tester-v8,666c6578-2d73-4747-9269-702d74657374,rev?*
G04 #@! TF.SameCoordinates,Original*
G04 #@! TF.FileFunction,Profile,NP*
%FSLAX46Y46*%
G04 Gerber Fmt 4.6, Leading zero omitted, Abs format (unit mm)*
G04 Created by KiCad (PCBNEW (5.99.0-1716-g4efed4b72)) date 2020-05-21 15:21:06*
%MOMM*%
%LPD*%
G01*
G04 APERTURE LIST*
G04 #@! TA.AperFunction,Profile*
%ADD10C,0.050000*%
G04 #@! TD*
G04 APERTURE END LIST*
D10*
X148463000Y-99123500D02*
G75*
G02*
X144600446Y-95260946I0J3862554D01*
G01*
X151638000Y-99123500D02*
X151511000Y-98383392D01*
X151511000Y-92033392D02*
X151638000Y-91398392D01*
X148537446Y-98435946D02*
G75*
G02*
X145362446Y-95260946I0J3175000D01*
G01*
X148537446Y-92085946D02*
X151511000Y-92033392D01*
X145362446Y-95260946D02*
G75*
G02*
X148537446Y-92085946I3175000J0D01*
G01*
X151638000Y-99123500D02*
X148463000Y-99123500D01*
X144600446Y-95260946D02*
G75*
G02*
X148463000Y-91398392I3862554J0D01*
G01*
X151638000Y-91398392D02*
X148463000Y-91398392D01*
X151511000Y-98383392D02*
X148537446Y-98435946D01*
X154607169Y-91334892D02*
X154734169Y-92075000D01*
X154734169Y-92075000D02*
X157707723Y-92022446D01*
X154607169Y-91334892D02*
X157782169Y-91334892D01*
X154607169Y-99060000D02*
X157782169Y-99060000D01*
X154734169Y-98425000D02*
X154607169Y-99060000D01*
X157707723Y-98372446D02*
X154734169Y-98425000D01*
X157782169Y-91334892D02*
G75*
G02*
X161644723Y-95197446I0J-3862554D01*
G01*
X160882723Y-95197446D02*
G75*
G02*
X157707723Y-98372446I-3175000J0D01*
G01*
X161644723Y-95197446D02*
G75*
G02*
X157782169Y-99060000I-3862554J0D01*
G01*
X157707723Y-92022446D02*
G75*
G02*
X160882723Y-95197446I0J-3175000D01*
G01*
X184701180Y-101287580D02*
X120942100Y-101287580D01*
X186038754Y-91545674D02*
X186015894Y-99972866D01*
X118824746Y-91545674D02*
X118801886Y-99972866D01*
X118801886Y-99972866D02*
G75*
G03*
X120116600Y-101287580I1314714J0D01*
G01*
X186015894Y-99972866D02*
G75*
G02*
X184701180Y-101287580I-1314714J0D01*
G01*
X120942100Y-101287580D02*
X120116600Y-101287580D01*
X183898540Y-90230960D02*
X184724040Y-90230960D01*
X186038754Y-91545674D02*
G75*
G03*
X184724040Y-90230960I-1314714J0D01*
G01*
X120139460Y-90230960D02*
X183898540Y-90230960D01*
X118824746Y-91545674D02*
G75*
G02*
X120139460Y-90230960I1314714J0D01*
G01*
M02*
