G04 #@! TF.GenerationSoftware,KiCad,Pcbnew,(5.99.0-1716-g4efed4b72)*
G04 #@! TF.CreationDate,2020-05-21T15:21:06+02:00*
G04 #@! TF.ProjectId,flex-strip-tester-v8,666c6578-2d73-4747-9269-702d74657374,rev?*
G04 #@! TF.SameCoordinates,Original*
G04 #@! TF.FileFunction,Copper,L2,Bot*
G04 #@! TF.FilePolarity,Positive*
%FSLAX46Y46*%
G04 Gerber Fmt 4.6, Leading zero omitted, Abs format (unit mm)*
G04 Created by KiCad (PCBNEW (5.99.0-1716-g4efed4b72)) date 2020-05-21 15:21:06*
%MOMM*%
%LPD*%
G01*
G04 APERTURE LIST*
G04 #@! TA.AperFunction,EtchedComponent*
%ADD10C,0.010000*%
G04 #@! TD*
G04 #@! TA.AperFunction,ViaPad*
%ADD11C,0.800000*%
G04 #@! TD*
G04 #@! TA.AperFunction,Conductor*
%ADD12C,0.750000*%
G04 #@! TD*
G04 #@! TA.AperFunction,Conductor*
%ADD13C,0.250000*%
G04 #@! TD*
G04 APERTURE END LIST*
G36*
X124699335Y-91201645D02*
G01*
X124852055Y-91202639D01*
X124961952Y-91205193D01*
X125036395Y-91210045D01*
X125082754Y-91217931D01*
X125108399Y-91229588D01*
X125120699Y-91245753D01*
X125127025Y-91267163D01*
X125127207Y-91267932D01*
X125137601Y-91318263D01*
X125156499Y-91415488D01*
X125181962Y-91549410D01*
X125212050Y-91709835D01*
X125244824Y-91886567D01*
X125247497Y-91901028D01*
X125280170Y-92072559D01*
X125310573Y-92223225D01*
X125336728Y-92343867D01*
X125356656Y-92425329D01*
X125368380Y-92458452D01*
X125368442Y-92458505D01*
X125405389Y-92476829D01*
X125481217Y-92507277D01*
X125579585Y-92543285D01*
X125585125Y-92545240D01*
X125710884Y-92592770D01*
X125857171Y-92652383D01*
X125993453Y-92711656D01*
X126217550Y-92813365D01*
X126713778Y-92474497D01*
X126748730Y-92450663D01*
X126898440Y-92349355D01*
X127032027Y-92260175D01*
X127141503Y-92188373D01*
X127218878Y-92139203D01*
X127256164Y-92117917D01*
X127281712Y-92122796D01*
X127339715Y-92160602D01*
X127429355Y-92235470D01*
X127553117Y-92349503D01*
X127713488Y-92504805D01*
X127727839Y-92518941D01*
X127855093Y-92645599D01*
X127968129Y-92760345D01*
X128060027Y-92855991D01*
X128123867Y-92925346D01*
X128152730Y-92961220D01*
X128152824Y-92961394D01*
X128156491Y-92988706D01*
X128142968Y-93033008D01*
X128108844Y-93100361D01*
X128050708Y-93196826D01*
X127965148Y-93328463D01*
X127848754Y-93501334D01*
X127828919Y-93530512D01*
X127728605Y-93678326D01*
X127640083Y-93809177D01*
X127568625Y-93915243D01*
X127519503Y-93988702D01*
X127497991Y-94021730D01*
X127496368Y-94028726D01*
X127506547Y-94080926D01*
X127537039Y-94166161D01*
X127582872Y-94269891D01*
X127645160Y-94405551D01*
X127714708Y-94566521D01*
X127773769Y-94712221D01*
X127788412Y-94749933D01*
X127826760Y-94846222D01*
X127854930Y-94913304D01*
X127867657Y-94938485D01*
X127881705Y-94940367D01*
X127944841Y-94951251D01*
X128048179Y-94970049D01*
X128180969Y-94994715D01*
X128332457Y-95023204D01*
X128491892Y-95053473D01*
X128648521Y-95083475D01*
X128791593Y-95111166D01*
X128910355Y-95134500D01*
X128994056Y-95151433D01*
X129031942Y-95159920D01*
X129038223Y-95162313D01*
X129053533Y-95175219D01*
X129064923Y-95202696D01*
X129072963Y-95252046D01*
X129078224Y-95330573D01*
X129081276Y-95445580D01*
X129082689Y-95604370D01*
X129083033Y-95814245D01*
X129083033Y-96452506D01*
X128929758Y-96482760D01*
X128911217Y-96486385D01*
X128812756Y-96505169D01*
X128676608Y-96530693D01*
X128518247Y-96560068D01*
X128353148Y-96590406D01*
X128288133Y-96602609D01*
X128142857Y-96632297D01*
X128021786Y-96660370D01*
X127936046Y-96684136D01*
X127896761Y-96700901D01*
X127878959Y-96728294D01*
X127846549Y-96800774D01*
X127813394Y-96894577D01*
X127801724Y-96929703D01*
X127758764Y-97045009D01*
X127703352Y-97181476D01*
X127644513Y-97316554D01*
X127613044Y-97387109D01*
X127568211Y-97492495D01*
X127537400Y-97571418D01*
X127525945Y-97610653D01*
X127526582Y-97613614D01*
X127548310Y-97655239D01*
X127597306Y-97735569D01*
X127668598Y-97846820D01*
X127757214Y-97981205D01*
X127858183Y-98130940D01*
X128190421Y-98618531D01*
X127753931Y-99055749D01*
X127711715Y-99097821D01*
X127582630Y-99223753D01*
X127467267Y-99332354D01*
X127372384Y-99417503D01*
X127304742Y-99473082D01*
X127271098Y-99492968D01*
X127234562Y-99477838D01*
X127158050Y-99434401D01*
X127050356Y-99367870D01*
X126919927Y-99283467D01*
X126775212Y-99186416D01*
X126633070Y-99090564D01*
X126504838Y-99006157D01*
X126400214Y-98939450D01*
X126327331Y-98895624D01*
X126294318Y-98879864D01*
X126292383Y-98880008D01*
X126248529Y-98895545D01*
X126170758Y-98931721D01*
X126074552Y-98981385D01*
X126073541Y-98981929D01*
X125945765Y-99045926D01*
X125858211Y-99077191D01*
X125803886Y-99077277D01*
X125775801Y-99047738D01*
X125763912Y-99018661D01*
X125731828Y-98940788D01*
X125682407Y-98821075D01*
X125618278Y-98665886D01*
X125542071Y-98481584D01*
X125456415Y-98274533D01*
X125363941Y-98051096D01*
X125280122Y-97847826D01*
X125194838Y-97639249D01*
X125119382Y-97452863D01*
X125056286Y-97295007D01*
X125008083Y-97172019D01*
X124977304Y-97090239D01*
X124966482Y-97056006D01*
X124987151Y-97024615D01*
X125044569Y-96972202D01*
X125125848Y-96911304D01*
X125320980Y-96751987D01*
X125495605Y-96548407D01*
X125623395Y-96324408D01*
X125703562Y-96086603D01*
X125735320Y-95841607D01*
X125717882Y-95596033D01*
X125650461Y-95356495D01*
X125532271Y-95129607D01*
X125362524Y-94921983D01*
X125274016Y-94841127D01*
X125061964Y-94698159D01*
X124835065Y-94604952D01*
X124599951Y-94559287D01*
X124363254Y-94558944D01*
X124131606Y-94601705D01*
X123911638Y-94685350D01*
X123709982Y-94807661D01*
X123533271Y-94966417D01*
X123388137Y-95159401D01*
X123281210Y-95384393D01*
X123219124Y-95639175D01*
X123207729Y-95761977D01*
X123223406Y-96028034D01*
X123294006Y-96280456D01*
X123417442Y-96514782D01*
X123591626Y-96726552D01*
X123814471Y-96911304D01*
X123892721Y-96969723D01*
X123951404Y-97022710D01*
X123973838Y-97055956D01*
X123964892Y-97084939D01*
X123935863Y-97162596D01*
X123889186Y-97282051D01*
X123827391Y-97436962D01*
X123753010Y-97620992D01*
X123668572Y-97827800D01*
X123576609Y-98051046D01*
X123492931Y-98253342D01*
X123406526Y-98462286D01*
X123329298Y-98649098D01*
X123263876Y-98807414D01*
X123212891Y-98930869D01*
X123178972Y-99013098D01*
X123164750Y-99047738D01*
X123164585Y-99048148D01*
X123136132Y-99077398D01*
X123081542Y-99077063D01*
X122993769Y-99045580D01*
X122865768Y-98981385D01*
X122855692Y-98975980D01*
X122760641Y-98927350D01*
X122685584Y-98892928D01*
X122646002Y-98879864D01*
X122613560Y-98895302D01*
X122541055Y-98938858D01*
X122436725Y-99005351D01*
X122308699Y-99089598D01*
X122165108Y-99186416D01*
X122023628Y-99281334D01*
X121892771Y-99366090D01*
X121784452Y-99433096D01*
X121707120Y-99477129D01*
X121669222Y-99492968D01*
X121662767Y-99490957D01*
X121617769Y-99459258D01*
X121540887Y-99393781D01*
X121438881Y-99300648D01*
X121318511Y-99185981D01*
X121186539Y-99055900D01*
X120750199Y-98618832D01*
X121429893Y-97619040D01*
X121326562Y-97395486D01*
X121326256Y-97394825D01*
X121264206Y-97252314D01*
X121200800Y-97093618D01*
X121149718Y-96952968D01*
X121141987Y-96930283D01*
X121103012Y-96824970D01*
X121067867Y-96743134D01*
X121043355Y-96700901D01*
X121033372Y-96694937D01*
X120973446Y-96674929D01*
X120871692Y-96649042D01*
X120739228Y-96619970D01*
X120587171Y-96590406D01*
X120541626Y-96582067D01*
X120376845Y-96551707D01*
X120223090Y-96523109D01*
X120095838Y-96499164D01*
X120010562Y-96482760D01*
X119857286Y-96452506D01*
X119857286Y-95814245D01*
X119857320Y-95735765D01*
X119857968Y-95544303D01*
X119859880Y-95401412D01*
X119863629Y-95299789D01*
X119869782Y-95232131D01*
X119878911Y-95191136D01*
X119891587Y-95169500D01*
X119908378Y-95159920D01*
X119924634Y-95156039D01*
X119990908Y-95142310D01*
X120096639Y-95121345D01*
X120231075Y-95095188D01*
X120383462Y-95065883D01*
X120543050Y-95035477D01*
X120699085Y-95006013D01*
X120840817Y-94979537D01*
X120957491Y-94958094D01*
X121038357Y-94943728D01*
X121072663Y-94938485D01*
X121074982Y-94935320D01*
X121093634Y-94894242D01*
X121125913Y-94815644D01*
X121166551Y-94712221D01*
X121222948Y-94572873D01*
X121292374Y-94411826D01*
X121357448Y-94269891D01*
X121372362Y-94238032D01*
X121414207Y-94138269D01*
X121439278Y-94061321D01*
X121442586Y-94021730D01*
X121440880Y-94018925D01*
X121413791Y-93977605D01*
X121360087Y-93897340D01*
X121285037Y-93785950D01*
X121193906Y-93651255D01*
X121091960Y-93501076D01*
X120977090Y-93330451D01*
X120890921Y-93197911D01*
X120832291Y-93100712D01*
X120797810Y-93032834D01*
X120784086Y-92988256D01*
X120787728Y-92960961D01*
X120788954Y-92958913D01*
X120821907Y-92919136D01*
X120889087Y-92846652D01*
X120983579Y-92748646D01*
X121098466Y-92632302D01*
X121226832Y-92504805D01*
X121359991Y-92375421D01*
X121490429Y-92253809D01*
X121586279Y-92171756D01*
X121650026Y-92127160D01*
X121684156Y-92117917D01*
X121688616Y-92119993D01*
X121735581Y-92147985D01*
X121820845Y-92202684D01*
X121936419Y-92278837D01*
X122074314Y-92371192D01*
X122226541Y-92474497D01*
X122722770Y-92813365D01*
X122946867Y-92711656D01*
X122953379Y-92708709D01*
X123090964Y-92649104D01*
X123236927Y-92589822D01*
X123360735Y-92543285D01*
X123361282Y-92543093D01*
X123459574Y-92507097D01*
X123535241Y-92476695D01*
X123571940Y-92458452D01*
X123572534Y-92457790D01*
X123584993Y-92420431D01*
X123605496Y-92335471D01*
X123632067Y-92212069D01*
X123662727Y-92059382D01*
X123695496Y-91886567D01*
X123696638Y-91880374D01*
X123729353Y-91704031D01*
X123759315Y-91544343D01*
X123784585Y-91411505D01*
X123803225Y-91315713D01*
X123813295Y-91267163D01*
X123813939Y-91264473D01*
X123820568Y-91243688D01*
X123834001Y-91228066D01*
X123861606Y-91216870D01*
X123910753Y-91209362D01*
X123988813Y-91204805D01*
X124103154Y-91202463D01*
X124261146Y-91201598D01*
X124470160Y-91201474D01*
X124496422Y-91201474D01*
X124699335Y-91201645D01*
G37*
D10*
X124699335Y-91201645D02*
X124852055Y-91202639D01*
X124961952Y-91205193D01*
X125036395Y-91210045D01*
X125082754Y-91217931D01*
X125108399Y-91229588D01*
X125120699Y-91245753D01*
X125127025Y-91267163D01*
X125127207Y-91267932D01*
X125137601Y-91318263D01*
X125156499Y-91415488D01*
X125181962Y-91549410D01*
X125212050Y-91709835D01*
X125244824Y-91886567D01*
X125247497Y-91901028D01*
X125280170Y-92072559D01*
X125310573Y-92223225D01*
X125336728Y-92343867D01*
X125356656Y-92425329D01*
X125368380Y-92458452D01*
X125368442Y-92458505D01*
X125405389Y-92476829D01*
X125481217Y-92507277D01*
X125579585Y-92543285D01*
X125585125Y-92545240D01*
X125710884Y-92592770D01*
X125857171Y-92652383D01*
X125993453Y-92711656D01*
X126217550Y-92813365D01*
X126713778Y-92474497D01*
X126748730Y-92450663D01*
X126898440Y-92349355D01*
X127032027Y-92260175D01*
X127141503Y-92188373D01*
X127218878Y-92139203D01*
X127256164Y-92117917D01*
X127281712Y-92122796D01*
X127339715Y-92160602D01*
X127429355Y-92235470D01*
X127553117Y-92349503D01*
X127713488Y-92504805D01*
X127727839Y-92518941D01*
X127855093Y-92645599D01*
X127968129Y-92760345D01*
X128060027Y-92855991D01*
X128123867Y-92925346D01*
X128152730Y-92961220D01*
X128152824Y-92961394D01*
X128156491Y-92988706D01*
X128142968Y-93033008D01*
X128108844Y-93100361D01*
X128050708Y-93196826D01*
X127965148Y-93328463D01*
X127848754Y-93501334D01*
X127828919Y-93530512D01*
X127728605Y-93678326D01*
X127640083Y-93809177D01*
X127568625Y-93915243D01*
X127519503Y-93988702D01*
X127497991Y-94021730D01*
X127496368Y-94028726D01*
X127506547Y-94080926D01*
X127537039Y-94166161D01*
X127582872Y-94269891D01*
X127645160Y-94405551D01*
X127714708Y-94566521D01*
X127773769Y-94712221D01*
X127788412Y-94749933D01*
X127826760Y-94846222D01*
X127854930Y-94913304D01*
X127867657Y-94938485D01*
X127881705Y-94940367D01*
X127944841Y-94951251D01*
X128048179Y-94970049D01*
X128180969Y-94994715D01*
X128332457Y-95023204D01*
X128491892Y-95053473D01*
X128648521Y-95083475D01*
X128791593Y-95111166D01*
X128910355Y-95134500D01*
X128994056Y-95151433D01*
X129031942Y-95159920D01*
X129038223Y-95162313D01*
X129053533Y-95175219D01*
X129064923Y-95202696D01*
X129072963Y-95252046D01*
X129078224Y-95330573D01*
X129081276Y-95445580D01*
X129082689Y-95604370D01*
X129083033Y-95814245D01*
X129083033Y-96452506D01*
X128929758Y-96482760D01*
X128911217Y-96486385D01*
X128812756Y-96505169D01*
X128676608Y-96530693D01*
X128518247Y-96560068D01*
X128353148Y-96590406D01*
X128288133Y-96602609D01*
X128142857Y-96632297D01*
X128021786Y-96660370D01*
X127936046Y-96684136D01*
X127896761Y-96700901D01*
X127878959Y-96728294D01*
X127846549Y-96800774D01*
X127813394Y-96894577D01*
X127801724Y-96929703D01*
X127758764Y-97045009D01*
X127703352Y-97181476D01*
X127644513Y-97316554D01*
X127613044Y-97387109D01*
X127568211Y-97492495D01*
X127537400Y-97571418D01*
X127525945Y-97610653D01*
X127526582Y-97613614D01*
X127548310Y-97655239D01*
X127597306Y-97735569D01*
X127668598Y-97846820D01*
X127757214Y-97981205D01*
X127858183Y-98130940D01*
X128190421Y-98618531D01*
X127753931Y-99055749D01*
X127711715Y-99097821D01*
X127582630Y-99223753D01*
X127467267Y-99332354D01*
X127372384Y-99417503D01*
X127304742Y-99473082D01*
X127271098Y-99492968D01*
X127234562Y-99477838D01*
X127158050Y-99434401D01*
X127050356Y-99367870D01*
X126919927Y-99283467D01*
X126775212Y-99186416D01*
X126633070Y-99090564D01*
X126504838Y-99006157D01*
X126400214Y-98939450D01*
X126327331Y-98895624D01*
X126294318Y-98879864D01*
X126292383Y-98880008D01*
X126248529Y-98895545D01*
X126170758Y-98931721D01*
X126074552Y-98981385D01*
X126073541Y-98981929D01*
X125945765Y-99045926D01*
X125858211Y-99077191D01*
X125803886Y-99077277D01*
X125775801Y-99047738D01*
X125763912Y-99018661D01*
X125731828Y-98940788D01*
X125682407Y-98821075D01*
X125618278Y-98665886D01*
X125542071Y-98481584D01*
X125456415Y-98274533D01*
X125363941Y-98051096D01*
X125280122Y-97847826D01*
X125194838Y-97639249D01*
X125119382Y-97452863D01*
X125056286Y-97295007D01*
X125008083Y-97172019D01*
X124977304Y-97090239D01*
X124966482Y-97056006D01*
X124987151Y-97024615D01*
X125044569Y-96972202D01*
X125125848Y-96911304D01*
X125320980Y-96751987D01*
X125495605Y-96548407D01*
X125623395Y-96324408D01*
X125703562Y-96086603D01*
X125735320Y-95841607D01*
X125717882Y-95596033D01*
X125650461Y-95356495D01*
X125532271Y-95129607D01*
X125362524Y-94921983D01*
X125274016Y-94841127D01*
X125061964Y-94698159D01*
X124835065Y-94604952D01*
X124599951Y-94559287D01*
X124363254Y-94558944D01*
X124131606Y-94601705D01*
X123911638Y-94685350D01*
X123709982Y-94807661D01*
X123533271Y-94966417D01*
X123388137Y-95159401D01*
X123281210Y-95384393D01*
X123219124Y-95639175D01*
X123207729Y-95761977D01*
X123223406Y-96028034D01*
X123294006Y-96280456D01*
X123417442Y-96514782D01*
X123591626Y-96726552D01*
X123814471Y-96911304D01*
X123892721Y-96969723D01*
X123951404Y-97022710D01*
X123973838Y-97055956D01*
X123964892Y-97084939D01*
X123935863Y-97162596D01*
X123889186Y-97282051D01*
X123827391Y-97436962D01*
X123753010Y-97620992D01*
X123668572Y-97827800D01*
X123576609Y-98051046D01*
X123492931Y-98253342D01*
X123406526Y-98462286D01*
X123329298Y-98649098D01*
X123263876Y-98807414D01*
X123212891Y-98930869D01*
X123178972Y-99013098D01*
X123164750Y-99047738D01*
X123164585Y-99048148D01*
X123136132Y-99077398D01*
X123081542Y-99077063D01*
X122993769Y-99045580D01*
X122865768Y-98981385D01*
X122855692Y-98975980D01*
X122760641Y-98927350D01*
X122685584Y-98892928D01*
X122646002Y-98879864D01*
X122613560Y-98895302D01*
X122541055Y-98938858D01*
X122436725Y-99005351D01*
X122308699Y-99089598D01*
X122165108Y-99186416D01*
X122023628Y-99281334D01*
X121892771Y-99366090D01*
X121784452Y-99433096D01*
X121707120Y-99477129D01*
X121669222Y-99492968D01*
X121662767Y-99490957D01*
X121617769Y-99459258D01*
X121540887Y-99393781D01*
X121438881Y-99300648D01*
X121318511Y-99185981D01*
X121186539Y-99055900D01*
X120750199Y-98618832D01*
X121429893Y-97619040D01*
X121326562Y-97395486D01*
X121326256Y-97394825D01*
X121264206Y-97252314D01*
X121200800Y-97093618D01*
X121149718Y-96952968D01*
X121141987Y-96930283D01*
X121103012Y-96824970D01*
X121067867Y-96743134D01*
X121043355Y-96700901D01*
X121033372Y-96694937D01*
X120973446Y-96674929D01*
X120871692Y-96649042D01*
X120739228Y-96619970D01*
X120587171Y-96590406D01*
X120541626Y-96582067D01*
X120376845Y-96551707D01*
X120223090Y-96523109D01*
X120095838Y-96499164D01*
X120010562Y-96482760D01*
X119857286Y-96452506D01*
X119857286Y-95814245D01*
X119857320Y-95735765D01*
X119857968Y-95544303D01*
X119859880Y-95401412D01*
X119863629Y-95299789D01*
X119869782Y-95232131D01*
X119878911Y-95191136D01*
X119891587Y-95169500D01*
X119908378Y-95159920D01*
X119924634Y-95156039D01*
X119990908Y-95142310D01*
X120096639Y-95121345D01*
X120231075Y-95095188D01*
X120383462Y-95065883D01*
X120543050Y-95035477D01*
X120699085Y-95006013D01*
X120840817Y-94979537D01*
X120957491Y-94958094D01*
X121038357Y-94943728D01*
X121072663Y-94938485D01*
X121074982Y-94935320D01*
X121093634Y-94894242D01*
X121125913Y-94815644D01*
X121166551Y-94712221D01*
X121222948Y-94572873D01*
X121292374Y-94411826D01*
X121357448Y-94269891D01*
X121372362Y-94238032D01*
X121414207Y-94138269D01*
X121439278Y-94061321D01*
X121442586Y-94021730D01*
X121440880Y-94018925D01*
X121413791Y-93977605D01*
X121360087Y-93897340D01*
X121285037Y-93785950D01*
X121193906Y-93651255D01*
X121091960Y-93501076D01*
X120977090Y-93330451D01*
X120890921Y-93197911D01*
X120832291Y-93100712D01*
X120797810Y-93032834D01*
X120784086Y-92988256D01*
X120787728Y-92960961D01*
X120788954Y-92958913D01*
X120821907Y-92919136D01*
X120889087Y-92846652D01*
X120983579Y-92748646D01*
X121098466Y-92632302D01*
X121226832Y-92504805D01*
X121359991Y-92375421D01*
X121490429Y-92253809D01*
X121586279Y-92171756D01*
X121650026Y-92127160D01*
X121684156Y-92117917D01*
X121688616Y-92119993D01*
X121735581Y-92147985D01*
X121820845Y-92202684D01*
X121936419Y-92278837D01*
X122074314Y-92371192D01*
X122226541Y-92474497D01*
X122722770Y-92813365D01*
X122946867Y-92711656D01*
X122953379Y-92708709D01*
X123090964Y-92649104D01*
X123236927Y-92589822D01*
X123360735Y-92543285D01*
X123361282Y-92543093D01*
X123459574Y-92507097D01*
X123535241Y-92476695D01*
X123571940Y-92458452D01*
X123572534Y-92457790D01*
X123584993Y-92420431D01*
X123605496Y-92335471D01*
X123632067Y-92212069D01*
X123662727Y-92059382D01*
X123695496Y-91886567D01*
X123696638Y-91880374D01*
X123729353Y-91704031D01*
X123759315Y-91544343D01*
X123784585Y-91411505D01*
X123803225Y-91315713D01*
X123813295Y-91267163D01*
X123813939Y-91264473D01*
X123820568Y-91243688D01*
X123834001Y-91228066D01*
X123861606Y-91216870D01*
X123910753Y-91209362D01*
X123988813Y-91204805D01*
X124103154Y-91202463D01*
X124261146Y-91201598D01*
X124470160Y-91201474D01*
X124496422Y-91201474D01*
X124699335Y-91201645D01*
G36*
X180508215Y-91359125D02*
G01*
X180660935Y-91360119D01*
X180770832Y-91362673D01*
X180845275Y-91367525D01*
X180891634Y-91375411D01*
X180917279Y-91387068D01*
X180929579Y-91403233D01*
X180935905Y-91424643D01*
X180936087Y-91425412D01*
X180946481Y-91475743D01*
X180965379Y-91572968D01*
X180990842Y-91706890D01*
X181020930Y-91867315D01*
X181053704Y-92044047D01*
X181056377Y-92058508D01*
X181089050Y-92230039D01*
X181119453Y-92380705D01*
X181145608Y-92501347D01*
X181165536Y-92582809D01*
X181177260Y-92615932D01*
X181177322Y-92615985D01*
X181214269Y-92634309D01*
X181290097Y-92664757D01*
X181388465Y-92700765D01*
X181394005Y-92702720D01*
X181519764Y-92750250D01*
X181666051Y-92809863D01*
X181802333Y-92869136D01*
X182026430Y-92970845D01*
X182522658Y-92631977D01*
X182557610Y-92608143D01*
X182707320Y-92506835D01*
X182840907Y-92417655D01*
X182950383Y-92345853D01*
X183027758Y-92296683D01*
X183065044Y-92275397D01*
X183090592Y-92280276D01*
X183148595Y-92318082D01*
X183238235Y-92392950D01*
X183361997Y-92506983D01*
X183522368Y-92662285D01*
X183536719Y-92676421D01*
X183663973Y-92803079D01*
X183777009Y-92917825D01*
X183868907Y-93013471D01*
X183932747Y-93082826D01*
X183961610Y-93118700D01*
X183961704Y-93118874D01*
X183965371Y-93146186D01*
X183951848Y-93190488D01*
X183917724Y-93257841D01*
X183859588Y-93354306D01*
X183774028Y-93485943D01*
X183657634Y-93658814D01*
X183637799Y-93687992D01*
X183537485Y-93835806D01*
X183448963Y-93966657D01*
X183377505Y-94072723D01*
X183328383Y-94146182D01*
X183306871Y-94179210D01*
X183305248Y-94186206D01*
X183315427Y-94238406D01*
X183345919Y-94323641D01*
X183391752Y-94427371D01*
X183454040Y-94563031D01*
X183523588Y-94724001D01*
X183582649Y-94869701D01*
X183597292Y-94907413D01*
X183635640Y-95003702D01*
X183663810Y-95070784D01*
X183676537Y-95095965D01*
X183690585Y-95097847D01*
X183753721Y-95108731D01*
X183857059Y-95127529D01*
X183989849Y-95152195D01*
X184141337Y-95180684D01*
X184300772Y-95210953D01*
X184457401Y-95240955D01*
X184600473Y-95268646D01*
X184719235Y-95291980D01*
X184802936Y-95308913D01*
X184840822Y-95317400D01*
X184847103Y-95319793D01*
X184862413Y-95332699D01*
X184873803Y-95360176D01*
X184881843Y-95409526D01*
X184887104Y-95488053D01*
X184890156Y-95603060D01*
X184891569Y-95761850D01*
X184891913Y-95971725D01*
X184891913Y-96609986D01*
X184738638Y-96640240D01*
X184720097Y-96643865D01*
X184621636Y-96662649D01*
X184485488Y-96688173D01*
X184327127Y-96717548D01*
X184162028Y-96747886D01*
X184097013Y-96760089D01*
X183951737Y-96789777D01*
X183830666Y-96817850D01*
X183744926Y-96841616D01*
X183705641Y-96858381D01*
X183687839Y-96885774D01*
X183655429Y-96958254D01*
X183622274Y-97052057D01*
X183610604Y-97087183D01*
X183567644Y-97202489D01*
X183512232Y-97338956D01*
X183453393Y-97474034D01*
X183421924Y-97544589D01*
X183377091Y-97649975D01*
X183346280Y-97728898D01*
X183334825Y-97768133D01*
X183335462Y-97771094D01*
X183357190Y-97812719D01*
X183406186Y-97893049D01*
X183477478Y-98004300D01*
X183566094Y-98138685D01*
X183667063Y-98288420D01*
X183999301Y-98776011D01*
X183562811Y-99213229D01*
X183520595Y-99255301D01*
X183391510Y-99381233D01*
X183276147Y-99489834D01*
X183181264Y-99574983D01*
X183113622Y-99630562D01*
X183079978Y-99650448D01*
X183043442Y-99635318D01*
X182966930Y-99591881D01*
X182859236Y-99525350D01*
X182728807Y-99440947D01*
X182584092Y-99343896D01*
X182441950Y-99248044D01*
X182313718Y-99163637D01*
X182209094Y-99096930D01*
X182136211Y-99053104D01*
X182103198Y-99037344D01*
X182101263Y-99037488D01*
X182057409Y-99053025D01*
X181979638Y-99089201D01*
X181883432Y-99138865D01*
X181882421Y-99139409D01*
X181754645Y-99203406D01*
X181667091Y-99234671D01*
X181612766Y-99234757D01*
X181584681Y-99205218D01*
X181572792Y-99176141D01*
X181540708Y-99098268D01*
X181491287Y-98978555D01*
X181427158Y-98823366D01*
X181350951Y-98639064D01*
X181265295Y-98432013D01*
X181172821Y-98208576D01*
X181089002Y-98005306D01*
X181003718Y-97796729D01*
X180928262Y-97610343D01*
X180865166Y-97452487D01*
X180816963Y-97329499D01*
X180786184Y-97247719D01*
X180775362Y-97213486D01*
X180796031Y-97182095D01*
X180853449Y-97129682D01*
X180934728Y-97068784D01*
X181129860Y-96909467D01*
X181304485Y-96705887D01*
X181432275Y-96481888D01*
X181512442Y-96244083D01*
X181544200Y-95999087D01*
X181526762Y-95753513D01*
X181459341Y-95513975D01*
X181341151Y-95287087D01*
X181171404Y-95079463D01*
X181082896Y-94998607D01*
X180870844Y-94855639D01*
X180643945Y-94762432D01*
X180408831Y-94716767D01*
X180172134Y-94716424D01*
X179940486Y-94759185D01*
X179720518Y-94842830D01*
X179518862Y-94965141D01*
X179342151Y-95123897D01*
X179197017Y-95316881D01*
X179090090Y-95541873D01*
X179028004Y-95796655D01*
X179016609Y-95919457D01*
X179032286Y-96185514D01*
X179102886Y-96437936D01*
X179226322Y-96672262D01*
X179400506Y-96884032D01*
X179623351Y-97068784D01*
X179701601Y-97127203D01*
X179760284Y-97180190D01*
X179782718Y-97213436D01*
X179773772Y-97242419D01*
X179744743Y-97320076D01*
X179698066Y-97439531D01*
X179636271Y-97594442D01*
X179561890Y-97778472D01*
X179477452Y-97985280D01*
X179385489Y-98208526D01*
X179301811Y-98410822D01*
X179215406Y-98619766D01*
X179138178Y-98806578D01*
X179072756Y-98964894D01*
X179021771Y-99088349D01*
X178987852Y-99170578D01*
X178973630Y-99205218D01*
X178973465Y-99205628D01*
X178945012Y-99234878D01*
X178890422Y-99234543D01*
X178802649Y-99203060D01*
X178674648Y-99138865D01*
X178664572Y-99133460D01*
X178569521Y-99084830D01*
X178494464Y-99050408D01*
X178454882Y-99037344D01*
X178422440Y-99052782D01*
X178349935Y-99096338D01*
X178245605Y-99162831D01*
X178117579Y-99247078D01*
X177973988Y-99343896D01*
X177832508Y-99438814D01*
X177701651Y-99523570D01*
X177593332Y-99590576D01*
X177516000Y-99634609D01*
X177478102Y-99650448D01*
X177471647Y-99648437D01*
X177426649Y-99616738D01*
X177349767Y-99551261D01*
X177247761Y-99458128D01*
X177127391Y-99343461D01*
X176995419Y-99213380D01*
X176559079Y-98776312D01*
X177238773Y-97776520D01*
X177135442Y-97552966D01*
X177135136Y-97552305D01*
X177073086Y-97409794D01*
X177009680Y-97251098D01*
X176958598Y-97110448D01*
X176950867Y-97087763D01*
X176911892Y-96982450D01*
X176876747Y-96900614D01*
X176852235Y-96858381D01*
X176842252Y-96852417D01*
X176782326Y-96832409D01*
X176680572Y-96806522D01*
X176548108Y-96777450D01*
X176396051Y-96747886D01*
X176350506Y-96739547D01*
X176185725Y-96709187D01*
X176031970Y-96680589D01*
X175904718Y-96656644D01*
X175819442Y-96640240D01*
X175666166Y-96609986D01*
X175666166Y-95971725D01*
X175666200Y-95893245D01*
X175666848Y-95701783D01*
X175668760Y-95558892D01*
X175672509Y-95457269D01*
X175678662Y-95389611D01*
X175687791Y-95348616D01*
X175700467Y-95326980D01*
X175717258Y-95317400D01*
X175733514Y-95313519D01*
X175799788Y-95299790D01*
X175905519Y-95278825D01*
X176039955Y-95252668D01*
X176192342Y-95223363D01*
X176351930Y-95192957D01*
X176507965Y-95163493D01*
X176649697Y-95137017D01*
X176766371Y-95115574D01*
X176847237Y-95101208D01*
X176881543Y-95095965D01*
X176883862Y-95092800D01*
X176902514Y-95051722D01*
X176934793Y-94973124D01*
X176975431Y-94869701D01*
X177031828Y-94730353D01*
X177101254Y-94569306D01*
X177166328Y-94427371D01*
X177181242Y-94395512D01*
X177223087Y-94295749D01*
X177248158Y-94218801D01*
X177251466Y-94179210D01*
X177249760Y-94176405D01*
X177222671Y-94135085D01*
X177168967Y-94054820D01*
X177093917Y-93943430D01*
X177002786Y-93808735D01*
X176900840Y-93658556D01*
X176785970Y-93487931D01*
X176699801Y-93355391D01*
X176641171Y-93258192D01*
X176606690Y-93190314D01*
X176592966Y-93145736D01*
X176596608Y-93118441D01*
X176597834Y-93116393D01*
X176630787Y-93076616D01*
X176697967Y-93004132D01*
X176792459Y-92906126D01*
X176907346Y-92789782D01*
X177035712Y-92662285D01*
X177168871Y-92532901D01*
X177299309Y-92411289D01*
X177395159Y-92329236D01*
X177458906Y-92284640D01*
X177493036Y-92275397D01*
X177497496Y-92277473D01*
X177544461Y-92305465D01*
X177629725Y-92360164D01*
X177745299Y-92436317D01*
X177883194Y-92528672D01*
X178035421Y-92631977D01*
X178531650Y-92970845D01*
X178755747Y-92869136D01*
X178762259Y-92866189D01*
X178899844Y-92806584D01*
X179045807Y-92747302D01*
X179169615Y-92700765D01*
X179170162Y-92700573D01*
X179268454Y-92664577D01*
X179344121Y-92634175D01*
X179380820Y-92615932D01*
X179381414Y-92615270D01*
X179393873Y-92577911D01*
X179414376Y-92492951D01*
X179440947Y-92369549D01*
X179471607Y-92216862D01*
X179504376Y-92044047D01*
X179505518Y-92037854D01*
X179538233Y-91861511D01*
X179568195Y-91701823D01*
X179593465Y-91568985D01*
X179612105Y-91473193D01*
X179622175Y-91424643D01*
X179622819Y-91421953D01*
X179629448Y-91401168D01*
X179642881Y-91385546D01*
X179670486Y-91374350D01*
X179719633Y-91366842D01*
X179797693Y-91362285D01*
X179912034Y-91359943D01*
X180070026Y-91359078D01*
X180279040Y-91358954D01*
X180305302Y-91358954D01*
X180508215Y-91359125D01*
G37*
X180508215Y-91359125D02*
X180660935Y-91360119D01*
X180770832Y-91362673D01*
X180845275Y-91367525D01*
X180891634Y-91375411D01*
X180917279Y-91387068D01*
X180929579Y-91403233D01*
X180935905Y-91424643D01*
X180936087Y-91425412D01*
X180946481Y-91475743D01*
X180965379Y-91572968D01*
X180990842Y-91706890D01*
X181020930Y-91867315D01*
X181053704Y-92044047D01*
X181056377Y-92058508D01*
X181089050Y-92230039D01*
X181119453Y-92380705D01*
X181145608Y-92501347D01*
X181165536Y-92582809D01*
X181177260Y-92615932D01*
X181177322Y-92615985D01*
X181214269Y-92634309D01*
X181290097Y-92664757D01*
X181388465Y-92700765D01*
X181394005Y-92702720D01*
X181519764Y-92750250D01*
X181666051Y-92809863D01*
X181802333Y-92869136D01*
X182026430Y-92970845D01*
X182522658Y-92631977D01*
X182557610Y-92608143D01*
X182707320Y-92506835D01*
X182840907Y-92417655D01*
X182950383Y-92345853D01*
X183027758Y-92296683D01*
X183065044Y-92275397D01*
X183090592Y-92280276D01*
X183148595Y-92318082D01*
X183238235Y-92392950D01*
X183361997Y-92506983D01*
X183522368Y-92662285D01*
X183536719Y-92676421D01*
X183663973Y-92803079D01*
X183777009Y-92917825D01*
X183868907Y-93013471D01*
X183932747Y-93082826D01*
X183961610Y-93118700D01*
X183961704Y-93118874D01*
X183965371Y-93146186D01*
X183951848Y-93190488D01*
X183917724Y-93257841D01*
X183859588Y-93354306D01*
X183774028Y-93485943D01*
X183657634Y-93658814D01*
X183637799Y-93687992D01*
X183537485Y-93835806D01*
X183448963Y-93966657D01*
X183377505Y-94072723D01*
X183328383Y-94146182D01*
X183306871Y-94179210D01*
X183305248Y-94186206D01*
X183315427Y-94238406D01*
X183345919Y-94323641D01*
X183391752Y-94427371D01*
X183454040Y-94563031D01*
X183523588Y-94724001D01*
X183582649Y-94869701D01*
X183597292Y-94907413D01*
X183635640Y-95003702D01*
X183663810Y-95070784D01*
X183676537Y-95095965D01*
X183690585Y-95097847D01*
X183753721Y-95108731D01*
X183857059Y-95127529D01*
X183989849Y-95152195D01*
X184141337Y-95180684D01*
X184300772Y-95210953D01*
X184457401Y-95240955D01*
X184600473Y-95268646D01*
X184719235Y-95291980D01*
X184802936Y-95308913D01*
X184840822Y-95317400D01*
X184847103Y-95319793D01*
X184862413Y-95332699D01*
X184873803Y-95360176D01*
X184881843Y-95409526D01*
X184887104Y-95488053D01*
X184890156Y-95603060D01*
X184891569Y-95761850D01*
X184891913Y-95971725D01*
X184891913Y-96609986D01*
X184738638Y-96640240D01*
X184720097Y-96643865D01*
X184621636Y-96662649D01*
X184485488Y-96688173D01*
X184327127Y-96717548D01*
X184162028Y-96747886D01*
X184097013Y-96760089D01*
X183951737Y-96789777D01*
X183830666Y-96817850D01*
X183744926Y-96841616D01*
X183705641Y-96858381D01*
X183687839Y-96885774D01*
X183655429Y-96958254D01*
X183622274Y-97052057D01*
X183610604Y-97087183D01*
X183567644Y-97202489D01*
X183512232Y-97338956D01*
X183453393Y-97474034D01*
X183421924Y-97544589D01*
X183377091Y-97649975D01*
X183346280Y-97728898D01*
X183334825Y-97768133D01*
X183335462Y-97771094D01*
X183357190Y-97812719D01*
X183406186Y-97893049D01*
X183477478Y-98004300D01*
X183566094Y-98138685D01*
X183667063Y-98288420D01*
X183999301Y-98776011D01*
X183562811Y-99213229D01*
X183520595Y-99255301D01*
X183391510Y-99381233D01*
X183276147Y-99489834D01*
X183181264Y-99574983D01*
X183113622Y-99630562D01*
X183079978Y-99650448D01*
X183043442Y-99635318D01*
X182966930Y-99591881D01*
X182859236Y-99525350D01*
X182728807Y-99440947D01*
X182584092Y-99343896D01*
X182441950Y-99248044D01*
X182313718Y-99163637D01*
X182209094Y-99096930D01*
X182136211Y-99053104D01*
X182103198Y-99037344D01*
X182101263Y-99037488D01*
X182057409Y-99053025D01*
X181979638Y-99089201D01*
X181883432Y-99138865D01*
X181882421Y-99139409D01*
X181754645Y-99203406D01*
X181667091Y-99234671D01*
X181612766Y-99234757D01*
X181584681Y-99205218D01*
X181572792Y-99176141D01*
X181540708Y-99098268D01*
X181491287Y-98978555D01*
X181427158Y-98823366D01*
X181350951Y-98639064D01*
X181265295Y-98432013D01*
X181172821Y-98208576D01*
X181089002Y-98005306D01*
X181003718Y-97796729D01*
X180928262Y-97610343D01*
X180865166Y-97452487D01*
X180816963Y-97329499D01*
X180786184Y-97247719D01*
X180775362Y-97213486D01*
X180796031Y-97182095D01*
X180853449Y-97129682D01*
X180934728Y-97068784D01*
X181129860Y-96909467D01*
X181304485Y-96705887D01*
X181432275Y-96481888D01*
X181512442Y-96244083D01*
X181544200Y-95999087D01*
X181526762Y-95753513D01*
X181459341Y-95513975D01*
X181341151Y-95287087D01*
X181171404Y-95079463D01*
X181082896Y-94998607D01*
X180870844Y-94855639D01*
X180643945Y-94762432D01*
X180408831Y-94716767D01*
X180172134Y-94716424D01*
X179940486Y-94759185D01*
X179720518Y-94842830D01*
X179518862Y-94965141D01*
X179342151Y-95123897D01*
X179197017Y-95316881D01*
X179090090Y-95541873D01*
X179028004Y-95796655D01*
X179016609Y-95919457D01*
X179032286Y-96185514D01*
X179102886Y-96437936D01*
X179226322Y-96672262D01*
X179400506Y-96884032D01*
X179623351Y-97068784D01*
X179701601Y-97127203D01*
X179760284Y-97180190D01*
X179782718Y-97213436D01*
X179773772Y-97242419D01*
X179744743Y-97320076D01*
X179698066Y-97439531D01*
X179636271Y-97594442D01*
X179561890Y-97778472D01*
X179477452Y-97985280D01*
X179385489Y-98208526D01*
X179301811Y-98410822D01*
X179215406Y-98619766D01*
X179138178Y-98806578D01*
X179072756Y-98964894D01*
X179021771Y-99088349D01*
X178987852Y-99170578D01*
X178973630Y-99205218D01*
X178973465Y-99205628D01*
X178945012Y-99234878D01*
X178890422Y-99234543D01*
X178802649Y-99203060D01*
X178674648Y-99138865D01*
X178664572Y-99133460D01*
X178569521Y-99084830D01*
X178494464Y-99050408D01*
X178454882Y-99037344D01*
X178422440Y-99052782D01*
X178349935Y-99096338D01*
X178245605Y-99162831D01*
X178117579Y-99247078D01*
X177973988Y-99343896D01*
X177832508Y-99438814D01*
X177701651Y-99523570D01*
X177593332Y-99590576D01*
X177516000Y-99634609D01*
X177478102Y-99650448D01*
X177471647Y-99648437D01*
X177426649Y-99616738D01*
X177349767Y-99551261D01*
X177247761Y-99458128D01*
X177127391Y-99343461D01*
X176995419Y-99213380D01*
X176559079Y-98776312D01*
X177238773Y-97776520D01*
X177135442Y-97552966D01*
X177135136Y-97552305D01*
X177073086Y-97409794D01*
X177009680Y-97251098D01*
X176958598Y-97110448D01*
X176950867Y-97087763D01*
X176911892Y-96982450D01*
X176876747Y-96900614D01*
X176852235Y-96858381D01*
X176842252Y-96852417D01*
X176782326Y-96832409D01*
X176680572Y-96806522D01*
X176548108Y-96777450D01*
X176396051Y-96747886D01*
X176350506Y-96739547D01*
X176185725Y-96709187D01*
X176031970Y-96680589D01*
X175904718Y-96656644D01*
X175819442Y-96640240D01*
X175666166Y-96609986D01*
X175666166Y-95971725D01*
X175666200Y-95893245D01*
X175666848Y-95701783D01*
X175668760Y-95558892D01*
X175672509Y-95457269D01*
X175678662Y-95389611D01*
X175687791Y-95348616D01*
X175700467Y-95326980D01*
X175717258Y-95317400D01*
X175733514Y-95313519D01*
X175799788Y-95299790D01*
X175905519Y-95278825D01*
X176039955Y-95252668D01*
X176192342Y-95223363D01*
X176351930Y-95192957D01*
X176507965Y-95163493D01*
X176649697Y-95137017D01*
X176766371Y-95115574D01*
X176847237Y-95101208D01*
X176881543Y-95095965D01*
X176883862Y-95092800D01*
X176902514Y-95051722D01*
X176934793Y-94973124D01*
X176975431Y-94869701D01*
X177031828Y-94730353D01*
X177101254Y-94569306D01*
X177166328Y-94427371D01*
X177181242Y-94395512D01*
X177223087Y-94295749D01*
X177248158Y-94218801D01*
X177251466Y-94179210D01*
X177249760Y-94176405D01*
X177222671Y-94135085D01*
X177168967Y-94054820D01*
X177093917Y-93943430D01*
X177002786Y-93808735D01*
X176900840Y-93658556D01*
X176785970Y-93487931D01*
X176699801Y-93355391D01*
X176641171Y-93258192D01*
X176606690Y-93190314D01*
X176592966Y-93145736D01*
X176596608Y-93118441D01*
X176597834Y-93116393D01*
X176630787Y-93076616D01*
X176697967Y-93004132D01*
X176792459Y-92906126D01*
X176907346Y-92789782D01*
X177035712Y-92662285D01*
X177168871Y-92532901D01*
X177299309Y-92411289D01*
X177395159Y-92329236D01*
X177458906Y-92284640D01*
X177493036Y-92275397D01*
X177497496Y-92277473D01*
X177544461Y-92305465D01*
X177629725Y-92360164D01*
X177745299Y-92436317D01*
X177883194Y-92528672D01*
X178035421Y-92631977D01*
X178531650Y-92970845D01*
X178755747Y-92869136D01*
X178762259Y-92866189D01*
X178899844Y-92806584D01*
X179045807Y-92747302D01*
X179169615Y-92700765D01*
X179170162Y-92700573D01*
X179268454Y-92664577D01*
X179344121Y-92634175D01*
X179380820Y-92615932D01*
X179381414Y-92615270D01*
X179393873Y-92577911D01*
X179414376Y-92492951D01*
X179440947Y-92369549D01*
X179471607Y-92216862D01*
X179504376Y-92044047D01*
X179505518Y-92037854D01*
X179538233Y-91861511D01*
X179568195Y-91701823D01*
X179593465Y-91568985D01*
X179612105Y-91473193D01*
X179622175Y-91424643D01*
X179622819Y-91421953D01*
X179629448Y-91401168D01*
X179642881Y-91385546D01*
X179670486Y-91374350D01*
X179719633Y-91366842D01*
X179797693Y-91362285D01*
X179912034Y-91359943D01*
X180070026Y-91359078D01*
X180279040Y-91358954D01*
X180305302Y-91358954D01*
X180508215Y-91359125D01*
G04 #@! TA.AperFunction,SMDPad,CuDef*
G36*
G01*
X153665341Y-97164960D02*
X152765339Y-97164960D01*
G75*
G02*
X152515340Y-96914961I0J249999D01*
G01*
X152515340Y-96264959D01*
G75*
G02*
X152765339Y-96014960I249999J0D01*
G01*
X153665341Y-96014960D01*
G75*
G02*
X153915340Y-96264959I0J-249999D01*
G01*
X153915340Y-96914961D01*
G75*
G02*
X153665341Y-97164960I-249999J0D01*
G01*
G37*
G04 #@! TD.AperFunction*
G04 #@! TA.AperFunction,SMDPad,CuDef*
G36*
G01*
X153665341Y-95114960D02*
X152765339Y-95114960D01*
G75*
G02*
X152515340Y-94864961I0J249999D01*
G01*
X152515340Y-94214959D01*
G75*
G02*
X152765339Y-93964960I249999J0D01*
G01*
X153665341Y-93964960D01*
G75*
G02*
X153915340Y-94214959I0J-249999D01*
G01*
X153915340Y-94864961D01*
G75*
G02*
X153665341Y-95114960I-249999J0D01*
G01*
G37*
G04 #@! TD.AperFunction*
D11*
X154619960Y-94056200D03*
D12*
X153907236Y-99049854D02*
X153215340Y-96589960D01*
X153940393Y-99151817D02*
X153907236Y-99049854D01*
X153981637Y-99250786D02*
X153940393Y-99151817D01*
X154030700Y-99346121D02*
X153981637Y-99250786D01*
X154087266Y-99437205D02*
X154030700Y-99346121D01*
X154150967Y-99523449D02*
X154087266Y-99437205D01*
X154221393Y-99604295D02*
X154150967Y-99523449D01*
X154298087Y-99679221D02*
X154221393Y-99604295D01*
X154380555Y-99747742D02*
X154298087Y-99679221D01*
X154468261Y-99809414D02*
X154380555Y-99747742D01*
X154560640Y-99863840D02*
X154468261Y-99809414D01*
X154657093Y-99910666D02*
X154560640Y-99863840D01*
X154756997Y-99949590D02*
X154657093Y-99910666D01*
X154859706Y-99980361D02*
X154756997Y-99949590D01*
X154964555Y-100002778D02*
X154859706Y-99980361D01*
X155070867Y-100016698D02*
X154964555Y-100002778D01*
X155177954Y-100022032D02*
X155070867Y-100016698D01*
X155177954Y-100022032D02*
X157157396Y-100040902D01*
X167003183Y-96134668D02*
X167116926Y-96094346D01*
X166891148Y-96179516D02*
X167003183Y-96134668D01*
X165560797Y-97064549D02*
X166264632Y-96539105D01*
X167704772Y-95962620D02*
X167824845Y-95950548D01*
X166780999Y-96228817D02*
X166891148Y-96179516D01*
X166567067Y-96340454D02*
X166672914Y-96282491D01*
X165070172Y-97415718D02*
X165560797Y-97064549D01*
X166672914Y-96282491D02*
X166780999Y-96228817D01*
X166362761Y-96468863D02*
X166463627Y-96402611D01*
X159551108Y-99752885D02*
X160139911Y-99621191D01*
X166264632Y-96539105D02*
X166362761Y-96468863D01*
X167466558Y-96001141D02*
X167585279Y-95979493D01*
X164565858Y-97746928D02*
X165070172Y-97415718D01*
X164048666Y-98057644D02*
X164565858Y-97746928D01*
X160139911Y-99621191D02*
X160722958Y-99465987D01*
X163519428Y-98347367D02*
X164048666Y-98057644D01*
X166463627Y-96402611D02*
X166567067Y-96340454D01*
X167348799Y-96027529D02*
X167466558Y-96001141D01*
X167232193Y-96058614D02*
X167348799Y-96027529D01*
X167116926Y-96094346D02*
X167232193Y-96058614D01*
X160722958Y-99465987D02*
X161299312Y-99287523D01*
X161299312Y-99287523D02*
X161868044Y-99086087D01*
X157157396Y-100040902D02*
X157759677Y-100004982D01*
X157759677Y-100004982D02*
X158360033Y-99944935D01*
X158957497Y-99860858D02*
X159551108Y-99752885D01*
X162978996Y-98615631D02*
X163519428Y-98347367D01*
X162428239Y-98862003D02*
X162978996Y-98615631D01*
X161868044Y-99086087D02*
X162428239Y-98862003D01*
X158360033Y-99944935D02*
X158957497Y-99860858D01*
X167585279Y-95979493D02*
X167704772Y-95962620D01*
X167824845Y-95950548D02*
X167945305Y-95943297D01*
X167945305Y-95943297D02*
X168065960Y-95940880D01*
X168065960Y-95940880D02*
X177190400Y-95940880D01*
D13*
X153215340Y-94539960D02*
X153217880Y-93695520D01*
X153217880Y-93695520D02*
X154025600Y-93700600D01*
X154025600Y-93700600D02*
X154619960Y-94056200D01*
M02*
