G04 #@! TF.GenerationSoftware,KiCad,Pcbnew,(5.99.0-1716-g4efed4b72)*
G04 #@! TF.CreationDate,2020-05-21T15:21:06+02:00*
G04 #@! TF.ProjectId,flex-strip-tester-v8,666c6578-2d73-4747-9269-702d74657374,rev?*
G04 #@! TF.SameCoordinates,Original*
G04 #@! TF.FileFunction,Soldermask,Bot*
G04 #@! TF.FilePolarity,Negative*
%FSLAX46Y46*%
G04 Gerber Fmt 4.6, Leading zero omitted, Abs format (unit mm)*
G04 Created by KiCad (PCBNEW (5.99.0-1716-g4efed4b72)) date 2020-05-21 15:21:06*
%MOMM*%
%LPD*%
G01*
G04 APERTURE LIST*
%ADD10C,0.010000*%
G04 APERTURE END LIST*
G36*
X124689175Y-91201645D02*
G01*
X124841895Y-91202639D01*
X124951792Y-91205193D01*
X125026235Y-91210045D01*
X125072594Y-91217931D01*
X125098239Y-91229588D01*
X125110539Y-91245753D01*
X125116865Y-91267163D01*
X125117047Y-91267932D01*
X125127441Y-91318263D01*
X125146339Y-91415488D01*
X125171802Y-91549410D01*
X125201890Y-91709835D01*
X125234664Y-91886567D01*
X125237337Y-91901028D01*
X125270010Y-92072559D01*
X125300413Y-92223225D01*
X125326568Y-92343867D01*
X125346496Y-92425329D01*
X125358220Y-92458452D01*
X125358282Y-92458505D01*
X125395229Y-92476829D01*
X125471057Y-92507277D01*
X125569425Y-92543285D01*
X125574965Y-92545240D01*
X125700724Y-92592770D01*
X125847011Y-92652383D01*
X125983293Y-92711656D01*
X126207390Y-92813365D01*
X126703618Y-92474497D01*
X126738570Y-92450663D01*
X126888280Y-92349355D01*
X127021867Y-92260175D01*
X127131343Y-92188373D01*
X127208718Y-92139203D01*
X127246004Y-92117917D01*
X127271552Y-92122796D01*
X127329555Y-92160602D01*
X127419195Y-92235470D01*
X127542957Y-92349503D01*
X127703328Y-92504805D01*
X127717679Y-92518941D01*
X127844933Y-92645599D01*
X127957969Y-92760345D01*
X128049867Y-92855991D01*
X128113707Y-92925346D01*
X128142570Y-92961220D01*
X128142664Y-92961394D01*
X128146331Y-92988706D01*
X128132808Y-93033008D01*
X128098684Y-93100361D01*
X128040548Y-93196826D01*
X127954988Y-93328463D01*
X127838594Y-93501334D01*
X127818759Y-93530512D01*
X127718445Y-93678326D01*
X127629923Y-93809177D01*
X127558465Y-93915243D01*
X127509343Y-93988702D01*
X127487831Y-94021730D01*
X127486208Y-94028726D01*
X127496387Y-94080926D01*
X127526879Y-94166161D01*
X127572712Y-94269891D01*
X127635000Y-94405551D01*
X127704548Y-94566521D01*
X127763609Y-94712221D01*
X127778252Y-94749933D01*
X127816600Y-94846222D01*
X127844770Y-94913304D01*
X127857497Y-94938485D01*
X127871545Y-94940367D01*
X127934681Y-94951251D01*
X128038019Y-94970049D01*
X128170809Y-94994715D01*
X128322297Y-95023204D01*
X128481732Y-95053473D01*
X128638361Y-95083475D01*
X128781433Y-95111166D01*
X128900195Y-95134500D01*
X128983896Y-95151433D01*
X129021782Y-95159920D01*
X129028063Y-95162313D01*
X129043373Y-95175219D01*
X129054763Y-95202696D01*
X129062803Y-95252046D01*
X129068064Y-95330573D01*
X129071116Y-95445580D01*
X129072529Y-95604370D01*
X129072873Y-95814245D01*
X129072873Y-96452506D01*
X128919598Y-96482760D01*
X128901057Y-96486385D01*
X128802596Y-96505169D01*
X128666448Y-96530693D01*
X128508087Y-96560068D01*
X128342988Y-96590406D01*
X128277973Y-96602609D01*
X128132697Y-96632297D01*
X128011626Y-96660370D01*
X127925886Y-96684136D01*
X127886601Y-96700901D01*
X127868799Y-96728294D01*
X127836389Y-96800774D01*
X127803234Y-96894577D01*
X127791564Y-96929703D01*
X127748604Y-97045009D01*
X127693192Y-97181476D01*
X127634353Y-97316554D01*
X127602884Y-97387109D01*
X127558051Y-97492495D01*
X127527240Y-97571418D01*
X127515785Y-97610653D01*
X127516422Y-97613614D01*
X127538150Y-97655239D01*
X127587146Y-97735569D01*
X127658438Y-97846820D01*
X127747054Y-97981205D01*
X127848023Y-98130940D01*
X128180261Y-98618531D01*
X127743771Y-99055749D01*
X127701555Y-99097821D01*
X127572470Y-99223753D01*
X127457107Y-99332354D01*
X127362224Y-99417503D01*
X127294582Y-99473082D01*
X127260938Y-99492968D01*
X127224402Y-99477838D01*
X127147890Y-99434401D01*
X127040196Y-99367870D01*
X126909767Y-99283467D01*
X126765052Y-99186416D01*
X126622910Y-99090564D01*
X126494678Y-99006157D01*
X126390054Y-98939450D01*
X126317171Y-98895624D01*
X126284158Y-98879864D01*
X126282223Y-98880008D01*
X126238369Y-98895545D01*
X126160598Y-98931721D01*
X126064392Y-98981385D01*
X126063381Y-98981929D01*
X125935605Y-99045926D01*
X125848051Y-99077191D01*
X125793726Y-99077277D01*
X125765641Y-99047738D01*
X125753752Y-99018661D01*
X125721668Y-98940788D01*
X125672247Y-98821075D01*
X125608118Y-98665886D01*
X125531911Y-98481584D01*
X125446255Y-98274533D01*
X125353781Y-98051096D01*
X125269962Y-97847826D01*
X125184678Y-97639249D01*
X125109222Y-97452863D01*
X125046126Y-97295007D01*
X124997923Y-97172019D01*
X124967144Y-97090239D01*
X124956322Y-97056006D01*
X124976991Y-97024615D01*
X125034409Y-96972202D01*
X125115688Y-96911304D01*
X125310820Y-96751987D01*
X125485445Y-96548407D01*
X125613235Y-96324408D01*
X125693402Y-96086603D01*
X125725160Y-95841607D01*
X125707722Y-95596033D01*
X125640301Y-95356495D01*
X125522111Y-95129607D01*
X125352364Y-94921983D01*
X125263856Y-94841127D01*
X125051804Y-94698159D01*
X124824905Y-94604952D01*
X124589791Y-94559287D01*
X124353094Y-94558944D01*
X124121446Y-94601705D01*
X123901478Y-94685350D01*
X123699822Y-94807661D01*
X123523111Y-94966417D01*
X123377977Y-95159401D01*
X123271050Y-95384393D01*
X123208964Y-95639175D01*
X123197569Y-95761977D01*
X123213246Y-96028034D01*
X123283846Y-96280456D01*
X123407282Y-96514782D01*
X123581466Y-96726552D01*
X123804311Y-96911304D01*
X123882561Y-96969723D01*
X123941244Y-97022710D01*
X123963678Y-97055956D01*
X123954732Y-97084939D01*
X123925703Y-97162596D01*
X123879026Y-97282051D01*
X123817231Y-97436962D01*
X123742850Y-97620992D01*
X123658412Y-97827800D01*
X123566449Y-98051046D01*
X123482771Y-98253342D01*
X123396366Y-98462286D01*
X123319138Y-98649098D01*
X123253716Y-98807414D01*
X123202731Y-98930869D01*
X123168812Y-99013098D01*
X123154590Y-99047738D01*
X123154425Y-99048148D01*
X123125972Y-99077398D01*
X123071382Y-99077063D01*
X122983609Y-99045580D01*
X122855608Y-98981385D01*
X122845532Y-98975980D01*
X122750481Y-98927350D01*
X122675424Y-98892928D01*
X122635842Y-98879864D01*
X122603400Y-98895302D01*
X122530895Y-98938858D01*
X122426565Y-99005351D01*
X122298539Y-99089598D01*
X122154948Y-99186416D01*
X122013468Y-99281334D01*
X121882611Y-99366090D01*
X121774292Y-99433096D01*
X121696960Y-99477129D01*
X121659062Y-99492968D01*
X121652607Y-99490957D01*
X121607609Y-99459258D01*
X121530727Y-99393781D01*
X121428721Y-99300648D01*
X121308351Y-99185981D01*
X121176379Y-99055900D01*
X120740039Y-98618832D01*
X121419733Y-97619040D01*
X121316402Y-97395486D01*
X121316096Y-97394825D01*
X121254046Y-97252314D01*
X121190640Y-97093618D01*
X121139558Y-96952968D01*
X121131827Y-96930283D01*
X121092852Y-96824970D01*
X121057707Y-96743134D01*
X121033195Y-96700901D01*
X121023212Y-96694937D01*
X120963286Y-96674929D01*
X120861532Y-96649042D01*
X120729068Y-96619970D01*
X120577011Y-96590406D01*
X120531466Y-96582067D01*
X120366685Y-96551707D01*
X120212930Y-96523109D01*
X120085678Y-96499164D01*
X120000402Y-96482760D01*
X119847126Y-96452506D01*
X119847126Y-95814245D01*
X119847160Y-95735765D01*
X119847808Y-95544303D01*
X119849720Y-95401412D01*
X119853469Y-95299789D01*
X119859622Y-95232131D01*
X119868751Y-95191136D01*
X119881427Y-95169500D01*
X119898218Y-95159920D01*
X119914474Y-95156039D01*
X119980748Y-95142310D01*
X120086479Y-95121345D01*
X120220915Y-95095188D01*
X120373302Y-95065883D01*
X120532890Y-95035477D01*
X120688925Y-95006013D01*
X120830657Y-94979537D01*
X120947331Y-94958094D01*
X121028197Y-94943728D01*
X121062503Y-94938485D01*
X121064822Y-94935320D01*
X121083474Y-94894242D01*
X121115753Y-94815644D01*
X121156391Y-94712221D01*
X121212788Y-94572873D01*
X121282214Y-94411826D01*
X121347288Y-94269891D01*
X121362202Y-94238032D01*
X121404047Y-94138269D01*
X121429118Y-94061321D01*
X121432426Y-94021730D01*
X121430720Y-94018925D01*
X121403631Y-93977605D01*
X121349927Y-93897340D01*
X121274877Y-93785950D01*
X121183746Y-93651255D01*
X121081800Y-93501076D01*
X120966930Y-93330451D01*
X120880761Y-93197911D01*
X120822131Y-93100712D01*
X120787650Y-93032834D01*
X120773926Y-92988256D01*
X120777568Y-92960961D01*
X120778794Y-92958913D01*
X120811747Y-92919136D01*
X120878927Y-92846652D01*
X120973419Y-92748646D01*
X121088306Y-92632302D01*
X121216672Y-92504805D01*
X121349831Y-92375421D01*
X121480269Y-92253809D01*
X121576119Y-92171756D01*
X121639866Y-92127160D01*
X121673996Y-92117917D01*
X121678456Y-92119993D01*
X121725421Y-92147985D01*
X121810685Y-92202684D01*
X121926259Y-92278837D01*
X122064154Y-92371192D01*
X122216381Y-92474497D01*
X122712610Y-92813365D01*
X122936707Y-92711656D01*
X122943219Y-92708709D01*
X123080804Y-92649104D01*
X123226767Y-92589822D01*
X123350575Y-92543285D01*
X123351122Y-92543093D01*
X123449414Y-92507097D01*
X123525081Y-92476695D01*
X123561780Y-92458452D01*
X123562374Y-92457790D01*
X123574833Y-92420431D01*
X123595336Y-92335471D01*
X123621907Y-92212069D01*
X123652567Y-92059382D01*
X123685336Y-91886567D01*
X123686478Y-91880374D01*
X123719193Y-91704031D01*
X123749155Y-91544343D01*
X123774425Y-91411505D01*
X123793065Y-91315713D01*
X123803135Y-91267163D01*
X123803779Y-91264473D01*
X123810408Y-91243688D01*
X123823841Y-91228066D01*
X123851446Y-91216870D01*
X123900593Y-91209362D01*
X123978653Y-91204805D01*
X124092994Y-91202463D01*
X124250986Y-91201598D01*
X124460000Y-91201474D01*
X124486262Y-91201474D01*
X124689175Y-91201645D01*
G37*
D10*
X124689175Y-91201645D02*
X124841895Y-91202639D01*
X124951792Y-91205193D01*
X125026235Y-91210045D01*
X125072594Y-91217931D01*
X125098239Y-91229588D01*
X125110539Y-91245753D01*
X125116865Y-91267163D01*
X125117047Y-91267932D01*
X125127441Y-91318263D01*
X125146339Y-91415488D01*
X125171802Y-91549410D01*
X125201890Y-91709835D01*
X125234664Y-91886567D01*
X125237337Y-91901028D01*
X125270010Y-92072559D01*
X125300413Y-92223225D01*
X125326568Y-92343867D01*
X125346496Y-92425329D01*
X125358220Y-92458452D01*
X125358282Y-92458505D01*
X125395229Y-92476829D01*
X125471057Y-92507277D01*
X125569425Y-92543285D01*
X125574965Y-92545240D01*
X125700724Y-92592770D01*
X125847011Y-92652383D01*
X125983293Y-92711656D01*
X126207390Y-92813365D01*
X126703618Y-92474497D01*
X126738570Y-92450663D01*
X126888280Y-92349355D01*
X127021867Y-92260175D01*
X127131343Y-92188373D01*
X127208718Y-92139203D01*
X127246004Y-92117917D01*
X127271552Y-92122796D01*
X127329555Y-92160602D01*
X127419195Y-92235470D01*
X127542957Y-92349503D01*
X127703328Y-92504805D01*
X127717679Y-92518941D01*
X127844933Y-92645599D01*
X127957969Y-92760345D01*
X128049867Y-92855991D01*
X128113707Y-92925346D01*
X128142570Y-92961220D01*
X128142664Y-92961394D01*
X128146331Y-92988706D01*
X128132808Y-93033008D01*
X128098684Y-93100361D01*
X128040548Y-93196826D01*
X127954988Y-93328463D01*
X127838594Y-93501334D01*
X127818759Y-93530512D01*
X127718445Y-93678326D01*
X127629923Y-93809177D01*
X127558465Y-93915243D01*
X127509343Y-93988702D01*
X127487831Y-94021730D01*
X127486208Y-94028726D01*
X127496387Y-94080926D01*
X127526879Y-94166161D01*
X127572712Y-94269891D01*
X127635000Y-94405551D01*
X127704548Y-94566521D01*
X127763609Y-94712221D01*
X127778252Y-94749933D01*
X127816600Y-94846222D01*
X127844770Y-94913304D01*
X127857497Y-94938485D01*
X127871545Y-94940367D01*
X127934681Y-94951251D01*
X128038019Y-94970049D01*
X128170809Y-94994715D01*
X128322297Y-95023204D01*
X128481732Y-95053473D01*
X128638361Y-95083475D01*
X128781433Y-95111166D01*
X128900195Y-95134500D01*
X128983896Y-95151433D01*
X129021782Y-95159920D01*
X129028063Y-95162313D01*
X129043373Y-95175219D01*
X129054763Y-95202696D01*
X129062803Y-95252046D01*
X129068064Y-95330573D01*
X129071116Y-95445580D01*
X129072529Y-95604370D01*
X129072873Y-95814245D01*
X129072873Y-96452506D01*
X128919598Y-96482760D01*
X128901057Y-96486385D01*
X128802596Y-96505169D01*
X128666448Y-96530693D01*
X128508087Y-96560068D01*
X128342988Y-96590406D01*
X128277973Y-96602609D01*
X128132697Y-96632297D01*
X128011626Y-96660370D01*
X127925886Y-96684136D01*
X127886601Y-96700901D01*
X127868799Y-96728294D01*
X127836389Y-96800774D01*
X127803234Y-96894577D01*
X127791564Y-96929703D01*
X127748604Y-97045009D01*
X127693192Y-97181476D01*
X127634353Y-97316554D01*
X127602884Y-97387109D01*
X127558051Y-97492495D01*
X127527240Y-97571418D01*
X127515785Y-97610653D01*
X127516422Y-97613614D01*
X127538150Y-97655239D01*
X127587146Y-97735569D01*
X127658438Y-97846820D01*
X127747054Y-97981205D01*
X127848023Y-98130940D01*
X128180261Y-98618531D01*
X127743771Y-99055749D01*
X127701555Y-99097821D01*
X127572470Y-99223753D01*
X127457107Y-99332354D01*
X127362224Y-99417503D01*
X127294582Y-99473082D01*
X127260938Y-99492968D01*
X127224402Y-99477838D01*
X127147890Y-99434401D01*
X127040196Y-99367870D01*
X126909767Y-99283467D01*
X126765052Y-99186416D01*
X126622910Y-99090564D01*
X126494678Y-99006157D01*
X126390054Y-98939450D01*
X126317171Y-98895624D01*
X126284158Y-98879864D01*
X126282223Y-98880008D01*
X126238369Y-98895545D01*
X126160598Y-98931721D01*
X126064392Y-98981385D01*
X126063381Y-98981929D01*
X125935605Y-99045926D01*
X125848051Y-99077191D01*
X125793726Y-99077277D01*
X125765641Y-99047738D01*
X125753752Y-99018661D01*
X125721668Y-98940788D01*
X125672247Y-98821075D01*
X125608118Y-98665886D01*
X125531911Y-98481584D01*
X125446255Y-98274533D01*
X125353781Y-98051096D01*
X125269962Y-97847826D01*
X125184678Y-97639249D01*
X125109222Y-97452863D01*
X125046126Y-97295007D01*
X124997923Y-97172019D01*
X124967144Y-97090239D01*
X124956322Y-97056006D01*
X124976991Y-97024615D01*
X125034409Y-96972202D01*
X125115688Y-96911304D01*
X125310820Y-96751987D01*
X125485445Y-96548407D01*
X125613235Y-96324408D01*
X125693402Y-96086603D01*
X125725160Y-95841607D01*
X125707722Y-95596033D01*
X125640301Y-95356495D01*
X125522111Y-95129607D01*
X125352364Y-94921983D01*
X125263856Y-94841127D01*
X125051804Y-94698159D01*
X124824905Y-94604952D01*
X124589791Y-94559287D01*
X124353094Y-94558944D01*
X124121446Y-94601705D01*
X123901478Y-94685350D01*
X123699822Y-94807661D01*
X123523111Y-94966417D01*
X123377977Y-95159401D01*
X123271050Y-95384393D01*
X123208964Y-95639175D01*
X123197569Y-95761977D01*
X123213246Y-96028034D01*
X123283846Y-96280456D01*
X123407282Y-96514782D01*
X123581466Y-96726552D01*
X123804311Y-96911304D01*
X123882561Y-96969723D01*
X123941244Y-97022710D01*
X123963678Y-97055956D01*
X123954732Y-97084939D01*
X123925703Y-97162596D01*
X123879026Y-97282051D01*
X123817231Y-97436962D01*
X123742850Y-97620992D01*
X123658412Y-97827800D01*
X123566449Y-98051046D01*
X123482771Y-98253342D01*
X123396366Y-98462286D01*
X123319138Y-98649098D01*
X123253716Y-98807414D01*
X123202731Y-98930869D01*
X123168812Y-99013098D01*
X123154590Y-99047738D01*
X123154425Y-99048148D01*
X123125972Y-99077398D01*
X123071382Y-99077063D01*
X122983609Y-99045580D01*
X122855608Y-98981385D01*
X122845532Y-98975980D01*
X122750481Y-98927350D01*
X122675424Y-98892928D01*
X122635842Y-98879864D01*
X122603400Y-98895302D01*
X122530895Y-98938858D01*
X122426565Y-99005351D01*
X122298539Y-99089598D01*
X122154948Y-99186416D01*
X122013468Y-99281334D01*
X121882611Y-99366090D01*
X121774292Y-99433096D01*
X121696960Y-99477129D01*
X121659062Y-99492968D01*
X121652607Y-99490957D01*
X121607609Y-99459258D01*
X121530727Y-99393781D01*
X121428721Y-99300648D01*
X121308351Y-99185981D01*
X121176379Y-99055900D01*
X120740039Y-98618832D01*
X121419733Y-97619040D01*
X121316402Y-97395486D01*
X121316096Y-97394825D01*
X121254046Y-97252314D01*
X121190640Y-97093618D01*
X121139558Y-96952968D01*
X121131827Y-96930283D01*
X121092852Y-96824970D01*
X121057707Y-96743134D01*
X121033195Y-96700901D01*
X121023212Y-96694937D01*
X120963286Y-96674929D01*
X120861532Y-96649042D01*
X120729068Y-96619970D01*
X120577011Y-96590406D01*
X120531466Y-96582067D01*
X120366685Y-96551707D01*
X120212930Y-96523109D01*
X120085678Y-96499164D01*
X120000402Y-96482760D01*
X119847126Y-96452506D01*
X119847126Y-95814245D01*
X119847160Y-95735765D01*
X119847808Y-95544303D01*
X119849720Y-95401412D01*
X119853469Y-95299789D01*
X119859622Y-95232131D01*
X119868751Y-95191136D01*
X119881427Y-95169500D01*
X119898218Y-95159920D01*
X119914474Y-95156039D01*
X119980748Y-95142310D01*
X120086479Y-95121345D01*
X120220915Y-95095188D01*
X120373302Y-95065883D01*
X120532890Y-95035477D01*
X120688925Y-95006013D01*
X120830657Y-94979537D01*
X120947331Y-94958094D01*
X121028197Y-94943728D01*
X121062503Y-94938485D01*
X121064822Y-94935320D01*
X121083474Y-94894242D01*
X121115753Y-94815644D01*
X121156391Y-94712221D01*
X121212788Y-94572873D01*
X121282214Y-94411826D01*
X121347288Y-94269891D01*
X121362202Y-94238032D01*
X121404047Y-94138269D01*
X121429118Y-94061321D01*
X121432426Y-94021730D01*
X121430720Y-94018925D01*
X121403631Y-93977605D01*
X121349927Y-93897340D01*
X121274877Y-93785950D01*
X121183746Y-93651255D01*
X121081800Y-93501076D01*
X120966930Y-93330451D01*
X120880761Y-93197911D01*
X120822131Y-93100712D01*
X120787650Y-93032834D01*
X120773926Y-92988256D01*
X120777568Y-92960961D01*
X120778794Y-92958913D01*
X120811747Y-92919136D01*
X120878927Y-92846652D01*
X120973419Y-92748646D01*
X121088306Y-92632302D01*
X121216672Y-92504805D01*
X121349831Y-92375421D01*
X121480269Y-92253809D01*
X121576119Y-92171756D01*
X121639866Y-92127160D01*
X121673996Y-92117917D01*
X121678456Y-92119993D01*
X121725421Y-92147985D01*
X121810685Y-92202684D01*
X121926259Y-92278837D01*
X122064154Y-92371192D01*
X122216381Y-92474497D01*
X122712610Y-92813365D01*
X122936707Y-92711656D01*
X122943219Y-92708709D01*
X123080804Y-92649104D01*
X123226767Y-92589822D01*
X123350575Y-92543285D01*
X123351122Y-92543093D01*
X123449414Y-92507097D01*
X123525081Y-92476695D01*
X123561780Y-92458452D01*
X123562374Y-92457790D01*
X123574833Y-92420431D01*
X123595336Y-92335471D01*
X123621907Y-92212069D01*
X123652567Y-92059382D01*
X123685336Y-91886567D01*
X123686478Y-91880374D01*
X123719193Y-91704031D01*
X123749155Y-91544343D01*
X123774425Y-91411505D01*
X123793065Y-91315713D01*
X123803135Y-91267163D01*
X123803779Y-91264473D01*
X123810408Y-91243688D01*
X123823841Y-91228066D01*
X123851446Y-91216870D01*
X123900593Y-91209362D01*
X123978653Y-91204805D01*
X124092994Y-91202463D01*
X124250986Y-91201598D01*
X124460000Y-91201474D01*
X124486262Y-91201474D01*
X124689175Y-91201645D01*
G36*
X124689175Y-91201645D02*
G01*
X124841895Y-91202639D01*
X124951792Y-91205193D01*
X125026235Y-91210045D01*
X125072594Y-91217931D01*
X125098239Y-91229588D01*
X125110539Y-91245753D01*
X125116865Y-91267163D01*
X125117047Y-91267932D01*
X125127441Y-91318263D01*
X125146339Y-91415488D01*
X125171802Y-91549410D01*
X125201890Y-91709835D01*
X125234664Y-91886567D01*
X125237337Y-91901028D01*
X125270010Y-92072559D01*
X125300413Y-92223225D01*
X125326568Y-92343867D01*
X125346496Y-92425329D01*
X125358220Y-92458452D01*
X125358282Y-92458505D01*
X125395229Y-92476829D01*
X125471057Y-92507277D01*
X125569425Y-92543285D01*
X125574965Y-92545240D01*
X125700724Y-92592770D01*
X125847011Y-92652383D01*
X125983293Y-92711656D01*
X126207390Y-92813365D01*
X126703618Y-92474497D01*
X126738570Y-92450663D01*
X126888280Y-92349355D01*
X127021867Y-92260175D01*
X127131343Y-92188373D01*
X127208718Y-92139203D01*
X127246004Y-92117917D01*
X127271552Y-92122796D01*
X127329555Y-92160602D01*
X127419195Y-92235470D01*
X127542957Y-92349503D01*
X127703328Y-92504805D01*
X127717679Y-92518941D01*
X127844933Y-92645599D01*
X127957969Y-92760345D01*
X128049867Y-92855991D01*
X128113707Y-92925346D01*
X128142570Y-92961220D01*
X128142664Y-92961394D01*
X128146331Y-92988706D01*
X128132808Y-93033008D01*
X128098684Y-93100361D01*
X128040548Y-93196826D01*
X127954988Y-93328463D01*
X127838594Y-93501334D01*
X127818759Y-93530512D01*
X127718445Y-93678326D01*
X127629923Y-93809177D01*
X127558465Y-93915243D01*
X127509343Y-93988702D01*
X127487831Y-94021730D01*
X127486208Y-94028726D01*
X127496387Y-94080926D01*
X127526879Y-94166161D01*
X127572712Y-94269891D01*
X127635000Y-94405551D01*
X127704548Y-94566521D01*
X127763609Y-94712221D01*
X127778252Y-94749933D01*
X127816600Y-94846222D01*
X127844770Y-94913304D01*
X127857497Y-94938485D01*
X127871545Y-94940367D01*
X127934681Y-94951251D01*
X128038019Y-94970049D01*
X128170809Y-94994715D01*
X128322297Y-95023204D01*
X128481732Y-95053473D01*
X128638361Y-95083475D01*
X128781433Y-95111166D01*
X128900195Y-95134500D01*
X128983896Y-95151433D01*
X129021782Y-95159920D01*
X129028063Y-95162313D01*
X129043373Y-95175219D01*
X129054763Y-95202696D01*
X129062803Y-95252046D01*
X129068064Y-95330573D01*
X129071116Y-95445580D01*
X129072529Y-95604370D01*
X129072873Y-95814245D01*
X129072873Y-96452506D01*
X128919598Y-96482760D01*
X128901057Y-96486385D01*
X128802596Y-96505169D01*
X128666448Y-96530693D01*
X128508087Y-96560068D01*
X128342988Y-96590406D01*
X128277973Y-96602609D01*
X128132697Y-96632297D01*
X128011626Y-96660370D01*
X127925886Y-96684136D01*
X127886601Y-96700901D01*
X127868799Y-96728294D01*
X127836389Y-96800774D01*
X127803234Y-96894577D01*
X127791564Y-96929703D01*
X127748604Y-97045009D01*
X127693192Y-97181476D01*
X127634353Y-97316554D01*
X127602884Y-97387109D01*
X127558051Y-97492495D01*
X127527240Y-97571418D01*
X127515785Y-97610653D01*
X127516422Y-97613614D01*
X127538150Y-97655239D01*
X127587146Y-97735569D01*
X127658438Y-97846820D01*
X127747054Y-97981205D01*
X127848023Y-98130940D01*
X128180261Y-98618531D01*
X127743771Y-99055749D01*
X127701555Y-99097821D01*
X127572470Y-99223753D01*
X127457107Y-99332354D01*
X127362224Y-99417503D01*
X127294582Y-99473082D01*
X127260938Y-99492968D01*
X127224402Y-99477838D01*
X127147890Y-99434401D01*
X127040196Y-99367870D01*
X126909767Y-99283467D01*
X126765052Y-99186416D01*
X126622910Y-99090564D01*
X126494678Y-99006157D01*
X126390054Y-98939450D01*
X126317171Y-98895624D01*
X126284158Y-98879864D01*
X126282223Y-98880008D01*
X126238369Y-98895545D01*
X126160598Y-98931721D01*
X126064392Y-98981385D01*
X126063381Y-98981929D01*
X125935605Y-99045926D01*
X125848051Y-99077191D01*
X125793726Y-99077277D01*
X125765641Y-99047738D01*
X125753752Y-99018661D01*
X125721668Y-98940788D01*
X125672247Y-98821075D01*
X125608118Y-98665886D01*
X125531911Y-98481584D01*
X125446255Y-98274533D01*
X125353781Y-98051096D01*
X125269962Y-97847826D01*
X125184678Y-97639249D01*
X125109222Y-97452863D01*
X125046126Y-97295007D01*
X124997923Y-97172019D01*
X124967144Y-97090239D01*
X124956322Y-97056006D01*
X124976991Y-97024615D01*
X125034409Y-96972202D01*
X125115688Y-96911304D01*
X125310820Y-96751987D01*
X125485445Y-96548407D01*
X125613235Y-96324408D01*
X125693402Y-96086603D01*
X125725160Y-95841607D01*
X125707722Y-95596033D01*
X125640301Y-95356495D01*
X125522111Y-95129607D01*
X125352364Y-94921983D01*
X125263856Y-94841127D01*
X125051804Y-94698159D01*
X124824905Y-94604952D01*
X124589791Y-94559287D01*
X124353094Y-94558944D01*
X124121446Y-94601705D01*
X123901478Y-94685350D01*
X123699822Y-94807661D01*
X123523111Y-94966417D01*
X123377977Y-95159401D01*
X123271050Y-95384393D01*
X123208964Y-95639175D01*
X123197569Y-95761977D01*
X123213246Y-96028034D01*
X123283846Y-96280456D01*
X123407282Y-96514782D01*
X123581466Y-96726552D01*
X123804311Y-96911304D01*
X123882561Y-96969723D01*
X123941244Y-97022710D01*
X123963678Y-97055956D01*
X123954732Y-97084939D01*
X123925703Y-97162596D01*
X123879026Y-97282051D01*
X123817231Y-97436962D01*
X123742850Y-97620992D01*
X123658412Y-97827800D01*
X123566449Y-98051046D01*
X123482771Y-98253342D01*
X123396366Y-98462286D01*
X123319138Y-98649098D01*
X123253716Y-98807414D01*
X123202731Y-98930869D01*
X123168812Y-99013098D01*
X123154590Y-99047738D01*
X123154425Y-99048148D01*
X123125972Y-99077398D01*
X123071382Y-99077063D01*
X122983609Y-99045580D01*
X122855608Y-98981385D01*
X122845532Y-98975980D01*
X122750481Y-98927350D01*
X122675424Y-98892928D01*
X122635842Y-98879864D01*
X122603400Y-98895302D01*
X122530895Y-98938858D01*
X122426565Y-99005351D01*
X122298539Y-99089598D01*
X122154948Y-99186416D01*
X122013468Y-99281334D01*
X121882611Y-99366090D01*
X121774292Y-99433096D01*
X121696960Y-99477129D01*
X121659062Y-99492968D01*
X121652607Y-99490957D01*
X121607609Y-99459258D01*
X121530727Y-99393781D01*
X121428721Y-99300648D01*
X121308351Y-99185981D01*
X121176379Y-99055900D01*
X120740039Y-98618832D01*
X121419733Y-97619040D01*
X121316402Y-97395486D01*
X121316096Y-97394825D01*
X121254046Y-97252314D01*
X121190640Y-97093618D01*
X121139558Y-96952968D01*
X121131827Y-96930283D01*
X121092852Y-96824970D01*
X121057707Y-96743134D01*
X121033195Y-96700901D01*
X121023212Y-96694937D01*
X120963286Y-96674929D01*
X120861532Y-96649042D01*
X120729068Y-96619970D01*
X120577011Y-96590406D01*
X120531466Y-96582067D01*
X120366685Y-96551707D01*
X120212930Y-96523109D01*
X120085678Y-96499164D01*
X120000402Y-96482760D01*
X119847126Y-96452506D01*
X119847126Y-95814245D01*
X119847160Y-95735765D01*
X119847808Y-95544303D01*
X119849720Y-95401412D01*
X119853469Y-95299789D01*
X119859622Y-95232131D01*
X119868751Y-95191136D01*
X119881427Y-95169500D01*
X119898218Y-95159920D01*
X119914474Y-95156039D01*
X119980748Y-95142310D01*
X120086479Y-95121345D01*
X120220915Y-95095188D01*
X120373302Y-95065883D01*
X120532890Y-95035477D01*
X120688925Y-95006013D01*
X120830657Y-94979537D01*
X120947331Y-94958094D01*
X121028197Y-94943728D01*
X121062503Y-94938485D01*
X121064822Y-94935320D01*
X121083474Y-94894242D01*
X121115753Y-94815644D01*
X121156391Y-94712221D01*
X121212788Y-94572873D01*
X121282214Y-94411826D01*
X121347288Y-94269891D01*
X121362202Y-94238032D01*
X121404047Y-94138269D01*
X121429118Y-94061321D01*
X121432426Y-94021730D01*
X121430720Y-94018925D01*
X121403631Y-93977605D01*
X121349927Y-93897340D01*
X121274877Y-93785950D01*
X121183746Y-93651255D01*
X121081800Y-93501076D01*
X120966930Y-93330451D01*
X120880761Y-93197911D01*
X120822131Y-93100712D01*
X120787650Y-93032834D01*
X120773926Y-92988256D01*
X120777568Y-92960961D01*
X120778794Y-92958913D01*
X120811747Y-92919136D01*
X120878927Y-92846652D01*
X120973419Y-92748646D01*
X121088306Y-92632302D01*
X121216672Y-92504805D01*
X121349831Y-92375421D01*
X121480269Y-92253809D01*
X121576119Y-92171756D01*
X121639866Y-92127160D01*
X121673996Y-92117917D01*
X121678456Y-92119993D01*
X121725421Y-92147985D01*
X121810685Y-92202684D01*
X121926259Y-92278837D01*
X122064154Y-92371192D01*
X122216381Y-92474497D01*
X122712610Y-92813365D01*
X122936707Y-92711656D01*
X122943219Y-92708709D01*
X123080804Y-92649104D01*
X123226767Y-92589822D01*
X123350575Y-92543285D01*
X123351122Y-92543093D01*
X123449414Y-92507097D01*
X123525081Y-92476695D01*
X123561780Y-92458452D01*
X123562374Y-92457790D01*
X123574833Y-92420431D01*
X123595336Y-92335471D01*
X123621907Y-92212069D01*
X123652567Y-92059382D01*
X123685336Y-91886567D01*
X123686478Y-91880374D01*
X123719193Y-91704031D01*
X123749155Y-91544343D01*
X123774425Y-91411505D01*
X123793065Y-91315713D01*
X123803135Y-91267163D01*
X123803779Y-91264473D01*
X123810408Y-91243688D01*
X123823841Y-91228066D01*
X123851446Y-91216870D01*
X123900593Y-91209362D01*
X123978653Y-91204805D01*
X124092994Y-91202463D01*
X124250986Y-91201598D01*
X124460000Y-91201474D01*
X124486262Y-91201474D01*
X124689175Y-91201645D01*
G37*
X124689175Y-91201645D02*
X124841895Y-91202639D01*
X124951792Y-91205193D01*
X125026235Y-91210045D01*
X125072594Y-91217931D01*
X125098239Y-91229588D01*
X125110539Y-91245753D01*
X125116865Y-91267163D01*
X125117047Y-91267932D01*
X125127441Y-91318263D01*
X125146339Y-91415488D01*
X125171802Y-91549410D01*
X125201890Y-91709835D01*
X125234664Y-91886567D01*
X125237337Y-91901028D01*
X125270010Y-92072559D01*
X125300413Y-92223225D01*
X125326568Y-92343867D01*
X125346496Y-92425329D01*
X125358220Y-92458452D01*
X125358282Y-92458505D01*
X125395229Y-92476829D01*
X125471057Y-92507277D01*
X125569425Y-92543285D01*
X125574965Y-92545240D01*
X125700724Y-92592770D01*
X125847011Y-92652383D01*
X125983293Y-92711656D01*
X126207390Y-92813365D01*
X126703618Y-92474497D01*
X126738570Y-92450663D01*
X126888280Y-92349355D01*
X127021867Y-92260175D01*
X127131343Y-92188373D01*
X127208718Y-92139203D01*
X127246004Y-92117917D01*
X127271552Y-92122796D01*
X127329555Y-92160602D01*
X127419195Y-92235470D01*
X127542957Y-92349503D01*
X127703328Y-92504805D01*
X127717679Y-92518941D01*
X127844933Y-92645599D01*
X127957969Y-92760345D01*
X128049867Y-92855991D01*
X128113707Y-92925346D01*
X128142570Y-92961220D01*
X128142664Y-92961394D01*
X128146331Y-92988706D01*
X128132808Y-93033008D01*
X128098684Y-93100361D01*
X128040548Y-93196826D01*
X127954988Y-93328463D01*
X127838594Y-93501334D01*
X127818759Y-93530512D01*
X127718445Y-93678326D01*
X127629923Y-93809177D01*
X127558465Y-93915243D01*
X127509343Y-93988702D01*
X127487831Y-94021730D01*
X127486208Y-94028726D01*
X127496387Y-94080926D01*
X127526879Y-94166161D01*
X127572712Y-94269891D01*
X127635000Y-94405551D01*
X127704548Y-94566521D01*
X127763609Y-94712221D01*
X127778252Y-94749933D01*
X127816600Y-94846222D01*
X127844770Y-94913304D01*
X127857497Y-94938485D01*
X127871545Y-94940367D01*
X127934681Y-94951251D01*
X128038019Y-94970049D01*
X128170809Y-94994715D01*
X128322297Y-95023204D01*
X128481732Y-95053473D01*
X128638361Y-95083475D01*
X128781433Y-95111166D01*
X128900195Y-95134500D01*
X128983896Y-95151433D01*
X129021782Y-95159920D01*
X129028063Y-95162313D01*
X129043373Y-95175219D01*
X129054763Y-95202696D01*
X129062803Y-95252046D01*
X129068064Y-95330573D01*
X129071116Y-95445580D01*
X129072529Y-95604370D01*
X129072873Y-95814245D01*
X129072873Y-96452506D01*
X128919598Y-96482760D01*
X128901057Y-96486385D01*
X128802596Y-96505169D01*
X128666448Y-96530693D01*
X128508087Y-96560068D01*
X128342988Y-96590406D01*
X128277973Y-96602609D01*
X128132697Y-96632297D01*
X128011626Y-96660370D01*
X127925886Y-96684136D01*
X127886601Y-96700901D01*
X127868799Y-96728294D01*
X127836389Y-96800774D01*
X127803234Y-96894577D01*
X127791564Y-96929703D01*
X127748604Y-97045009D01*
X127693192Y-97181476D01*
X127634353Y-97316554D01*
X127602884Y-97387109D01*
X127558051Y-97492495D01*
X127527240Y-97571418D01*
X127515785Y-97610653D01*
X127516422Y-97613614D01*
X127538150Y-97655239D01*
X127587146Y-97735569D01*
X127658438Y-97846820D01*
X127747054Y-97981205D01*
X127848023Y-98130940D01*
X128180261Y-98618531D01*
X127743771Y-99055749D01*
X127701555Y-99097821D01*
X127572470Y-99223753D01*
X127457107Y-99332354D01*
X127362224Y-99417503D01*
X127294582Y-99473082D01*
X127260938Y-99492968D01*
X127224402Y-99477838D01*
X127147890Y-99434401D01*
X127040196Y-99367870D01*
X126909767Y-99283467D01*
X126765052Y-99186416D01*
X126622910Y-99090564D01*
X126494678Y-99006157D01*
X126390054Y-98939450D01*
X126317171Y-98895624D01*
X126284158Y-98879864D01*
X126282223Y-98880008D01*
X126238369Y-98895545D01*
X126160598Y-98931721D01*
X126064392Y-98981385D01*
X126063381Y-98981929D01*
X125935605Y-99045926D01*
X125848051Y-99077191D01*
X125793726Y-99077277D01*
X125765641Y-99047738D01*
X125753752Y-99018661D01*
X125721668Y-98940788D01*
X125672247Y-98821075D01*
X125608118Y-98665886D01*
X125531911Y-98481584D01*
X125446255Y-98274533D01*
X125353781Y-98051096D01*
X125269962Y-97847826D01*
X125184678Y-97639249D01*
X125109222Y-97452863D01*
X125046126Y-97295007D01*
X124997923Y-97172019D01*
X124967144Y-97090239D01*
X124956322Y-97056006D01*
X124976991Y-97024615D01*
X125034409Y-96972202D01*
X125115688Y-96911304D01*
X125310820Y-96751987D01*
X125485445Y-96548407D01*
X125613235Y-96324408D01*
X125693402Y-96086603D01*
X125725160Y-95841607D01*
X125707722Y-95596033D01*
X125640301Y-95356495D01*
X125522111Y-95129607D01*
X125352364Y-94921983D01*
X125263856Y-94841127D01*
X125051804Y-94698159D01*
X124824905Y-94604952D01*
X124589791Y-94559287D01*
X124353094Y-94558944D01*
X124121446Y-94601705D01*
X123901478Y-94685350D01*
X123699822Y-94807661D01*
X123523111Y-94966417D01*
X123377977Y-95159401D01*
X123271050Y-95384393D01*
X123208964Y-95639175D01*
X123197569Y-95761977D01*
X123213246Y-96028034D01*
X123283846Y-96280456D01*
X123407282Y-96514782D01*
X123581466Y-96726552D01*
X123804311Y-96911304D01*
X123882561Y-96969723D01*
X123941244Y-97022710D01*
X123963678Y-97055956D01*
X123954732Y-97084939D01*
X123925703Y-97162596D01*
X123879026Y-97282051D01*
X123817231Y-97436962D01*
X123742850Y-97620992D01*
X123658412Y-97827800D01*
X123566449Y-98051046D01*
X123482771Y-98253342D01*
X123396366Y-98462286D01*
X123319138Y-98649098D01*
X123253716Y-98807414D01*
X123202731Y-98930869D01*
X123168812Y-99013098D01*
X123154590Y-99047738D01*
X123154425Y-99048148D01*
X123125972Y-99077398D01*
X123071382Y-99077063D01*
X122983609Y-99045580D01*
X122855608Y-98981385D01*
X122845532Y-98975980D01*
X122750481Y-98927350D01*
X122675424Y-98892928D01*
X122635842Y-98879864D01*
X122603400Y-98895302D01*
X122530895Y-98938858D01*
X122426565Y-99005351D01*
X122298539Y-99089598D01*
X122154948Y-99186416D01*
X122013468Y-99281334D01*
X121882611Y-99366090D01*
X121774292Y-99433096D01*
X121696960Y-99477129D01*
X121659062Y-99492968D01*
X121652607Y-99490957D01*
X121607609Y-99459258D01*
X121530727Y-99393781D01*
X121428721Y-99300648D01*
X121308351Y-99185981D01*
X121176379Y-99055900D01*
X120740039Y-98618832D01*
X121419733Y-97619040D01*
X121316402Y-97395486D01*
X121316096Y-97394825D01*
X121254046Y-97252314D01*
X121190640Y-97093618D01*
X121139558Y-96952968D01*
X121131827Y-96930283D01*
X121092852Y-96824970D01*
X121057707Y-96743134D01*
X121033195Y-96700901D01*
X121023212Y-96694937D01*
X120963286Y-96674929D01*
X120861532Y-96649042D01*
X120729068Y-96619970D01*
X120577011Y-96590406D01*
X120531466Y-96582067D01*
X120366685Y-96551707D01*
X120212930Y-96523109D01*
X120085678Y-96499164D01*
X120000402Y-96482760D01*
X119847126Y-96452506D01*
X119847126Y-95814245D01*
X119847160Y-95735765D01*
X119847808Y-95544303D01*
X119849720Y-95401412D01*
X119853469Y-95299789D01*
X119859622Y-95232131D01*
X119868751Y-95191136D01*
X119881427Y-95169500D01*
X119898218Y-95159920D01*
X119914474Y-95156039D01*
X119980748Y-95142310D01*
X120086479Y-95121345D01*
X120220915Y-95095188D01*
X120373302Y-95065883D01*
X120532890Y-95035477D01*
X120688925Y-95006013D01*
X120830657Y-94979537D01*
X120947331Y-94958094D01*
X121028197Y-94943728D01*
X121062503Y-94938485D01*
X121064822Y-94935320D01*
X121083474Y-94894242D01*
X121115753Y-94815644D01*
X121156391Y-94712221D01*
X121212788Y-94572873D01*
X121282214Y-94411826D01*
X121347288Y-94269891D01*
X121362202Y-94238032D01*
X121404047Y-94138269D01*
X121429118Y-94061321D01*
X121432426Y-94021730D01*
X121430720Y-94018925D01*
X121403631Y-93977605D01*
X121349927Y-93897340D01*
X121274877Y-93785950D01*
X121183746Y-93651255D01*
X121081800Y-93501076D01*
X120966930Y-93330451D01*
X120880761Y-93197911D01*
X120822131Y-93100712D01*
X120787650Y-93032834D01*
X120773926Y-92988256D01*
X120777568Y-92960961D01*
X120778794Y-92958913D01*
X120811747Y-92919136D01*
X120878927Y-92846652D01*
X120973419Y-92748646D01*
X121088306Y-92632302D01*
X121216672Y-92504805D01*
X121349831Y-92375421D01*
X121480269Y-92253809D01*
X121576119Y-92171756D01*
X121639866Y-92127160D01*
X121673996Y-92117917D01*
X121678456Y-92119993D01*
X121725421Y-92147985D01*
X121810685Y-92202684D01*
X121926259Y-92278837D01*
X122064154Y-92371192D01*
X122216381Y-92474497D01*
X122712610Y-92813365D01*
X122936707Y-92711656D01*
X122943219Y-92708709D01*
X123080804Y-92649104D01*
X123226767Y-92589822D01*
X123350575Y-92543285D01*
X123351122Y-92543093D01*
X123449414Y-92507097D01*
X123525081Y-92476695D01*
X123561780Y-92458452D01*
X123562374Y-92457790D01*
X123574833Y-92420431D01*
X123595336Y-92335471D01*
X123621907Y-92212069D01*
X123652567Y-92059382D01*
X123685336Y-91886567D01*
X123686478Y-91880374D01*
X123719193Y-91704031D01*
X123749155Y-91544343D01*
X123774425Y-91411505D01*
X123793065Y-91315713D01*
X123803135Y-91267163D01*
X123803779Y-91264473D01*
X123810408Y-91243688D01*
X123823841Y-91228066D01*
X123851446Y-91216870D01*
X123900593Y-91209362D01*
X123978653Y-91204805D01*
X124092994Y-91202463D01*
X124250986Y-91201598D01*
X124460000Y-91201474D01*
X124486262Y-91201474D01*
X124689175Y-91201645D01*
G36*
G01*
X153694168Y-97215960D02*
X152736512Y-97215960D01*
G75*
G02*
X152464340Y-96943788I0J272172D01*
G01*
X152464340Y-96236132D01*
G75*
G02*
X152736512Y-95963960I272172J0D01*
G01*
X153694168Y-95963960D01*
G75*
G02*
X153966340Y-96236132I0J-272172D01*
G01*
X153966340Y-96943788D01*
G75*
G02*
X153694168Y-97215960I-272172J0D01*
G01*
G37*
G36*
G01*
X153694168Y-95165960D02*
X152736512Y-95165960D01*
G75*
G02*
X152464340Y-94893788I0J272172D01*
G01*
X152464340Y-94186132D01*
G75*
G02*
X152736512Y-93913960I272172J0D01*
G01*
X153694168Y-93913960D01*
G75*
G02*
X153966340Y-94186132I0J-272172D01*
G01*
X153966340Y-94893788D01*
G75*
G02*
X153694168Y-95165960I-272172J0D01*
G01*
G37*
M02*
