G04 #@! TF.GenerationSoftware,KiCad,Pcbnew,(5.99.0-1716-g4efed4b72)*
G04 #@! TF.CreationDate,2020-05-21T15:21:06+02:00*
G04 #@! TF.ProjectId,flex-strip-tester-v8,666c6578-2d73-4747-9269-702d74657374,rev?*
G04 #@! TF.SameCoordinates,Original*
G04 #@! TF.FileFunction,Legend,Bot*
G04 #@! TF.FilePolarity,Positive*
%FSLAX46Y46*%
G04 Gerber Fmt 4.6, Leading zero omitted, Abs format (unit mm)*
G04 Created by KiCad (PCBNEW (5.99.0-1716-g4efed4b72)) date 2020-05-21 15:21:06*
%MOMM*%
%LPD*%
G01*
G04 APERTURE LIST*
%ADD10C,0.228600*%
%ADD11C,0.150000*%
%ADD12C,0.120000*%
G04 APERTURE END LIST*
D10*
X141115145Y-92721851D02*
X141115145Y-93936137D01*
X141186574Y-94078994D01*
X141258002Y-94150422D01*
X141400860Y-94221851D01*
X141615145Y-94221851D01*
X141758002Y-94150422D01*
X141115145Y-93650422D02*
X141258002Y-93721851D01*
X141543717Y-93721851D01*
X141686574Y-93650422D01*
X141758002Y-93578994D01*
X141829431Y-93436137D01*
X141829431Y-93007565D01*
X141758002Y-92864708D01*
X141686574Y-92793280D01*
X141543717Y-92721851D01*
X141258002Y-92721851D01*
X141115145Y-92793280D01*
X140400860Y-93721851D02*
X140400860Y-92721851D01*
X140400860Y-92221851D02*
X140472288Y-92293280D01*
X140400860Y-92364708D01*
X140329431Y-92293280D01*
X140400860Y-92221851D01*
X140400860Y-92364708D01*
X139900860Y-92721851D02*
X139329431Y-92721851D01*
X139686574Y-92221851D02*
X139686574Y-93507565D01*
X139615145Y-93650422D01*
X139472288Y-93721851D01*
X139329431Y-93721851D01*
X138829431Y-93721851D02*
X138829431Y-92221851D01*
X138186574Y-93721851D02*
X138186574Y-92936137D01*
X138258002Y-92793280D01*
X138400860Y-92721851D01*
X138615145Y-92721851D01*
X138758002Y-92793280D01*
X138829431Y-92864708D01*
X136829431Y-92721851D02*
X136829431Y-93721851D01*
X137472288Y-92721851D02*
X137472288Y-93507565D01*
X137400860Y-93650422D01*
X137258002Y-93721851D01*
X137043717Y-93721851D01*
X136900860Y-93650422D01*
X136829431Y-93578994D01*
X136115145Y-93721851D02*
X136115145Y-92221851D01*
X136115145Y-92793280D02*
X135972288Y-92721851D01*
X135686574Y-92721851D01*
X135543717Y-92793280D01*
X135472288Y-92864708D01*
X135400860Y-93007565D01*
X135400860Y-93436137D01*
X135472288Y-93578994D01*
X135543717Y-93650422D01*
X135686574Y-93721851D01*
X135972288Y-93721851D01*
X136115145Y-93650422D01*
X134758002Y-93578994D02*
X134686574Y-93650422D01*
X134758002Y-93721851D01*
X134829431Y-93650422D01*
X134758002Y-93578994D01*
X134758002Y-93721851D01*
X133400860Y-93650422D02*
X133543717Y-93721851D01*
X133829431Y-93721851D01*
X133972288Y-93650422D01*
X134043717Y-93578994D01*
X134115145Y-93436137D01*
X134115145Y-93007565D01*
X134043717Y-92864708D01*
X133972288Y-92793280D01*
X133829431Y-92721851D01*
X133543717Y-92721851D01*
X133400860Y-92793280D01*
X132543717Y-93721851D02*
X132686574Y-93650422D01*
X132758002Y-93578994D01*
X132829431Y-93436137D01*
X132829431Y-93007565D01*
X132758002Y-92864708D01*
X132686574Y-92793280D01*
X132543717Y-92721851D01*
X132329431Y-92721851D01*
X132186574Y-92793280D01*
X132115145Y-92864708D01*
X132043717Y-93007565D01*
X132043717Y-93436137D01*
X132115145Y-93578994D01*
X132186574Y-93650422D01*
X132329431Y-93721851D01*
X132543717Y-93721851D01*
X131400860Y-93721851D02*
X131400860Y-92721851D01*
X131400860Y-92864708D02*
X131329431Y-92793280D01*
X131186574Y-92721851D01*
X130972288Y-92721851D01*
X130829431Y-92793280D01*
X130758002Y-92936137D01*
X130758002Y-93721851D01*
X130758002Y-92936137D02*
X130686574Y-92793280D01*
X130543717Y-92721851D01*
X130329431Y-92721851D01*
X130186574Y-92793280D01*
X130115145Y-92936137D01*
X130115145Y-93721851D01*
X128329431Y-92150422D02*
X129615145Y-94078994D01*
X139758002Y-96136851D02*
X139900860Y-96065422D01*
X139972288Y-95993994D01*
X140043717Y-95851137D01*
X140043717Y-95422565D01*
X139972288Y-95279708D01*
X139900860Y-95208280D01*
X139758002Y-95136851D01*
X139543717Y-95136851D01*
X139400860Y-95208280D01*
X139329431Y-95279708D01*
X139258002Y-95422565D01*
X139258002Y-95851137D01*
X139329431Y-95993994D01*
X139400860Y-96065422D01*
X139543717Y-96136851D01*
X139758002Y-96136851D01*
X138686574Y-96065422D02*
X138543717Y-96136851D01*
X138258002Y-96136851D01*
X138115145Y-96065422D01*
X138043717Y-95922565D01*
X138043717Y-95851137D01*
X138115145Y-95708280D01*
X138258002Y-95636851D01*
X138472288Y-95636851D01*
X138615145Y-95565422D01*
X138686574Y-95422565D01*
X138686574Y-95351137D01*
X138615145Y-95208280D01*
X138472288Y-95136851D01*
X138258002Y-95136851D01*
X138115145Y-95208280D01*
X137400860Y-96136851D02*
X137400860Y-94636851D01*
X136758002Y-96136851D02*
X136758002Y-95351137D01*
X136829431Y-95208280D01*
X136972288Y-95136851D01*
X137186574Y-95136851D01*
X137329431Y-95208280D01*
X137400860Y-95279708D01*
X136043717Y-95136851D02*
X136043717Y-96636851D01*
X136043717Y-95208280D02*
X135900860Y-95136851D01*
X135615145Y-95136851D01*
X135472288Y-95208280D01*
X135400860Y-95279708D01*
X135329431Y-95422565D01*
X135329431Y-95851137D01*
X135400860Y-95993994D01*
X135472288Y-96065422D01*
X135615145Y-96136851D01*
X135900860Y-96136851D01*
X136043717Y-96065422D01*
X134043717Y-96136851D02*
X134043717Y-95351137D01*
X134115145Y-95208280D01*
X134258002Y-95136851D01*
X134543717Y-95136851D01*
X134686574Y-95208280D01*
X134043717Y-96065422D02*
X134186574Y-96136851D01*
X134543717Y-96136851D01*
X134686574Y-96065422D01*
X134758002Y-95922565D01*
X134758002Y-95779708D01*
X134686574Y-95636851D01*
X134543717Y-95565422D01*
X134186574Y-95565422D01*
X134043717Y-95493994D01*
X133329431Y-96136851D02*
X133329431Y-95136851D01*
X133329431Y-95422565D02*
X133258002Y-95279708D01*
X133186574Y-95208280D01*
X133043717Y-95136851D01*
X132900860Y-95136851D01*
X132400860Y-96136851D02*
X132400860Y-94636851D01*
X132258002Y-95565422D02*
X131829431Y-96136851D01*
X131829431Y-95136851D02*
X132400860Y-95708280D01*
X130115145Y-94565422D02*
X131400860Y-96493994D01*
X140293717Y-97551851D02*
X139722288Y-97551851D01*
X140079431Y-98551851D02*
X140079431Y-97266137D01*
X140008002Y-97123280D01*
X139865145Y-97051851D01*
X139722288Y-97051851D01*
X139008002Y-98551851D02*
X139150860Y-98480422D01*
X139222288Y-98337565D01*
X139222288Y-97051851D01*
X137865145Y-98480422D02*
X138008002Y-98551851D01*
X138293717Y-98551851D01*
X138436574Y-98480422D01*
X138508002Y-98337565D01*
X138508002Y-97766137D01*
X138436574Y-97623280D01*
X138293717Y-97551851D01*
X138008002Y-97551851D01*
X137865145Y-97623280D01*
X137793717Y-97766137D01*
X137793717Y-97908994D01*
X138508002Y-98051851D01*
X137293717Y-98551851D02*
X136508002Y-97551851D01*
X137293717Y-97551851D02*
X136508002Y-98551851D01*
X136150860Y-97551851D02*
X135579431Y-97551851D01*
X135936574Y-97051851D02*
X135936574Y-98337565D01*
X135865145Y-98480422D01*
X135722288Y-98551851D01*
X135579431Y-98551851D01*
X134508002Y-98480422D02*
X134650860Y-98551851D01*
X134936574Y-98551851D01*
X135079431Y-98480422D01*
X135150860Y-98337565D01*
X135150860Y-97766137D01*
X135079431Y-97623280D01*
X134936574Y-97551851D01*
X134650860Y-97551851D01*
X134508002Y-97623280D01*
X134436574Y-97766137D01*
X134436574Y-97908994D01*
X135150860Y-98051851D01*
X133865145Y-98480422D02*
X133722288Y-98551851D01*
X133436574Y-98551851D01*
X133293717Y-98480422D01*
X133222288Y-98337565D01*
X133222288Y-98266137D01*
X133293717Y-98123280D01*
X133436574Y-98051851D01*
X133650860Y-98051851D01*
X133793717Y-97980422D01*
X133865145Y-97837565D01*
X133865145Y-97766137D01*
X133793717Y-97623280D01*
X133650860Y-97551851D01*
X133436574Y-97551851D01*
X133293717Y-97623280D01*
X132793717Y-97551851D02*
X132222288Y-97551851D01*
X132579431Y-97051851D02*
X132579431Y-98337565D01*
X132508002Y-98480422D01*
X132365145Y-98551851D01*
X132222288Y-98551851D01*
X131150860Y-98480422D02*
X131293717Y-98551851D01*
X131579431Y-98551851D01*
X131722288Y-98480422D01*
X131793717Y-98337565D01*
X131793717Y-97766137D01*
X131722288Y-97623280D01*
X131579431Y-97551851D01*
X131293717Y-97551851D01*
X131150860Y-97623280D01*
X131079431Y-97766137D01*
X131079431Y-97908994D01*
X131793717Y-98051851D01*
X130436574Y-98551851D02*
X130436574Y-97551851D01*
X130436574Y-97837565D02*
X130365145Y-97694708D01*
X130293717Y-97623280D01*
X130150860Y-97551851D01*
X130008002Y-97551851D01*
X169431791Y-93238397D02*
X169931791Y-93238397D01*
X169931791Y-94024111D02*
X169931791Y-92524111D01*
X169217505Y-92524111D01*
X168431791Y-94024111D02*
X168574648Y-93952682D01*
X168646077Y-93809825D01*
X168646077Y-92524111D01*
X167288934Y-93952682D02*
X167431791Y-94024111D01*
X167717505Y-94024111D01*
X167860362Y-93952682D01*
X167931791Y-93809825D01*
X167931791Y-93238397D01*
X167860362Y-93095540D01*
X167717505Y-93024111D01*
X167431791Y-93024111D01*
X167288934Y-93095540D01*
X167217505Y-93238397D01*
X167217505Y-93381254D01*
X167931791Y-93524111D01*
X166717505Y-94024111D02*
X165931791Y-93024111D01*
X166717505Y-93024111D02*
X165931791Y-94024111D01*
X172110362Y-96439111D02*
X172110362Y-94939111D01*
X172110362Y-95510540D02*
X171967505Y-95439111D01*
X171681791Y-95439111D01*
X171538934Y-95510540D01*
X171467505Y-95581968D01*
X171396077Y-95724825D01*
X171396077Y-96153397D01*
X171467505Y-96296254D01*
X171538934Y-96367682D01*
X171681791Y-96439111D01*
X171967505Y-96439111D01*
X172110362Y-96367682D01*
X170110362Y-96439111D02*
X170110362Y-95653397D01*
X170181791Y-95510540D01*
X170324648Y-95439111D01*
X170610362Y-95439111D01*
X170753220Y-95510540D01*
X170110362Y-96367682D02*
X170253220Y-96439111D01*
X170610362Y-96439111D01*
X170753220Y-96367682D01*
X170824648Y-96224825D01*
X170824648Y-96081968D01*
X170753220Y-95939111D01*
X170610362Y-95867682D01*
X170253220Y-95867682D01*
X170110362Y-95796254D01*
X169610362Y-95439111D02*
X169038934Y-95439111D01*
X169396077Y-94939111D02*
X169396077Y-96224825D01*
X169324648Y-96367682D01*
X169181791Y-96439111D01*
X169038934Y-96439111D01*
X168753220Y-95439111D02*
X168181791Y-95439111D01*
X168538934Y-94939111D02*
X168538934Y-96224825D01*
X168467505Y-96367682D01*
X168324648Y-96439111D01*
X168181791Y-96439111D01*
X167110362Y-96367682D02*
X167253220Y-96439111D01*
X167538934Y-96439111D01*
X167681791Y-96367682D01*
X167753220Y-96224825D01*
X167753220Y-95653397D01*
X167681791Y-95510540D01*
X167538934Y-95439111D01*
X167253220Y-95439111D01*
X167110362Y-95510540D01*
X167038934Y-95653397D01*
X167038934Y-95796254D01*
X167753220Y-95939111D01*
X166396077Y-96439111D02*
X166396077Y-95439111D01*
X166396077Y-95724825D02*
X166324648Y-95581968D01*
X166253220Y-95510540D01*
X166110362Y-95439111D01*
X165967505Y-95439111D01*
X165610362Y-95439111D02*
X165253220Y-96439111D01*
X164896077Y-95439111D02*
X165253220Y-96439111D01*
X165396077Y-96796254D01*
X165467505Y-96867682D01*
X165610362Y-96939111D01*
X171074648Y-97854111D02*
X170503220Y-97854111D01*
X170860362Y-97354111D02*
X170860362Y-98639825D01*
X170788934Y-98782682D01*
X170646077Y-98854111D01*
X170503220Y-98854111D01*
X169431791Y-98782682D02*
X169574648Y-98854111D01*
X169860362Y-98854111D01*
X170003220Y-98782682D01*
X170074648Y-98639825D01*
X170074648Y-98068397D01*
X170003220Y-97925540D01*
X169860362Y-97854111D01*
X169574648Y-97854111D01*
X169431791Y-97925540D01*
X169360362Y-98068397D01*
X169360362Y-98211254D01*
X170074648Y-98354111D01*
X168788934Y-98782682D02*
X168646077Y-98854111D01*
X168360362Y-98854111D01*
X168217505Y-98782682D01*
X168146077Y-98639825D01*
X168146077Y-98568397D01*
X168217505Y-98425540D01*
X168360362Y-98354111D01*
X168574648Y-98354111D01*
X168717505Y-98282682D01*
X168788934Y-98139825D01*
X168788934Y-98068397D01*
X168717505Y-97925540D01*
X168574648Y-97854111D01*
X168360362Y-97854111D01*
X168217505Y-97925540D01*
X167717505Y-97854111D02*
X167146077Y-97854111D01*
X167503220Y-97354111D02*
X167503220Y-98639825D01*
X167431791Y-98782682D01*
X167288934Y-98854111D01*
X167146077Y-98854111D01*
X166074648Y-98782682D02*
X166217505Y-98854111D01*
X166503220Y-98854111D01*
X166646077Y-98782682D01*
X166717505Y-98639825D01*
X166717505Y-98068397D01*
X166646077Y-97925540D01*
X166503220Y-97854111D01*
X166217505Y-97854111D01*
X166074648Y-97925540D01*
X166003220Y-98068397D01*
X166003220Y-98211254D01*
X166717505Y-98354111D01*
X165360362Y-98854111D02*
X165360362Y-97854111D01*
X165360362Y-98139825D02*
X165288934Y-97996968D01*
X165217505Y-97925540D01*
X165074648Y-97854111D01*
X164931791Y-97854111D01*
D11*
X127568912Y-91249808D02*
X126807007Y-91249808D01*
X127187960Y-91630760D02*
X127187960Y-90868856D01*
X155317720Y-95398293D02*
X154841530Y-95064960D01*
X155317720Y-94826864D02*
X154317720Y-94826864D01*
X154317720Y-95207817D01*
X154365340Y-95303055D01*
X154412959Y-95350674D01*
X154508197Y-95398293D01*
X154651054Y-95398293D01*
X154746292Y-95350674D01*
X154793911Y-95303055D01*
X154841530Y-95207817D01*
X154841530Y-94826864D01*
X155317720Y-96350674D02*
X155317720Y-95779245D01*
X155317720Y-96064960D02*
X154317720Y-96064960D01*
X154460578Y-95969721D01*
X154555816Y-95874483D01*
X154603435Y-95779245D01*
D12*
X153925340Y-95826212D02*
X153925340Y-95303708D01*
X152505340Y-95826212D02*
X152505340Y-95303708D01*
M02*
